<svg width="39" height="42" viewBox="0 0 39 42" fill="none" xmlns="http://www.w3.org/2000/svg">
<path opacity="0.75" d="M23.6858 8.45121C22.9295 9.64415 20.9359 9.91052 17.4782 8.15479M17.4782 8.15479C17.8305 7.70468 18.1871 7.19766 18.548 6.63373C22.0458 1.17479 28.3617 0.675221 32.0311 3.61382C34.566 5.64582 41.0138 10.6704 33.5246 35.3977C33.2135 36.4214 32.3185 37.2237 31.2171 37.4703C29.4589 37.8642 27.7703 36.7685 27.347 35.1437C26.4462 31.6976 24.8765 27.8425 22.0306 28.4799C19.1846 29.1173 19.4074 33.2742 20.0645 36.7748C20.3747 38.4249 19.3149 40.1362 17.5566 40.53C16.4553 40.7767 15.3035 40.4328 14.5855 39.6397C-2.73812 20.4678 0.952747 13.1744 2.37874 10.2553C4.4441 6.0322 10.3697 3.78998 15.8619 7.23535C16.4285 7.59017 16.9673 7.89665 17.4782 8.15479Z" stroke="#31C1B9" stroke-width="2" stroke-linecap="round" stroke-linejoin="round"/>
</svg>
