<svg width="48" height="48" viewBox="0 0 48 48" fill="none" xmlns="http://www.w3.org/2000/svg">
<path d="M24 12L26.868 17.5545L33 18.4455L28.5 22.5L30 28.5L24 25.125L18 28.5L19.5 22.5L15 18.4455L21.3 17.5545L24 12Z" fill="white"/>
<path d="M26.604 45L24 43.5L30 33H39C39.3941 33.0006 39.7845 32.9234 40.1488 32.7728C40.513 32.6223 40.8439 32.4013 41.1226 32.1226C41.4013 31.8439 41.6223 31.513 41.7728 31.1488C41.9234 30.7845 42.0006 30.3941 42 30V12C42.0006 11.6059 41.9234 11.2155 41.7728 10.8512C41.6223 10.487 41.4013 10.1561 41.1226 9.87736C40.8439 9.59866 40.513 9.37771 40.1488 9.22715C39.7845 9.0766 39.3941 8.99941 39 9H9C8.60587 8.99941 8.21549 9.0766 7.85125 9.22715C7.487 9.37771 7.15605 9.59866 6.87736 9.87736C6.59866 10.1561 6.37771 10.487 6.22715 10.8512C6.0766 11.2155 5.99941 11.6059 6 12V30C5.99941 30.3941 6.0766 30.7845 6.22715 31.1488C6.37771 31.513 6.59866 31.8439 6.87736 32.1226C7.15605 32.4013 7.487 32.6223 7.85125 32.7728C8.21549 32.9234 8.60587 33.0006 9 33H22.5V36H9C7.4087 36 5.88258 35.3679 4.75736 34.2426C3.63214 33.1174 3 31.5913 3 30V12C3 10.4087 3.63214 8.88258 4.75736 7.75736C5.88258 6.63214 7.4087 6 9 6H39C40.5913 6 42.1174 6.63214 43.2426 7.75736C44.3679 8.88258 45 10.4087 45 12V30C45 31.5913 44.3679 33.1174 43.2426 34.2426C42.1174 35.3679 40.5913 36 39 36H31.7475L26.604 45Z" fill="white"/>
</svg>
