<svg width="33" height="33" viewBox="0 0 33 33" fill="none" xmlns="http://www.w3.org/2000/svg">
<path d="M19.4417 16.4655L21.1363 15.4625L21.9925 13.5313C22.0246 13.4588 22.0329 13.378 22.0162 13.3005C21.9995 13.2231 21.9587 13.1529 21.8997 13.1C20.9902 12.2871 20.3369 11.2271 20.0197 10.0492C19.7025 8.87133 19.735 7.62659 20.1132 6.46688C20.4914 5.30716 21.1991 4.28262 22.1497 3.51828C23.1004 2.75394 24.253 2.28285 25.4669 2.16251C25.2605 2.14192 25.0515 2.13151 24.8397 2.13126C23.5669 2.13112 22.324 2.51749 21.2756 3.23924C20.2272 3.96098 19.4226 4.98407 18.9684 6.17311C18.5142 7.36215 18.4318 8.66108 18.732 9.898C19.0323 11.1349 19.701 12.2515 20.6498 13.1C20.7089 13.1529 20.7497 13.2231 20.7663 13.3005C20.783 13.378 20.7747 13.4588 20.7427 13.5313L19.4417 16.4655Z" fill="#D4E1F4"/>
<path d="M2.79081 24.7446V31.2438C2.79081 31.3432 2.83032 31.4386 2.90064 31.5089C2.97097 31.5792 3.06635 31.6188 3.16581 31.6188H9.80287C9.90233 31.6188 9.99771 31.5792 10.068 31.5089C10.1384 31.4386 10.1779 31.3432 10.1779 31.2438V29.535C10.222 29.3946 10.3099 29.2719 10.4287 29.1849C10.5474 29.0979 10.6909 29.051 10.8381 29.0513H10.8411C11.1548 29.0526 11.5172 29.0541 11.8556 29.0558C11.8891 29.1073 11.9348 29.1498 11.9886 29.1794C12.0424 29.2091 12.1027 29.2251 12.1641 29.226L15.1486 29.2718H15.1644C15.5317 29.2732 15.8845 29.1287 16.1453 28.8701C16.406 28.6114 16.5533 28.2597 16.5548 27.8924C16.5563 27.5252 16.4118 27.1723 16.1531 26.9116C15.8945 26.6508 15.5428 26.5035 15.1755 26.502H15.0929V24.9699H16.9107C17.0251 24.9699 17.1378 24.9421 17.239 24.8889C17.3403 24.8356 17.4271 24.7586 17.4919 24.6644C17.5568 24.5702 17.5978 24.4617 17.6114 24.3481C17.625 24.2345 17.6108 24.1194 17.57 24.0125L16.1672 20.338C16.1663 19.9967 16.1629 18.9693 16.1552 18.8426C16.0449 16.8324 15.1628 14.9424 13.6928 13.5667C12.2229 12.191 10.2786 11.4359 8.2655 11.4588C8.198 11.4596 8.13083 11.4612 8.064 11.4636C6.85202 11.506 5.67084 11.8565 4.63187 12.482C3.59291 13.1075 2.73041 13.9874 2.12575 15.0386C1.50194 16.1023 1.15868 17.3071 1.1282 18.5399C1.09772 19.7727 1.38102 20.993 1.9515 22.0863C2.17018 22.6288 2.72418 24.1054 2.79081 24.7446ZM15.6185 27.4438C15.7056 27.5331 15.7644 27.6461 15.7876 27.7686C15.8108 27.8912 15.7975 28.0179 15.7491 28.1329C15.7008 28.2479 15.6197 28.3461 15.5159 28.4152C15.4121 28.4844 15.2902 28.5214 15.1654 28.5218H15.1582L12.5501 28.4818L12.5679 27.252H15.171C15.2546 27.2527 15.3372 27.27 15.414 27.3029C15.4908 27.3359 15.5603 27.3837 15.6185 27.4438ZM8.27356 12.2088C8.30025 12.2088 8.32675 12.2083 8.35343 12.2083C10.16 12.208 11.898 12.9001 13.21 14.1421C14.5219 15.3842 15.308 17.0817 15.4065 18.8856C15.4114 18.9698 15.4157 19.7331 15.4174 20.4085C15.4175 20.4539 15.4258 20.4989 15.442 20.5414L16.8464 24.2199H14.7179C14.6184 24.2199 14.523 24.2594 14.4527 24.3297C14.3824 24.4 14.3429 24.4954 14.3429 24.5949V26.5019H12.1986C12.1 26.5019 12.0055 26.5407 11.9353 26.6098C11.8651 26.679 11.825 26.773 11.8236 26.8715L11.815 27.4578L10.2628 27.4483C9.70014 27.443 9.16261 27.2145 8.76845 26.8129C8.3743 26.4113 8.15581 25.8696 8.16106 25.3069L8.16731 24.6169C8.76712 24.5102 9.31113 24.1982 9.70606 23.7343C10.101 23.2704 10.3222 22.6836 10.3319 22.0744L10.3357 21.7943C10.3442 21.1626 10.1239 20.5491 9.71562 20.067C9.3073 19.5849 8.73843 19.2667 8.11393 19.1711V12.2125C8.16712 12.2108 8.22012 12.2093 8.27356 12.2088ZM7.71812 19.8911H7.73568C7.98162 19.8934 8.22469 19.9443 8.45093 20.0407C8.67717 20.1372 8.88213 20.2774 9.05405 20.4533C9.22598 20.6291 9.36147 20.8372 9.45277 21.0656C9.54407 21.294 9.58936 21.5381 9.58606 21.7841L9.58225 22.0642C9.57468 22.5549 9.37471 23.0229 9.02541 23.3676C8.6761 23.7123 8.20541 23.906 7.71468 23.907H7.69712C7.45118 23.9047 7.20812 23.8539 6.98188 23.7574C6.75564 23.661 6.55067 23.5208 6.37876 23.3449C6.20684 23.169 6.07134 22.9609 5.98006 22.7325C5.88877 22.5042 5.84349 22.26 5.84681 22.0141L5.85056 21.7338C5.85816 21.2432 6.05814 20.7751 6.40744 20.4305C6.75674 20.0858 7.22742 19.8922 7.71812 19.8911ZM2.77437 15.4161C3.25431 14.582 3.91629 13.8669 4.71098 13.3241C5.50567 12.7813 6.41259 12.4249 7.36418 12.2813V19.1658C6.74368 19.2518 6.17442 19.5569 5.75929 20.026C5.34416 20.4952 5.11055 21.0973 5.10068 21.7237L5.09693 22.0039C5.08815 22.6527 5.32068 23.2817 5.74941 23.7689C6.17814 24.256 6.77252 24.5665 7.41725 24.6402L7.411 25.3C7.40749 25.6772 7.47833 26.0514 7.61947 26.4012C7.76061 26.751 7.96928 27.0696 8.23356 27.3387C8.49785 27.6078 8.81256 27.8223 9.15974 27.9698C9.50692 28.1172 9.87975 28.1949 10.2569 28.1983L11.8041 28.2078L11.8026 28.3054C11.4805 28.3039 11.1406 28.3024 10.8441 28.3011H10.8379C10.5164 28.3007 10.204 28.4079 9.95051 28.6055C9.697 28.8032 9.51693 29.0801 9.439 29.3919C9.43151 29.4218 9.42774 29.4526 9.42775 29.4834V30.8688H3.54081V24.7263C3.54081 24.7147 3.54025 24.7031 3.53925 24.6915C3.458 23.816 2.67331 21.8711 2.64 21.7886C2.6355 21.7775 2.63043 21.7665 2.62481 21.7558C2.1091 20.7734 1.85218 19.6758 1.87829 18.5665C1.90441 17.4572 2.21269 16.3729 2.77406 15.4158L2.77437 15.4161Z" fill="#0178A3"/>
<path d="M24.8399 1.38126C23.4385 1.38108 22.0691 1.79946 20.9071 2.58274C19.7451 3.36603 18.8436 4.47851 18.3181 5.77757C17.7925 7.07662 17.667 8.50303 17.9575 9.87392C18.248 11.2448 18.9414 12.4977 19.9487 13.4719L18.2812 17.2333C18.2489 17.306 18.2405 17.3871 18.2573 17.4648C18.274 17.5426 18.3151 17.613 18.3745 17.6659C18.434 17.7187 18.5087 17.7513 18.5878 17.759C18.667 17.7666 18.7466 17.7489 18.815 17.7083L23.0275 15.2154C23.9948 15.4732 25.006 15.5217 25.9935 15.3575C26.981 15.1932 27.922 14.8202 28.7538 14.2632C29.5856 13.7063 30.289 12.9782 30.817 12.1277C31.3449 11.2771 31.6853 10.3238 31.8153 9.33118C31.9454 8.3386 31.8621 7.32971 31.5711 6.37188C31.2801 5.41406 30.788 4.52937 30.1278 3.77691C29.4675 3.02445 28.6543 2.42155 27.7424 2.00849C26.8306 1.59543 25.8411 1.38172 24.84 1.38163L24.8399 1.38126ZM24.8399 14.7014C24.2442 14.7021 23.6514 14.6178 23.0795 14.451C23.0302 14.4365 22.9785 14.4323 22.9275 14.4387C22.8765 14.4451 22.8274 14.4619 22.7832 14.4881L19.4418 16.4655L20.7427 13.5313C20.7748 13.4588 20.783 13.378 20.7664 13.3005C20.7497 13.2231 20.7089 13.1529 20.6498 13.1C19.5552 12.1204 18.8384 10.7884 18.6238 9.33527C18.4092 7.88215 18.7104 6.39975 19.4751 5.1456C20.2397 3.89145 21.4196 2.94479 22.8096 2.47007C24.1997 1.99534 25.7121 2.02255 27.0842 2.54696C28.4563 3.07137 29.6014 4.05985 30.3204 5.34069C31.0395 6.62152 31.2872 8.11379 31.0205 9.55826C30.7538 11.0027 29.9895 12.3081 28.8604 13.2477C27.7313 14.1873 26.3088 14.7016 24.8399 14.7014V14.7014Z" fill="#31C1B9"/>
<path d="M26.1404 4.94731C25.8249 5.0313 25.5255 5.16659 25.2539 5.34775C25.1227 5.43262 24.986 5.50861 24.8446 5.57519C24.8204 5.56125 24.7946 5.54656 24.7683 5.53144C24.3874 5.3115 23.812 4.97919 23.2958 4.91069C22.6896 4.83056 22.1666 4.93231 21.7403 5.21375C21.3596 5.47058 21.0792 5.85102 20.9466 6.29075C20.6333 7.27094 20.967 8.34538 21.7063 8.73675C21.9813 8.88219 22.2794 9.04606 22.3442 9.15063C22.383 9.21313 22.3681 9.39125 22.3474 9.63731C22.3424 9.695 22.3373 9.75675 22.3322 9.82331C22.2947 10.3179 22.2388 12.0018 23.11 12.9022C23.1826 12.9729 23.271 13.0253 23.3678 13.0551C23.4735 13.093 23.5873 13.1027 23.698 13.0831C23.8086 13.0636 23.9122 13.0155 23.9985 12.9437C24.0848 12.8719 24.1509 12.7787 24.1902 12.6735C24.2296 12.5683 24.2407 12.4546 24.2226 12.3438C24.1683 11.8045 24.1695 10.2789 24.8073 9.5025C24.8186 9.492 24.8334 9.48616 24.8488 9.48616C24.8642 9.48616 24.879 9.492 24.8903 9.5025C25.6193 10.4123 25.477 12.1936 25.4633 12.3456C25.4467 12.4561 25.459 12.569 25.4989 12.6733C25.5387 12.7776 25.6048 12.87 25.6908 12.9413C25.7767 13.0126 25.8796 13.0606 25.9895 13.0805C26.0994 13.1005 26.2126 13.0918 26.3181 13.0552C26.415 13.0254 26.5034 12.973 26.576 12.9023C27.4472 12.0023 27.3916 10.3181 27.3538 9.82338C27.3487 9.75725 27.3436 9.69575 27.3387 9.63831C27.318 9.39206 27.3031 9.21419 27.3419 9.15138C27.4066 9.047 27.7052 8.88263 27.9801 8.73669C28.7526 8.32663 29.0771 7.07481 28.6744 6.05788C28.2717 5.04094 27.3241 4.625 26.1404 4.94731ZM27.6285 8.07388C27.1116 8.34813 26.8556 8.51175 26.7043 8.75631C26.535 9.02975 26.5586 9.31119 26.5914 9.70075C26.596 9.75644 26.601 9.81613 26.6059 9.88019C26.6622 10.6197 26.5846 11.5453 26.2283 12.1298C26.2543 11.4845 26.2252 9.9685 25.4755 9.03306C25.4003 8.94042 25.3055 8.86561 25.1979 8.814C25.0903 8.7624 24.9726 8.73529 24.8533 8.73462C24.734 8.73396 24.616 8.75976 24.5079 8.81016C24.3997 8.86057 24.3041 8.93433 24.2279 9.02613C23.4623 9.958 23.4318 11.4818 23.4578 12.1296C23.1016 11.5451 23.0238 10.6196 23.0803 9.88025C23.0852 9.81581 23.0902 9.75588 23.095 9.69994C23.1711 8.79413 23.045 8.59656 22.0575 8.07369C21.6505 7.85819 21.4654 7.13163 21.6613 6.51888C21.7836 6.136 22.1463 5.51419 23.1973 5.654C23.566 5.70281 24.0838 6.00194 24.3933 6.18069C24.5013 6.24319 24.5945 6.29694 24.6683 6.33363C25.0237 6.51038 25.5598 6.733 26.1133 6.62481C26.162 6.61577 26.2084 6.59716 26.2499 6.57007C26.2913 6.54298 26.327 6.50794 26.3549 6.46698C26.3827 6.42601 26.4022 6.37993 26.4121 6.33141C26.4221 6.28288 26.4223 6.23286 26.4128 6.18424C26.4033 6.13562 26.3843 6.08937 26.3568 6.04815C26.3293 6.00692 26.294 5.97156 26.2528 5.94408C26.2115 5.91661 26.1653 5.89757 26.1167 5.88807C26.0681 5.87858 26.018 5.87881 25.9695 5.88875C25.9082 5.90034 25.8459 5.90514 25.7836 5.90306C25.956 5.79921 26.1426 5.72102 26.3375 5.67094C27.3644 5.39063 27.796 5.87675 27.9769 6.33344C28.2339 6.98219 28.0613 7.84419 27.6285 8.07388Z" fill="#31C1B9"/>
</svg>
