<svg width="32" height="33" viewBox="0 0 32 33" fill="none" xmlns="http://www.w3.org/2000/svg">
<path d="M18.0914 5.35915C18.4491 5.13734 18.758 4.94584 19.3655 4.78021C19.8179 4.64764 20.2918 4.60436 20.7607 4.65278C20.159 4.29296 19.3685 4.22496 18.4504 4.47496C17.8429 4.64059 17.534 4.83215 17.1762 5.05396C16.9491 5.19995 16.7135 5.33239 16.4707 5.45059C16.7792 5.58935 17.1062 5.68292 17.4414 5.7284C17.6644 5.61676 17.8813 5.49351 18.0914 5.35915Z" fill="#D4E1F4"/>
<path d="M18.8196 14.5425C18.6946 13.0645 18.3134 11.9188 17.6867 11.1372C17.6021 11.0321 17.4949 10.9475 17.373 10.8896C17.2511 10.8318 17.1178 10.8022 16.9829 10.8031C16.9107 10.8031 16.8388 10.8117 16.7686 10.8285C16.7696 10.8297 16.7706 10.8309 16.7716 10.8321C17.3981 11.6137 17.7792 12.7594 17.9045 14.2374C17.9617 14.896 17.9624 15.5582 17.9064 16.2169C17.9059 16.2219 17.9052 16.2269 17.9042 16.2319C17.8944 16.2799 17.8978 16.3296 17.914 16.3758C17.9301 16.422 17.9585 16.463 17.9961 16.4943C18.0336 16.5257 18.079 16.5464 18.1273 16.5541C18.1756 16.5618 18.2252 16.5563 18.2706 16.5382C18.3115 16.5272 18.3501 16.5089 18.3846 16.4842C18.5735 16.2849 18.7334 16.0601 18.8596 15.8162C18.8684 15.3913 18.8551 14.9661 18.8196 14.5425Z" fill="#D4E1F4"/>
<path d="M14.2095 16.2171C14.2095 16.2136 14.208 16.2023 14.2063 16.1841C13.6054 15.1028 13.4699 13.5161 13.567 12.2466C13.5754 12.1371 13.5839 12.0353 13.592 11.9403C13.6434 11.3296 13.6744 10.9609 13.4678 10.6272C13.269 10.306 12.8637 10.0534 12.0857 9.64155C11.6568 9.41449 11.3294 8.95893 11.1635 8.35874C11.0007 7.74765 11.0147 7.10291 11.2037 6.49943C11.3929 5.90768 11.7408 5.43124 12.21 5.12162C12.7578 4.76005 13.4501 4.63168 14.2677 4.74037C14.2966 4.74418 14.3258 4.74893 14.3552 4.75412C14.0141 4.6003 13.6661 4.47687 13.3526 4.43537C12.5349 4.32693 11.8427 4.45524 11.2949 4.81662C10.8261 5.12624 10.4779 5.60268 10.2886 6.19449C10.0995 6.79794 10.0856 7.44267 10.2484 8.05374C10.4142 8.65374 10.7417 9.10949 11.1706 9.33655C11.9486 9.74843 12.3538 10.001 12.5526 10.3222C12.7592 10.6559 12.7282 11.0246 12.6769 11.6353C12.6689 11.7303 12.6603 11.8321 12.6519 11.9416C12.5344 13.4773 12.7564 15.4773 13.7316 16.4849C13.766 16.5095 13.8045 16.5277 13.8452 16.5387C13.9105 16.5629 13.9825 16.5618 14.047 16.5356C14.1115 16.5094 14.1638 16.46 14.1937 16.3971C14.2162 16.3452 14.2224 16.2878 14.2117 16.2323C14.2108 16.2271 14.2101 16.2221 14.2095 16.2171Z" fill="#D4E1F4"/>
<path d="M30.6963 19.3134C30.3739 18.7761 29.8566 18.384 29.2522 18.2187C28.6478 18.0533 28.003 18.1276 27.4519 18.4259L27.2941 18.511C26.6849 17.7668 25.6249 17.4774 24.818 17.886L24.8096 17.8904L24.4468 18.0859C24.0213 17.724 23.4943 17.5025 22.9381 17.4516C22.3818 17.4007 21.8234 17.523 21.3393 17.8016L19.4098 18.8508H16.8426C16.2859 18.8501 15.7366 18.7242 15.2352 18.4826L14.8823 18.3125C13.8792 17.8244 12.7606 17.6235 11.6503 17.7319C10.5401 17.8403 9.48147 18.2539 8.59176 18.9268C8.58357 18.9331 8.57557 18.9393 8.56794 18.9464L7.71601 19.7047C7.39102 19.9933 7.00651 20.2069 6.58976 20.3304L6.10326 18.7348C6.07982 18.658 6.03231 18.5907 5.96773 18.5428C5.90316 18.495 5.82492 18.4692 5.74457 18.4692H1.62501C1.57193 18.4692 1.51946 18.4805 1.47106 18.5022C1.42266 18.524 1.37944 18.5559 1.34425 18.5956C1.30907 18.6353 1.28271 18.6821 1.26694 18.7328C1.25117 18.7834 1.24633 18.8369 1.25276 18.8896L2.62594 30.1495C2.63704 30.2404 2.68103 30.3241 2.7496 30.3848C2.81818 30.4456 2.9066 30.4791 2.99819 30.4791H9.17757C9.23617 30.4791 9.29396 30.4653 9.34629 30.439C9.39863 30.4126 9.44405 30.3743 9.47893 30.3272C9.5138 30.2801 9.53715 30.2255 9.54711 30.1678C9.55707 30.11 9.55335 30.0507 9.53626 29.9947L8.72226 27.325L11.2563 25.7227C11.5966 25.5346 11.9957 25.4829 12.3726 25.5782C12.3804 25.5801 12.3882 25.5819 12.396 25.5833L17.5389 26.5303C18.9347 26.78 20.3738 26.5768 21.646 25.9504C21.6619 25.9426 21.6773 25.9336 21.6919 25.9235L30.5875 19.8159C30.6663 19.7618 30.7214 19.6797 30.7416 19.5863C30.7618 19.4928 30.7456 19.3952 30.6963 19.3134ZM25.1609 18.5534C25.6109 18.3278 26.2181 18.4811 26.6154 18.8774L23.2279 20.7049L23.0209 20.814C22.9133 20.5049 22.7544 20.2161 22.5508 19.9598L25.1609 18.5534ZM21.7019 18.4586L21.7108 18.4536C22.0164 18.277 22.364 18.1862 22.7168 18.1909C23.0697 18.1956 23.4148 18.2956 23.7155 18.4803L21.9834 19.4136C21.6503 19.1693 21.2689 18.9988 20.8646 18.9136L21.7019 18.4586ZM3.33019 29.7291L2.04851 19.2188H5.46688L8.67119 29.7289L3.33019 29.7291ZM21.2898 25.2899C20.168 25.836 18.9019 26.012 17.6737 25.7926L12.5431 24.8478C11.9809 24.7089 11.3869 24.7893 10.8818 25.0728C10.876 25.0761 10.8702 25.0794 10.8645 25.0831L8.49576 26.5808L6.80913 21.0488C7.3296 20.8934 7.80963 20.6257 8.21538 20.2646L9.05551 19.5167C9.83485 18.9306 10.7608 18.5711 11.7315 18.4777C12.7021 18.3843 13.6797 18.5607 14.5564 18.9874L14.9092 19.158C15.5125 19.4488 16.1735 19.6003 16.8432 19.6011H20.2646C20.7713 19.6018 21.2618 19.7797 21.6513 20.1038C22.0407 20.4279 22.3047 20.878 22.3974 21.3761L19.9069 21.2636C19.0059 21.2231 18.1032 21.2648 17.2098 21.3882C17.1113 21.4018 17.0222 21.454 16.9622 21.5333C16.9022 21.6126 16.8761 21.7125 16.8897 21.811C16.9033 21.9096 16.9556 21.9986 17.0349 22.0587C17.1142 22.1187 17.214 22.1448 17.3126 22.1311C18.1607 22.0139 19.0177 21.9743 19.8729 22.0129L22.7912 22.1449C22.7969 22.1449 22.8026 22.1453 22.8082 22.1453C22.9076 22.1453 23.003 22.1058 23.0734 22.0355C23.1437 21.9652 23.1832 21.8698 23.1832 21.7703C23.1832 21.7066 23.1804 21.6434 23.1764 21.5806L23.5814 21.367L27.8088 19.0865C28.1367 18.909 28.5142 18.8453 28.8822 18.9054C29.2501 18.9655 29.5877 19.146 29.8421 19.4186L21.2898 25.2899Z" fill="#0178A3"/>
<path d="M4.56543 28.134C4.56543 28.3711 4.63575 28.6029 4.76749 28.8001C4.89923 28.9973 5.08648 29.1509 5.30555 29.2417C5.52463 29.3324 5.7657 29.3562 5.99827 29.3099C6.23084 29.2636 6.44447 29.1494 6.61214 28.9818C6.77982 28.8141 6.89401 28.6005 6.94027 28.3679C6.98653 28.1353 6.96279 27.8943 6.87204 27.6752C6.7813 27.4561 6.62763 27.2689 6.43046 27.1371C6.2333 27.0054 6.00149 26.9351 5.76437 26.9351C5.44648 26.9353 5.14168 27.0617 4.9169 27.2865C4.69212 27.5113 4.56571 27.8161 4.56543 28.134ZM5.76437 27.6851C5.85316 27.6851 5.93996 27.7114 6.01378 27.7607C6.08761 27.81 6.14515 27.8802 6.17913 27.9622C6.21311 28.0442 6.222 28.1345 6.20468 28.2216C6.18736 28.3087 6.1446 28.3887 6.08181 28.4514C6.01903 28.5142 5.93904 28.557 5.85195 28.5743C5.76487 28.5916 5.6746 28.5827 5.59257 28.5488C5.51053 28.5148 5.44042 28.4572 5.39109 28.3834C5.34176 28.3096 5.31543 28.2228 5.31543 28.134C5.31555 28.015 5.36288 27.9008 5.44705 27.8167C5.53122 27.7325 5.64534 27.6852 5.76437 27.6851Z" fill="#0178A3"/>
<path d="M10.9244 9.83628C11.5726 10.1795 11.948 10.4044 12.0752 10.6098C12.178 10.776 12.1622 11.023 12.1165 11.5661C12.1085 11.6611 12.1 11.7629 12.0915 11.8723C12.0208 12.7439 12.0677 13.621 12.231 14.48C12.4317 15.4744 12.7951 16.2488 13.3111 16.7823C13.4047 16.8714 13.5179 16.9371 13.6417 16.9742C13.7299 17.0046 13.8225 17.0201 13.9158 17.0201C14.0359 17.0216 14.1549 16.9966 14.2643 16.9469C14.3737 16.8973 14.4709 16.8242 14.5489 16.7328C14.6269 16.6414 14.6838 16.534 14.7157 16.4181C14.7475 16.3023 14.7535 16.1808 14.7332 16.0624C14.713 15.8465 14.4519 12.7525 15.7554 11.1658C15.7876 11.1283 15.8276 11.0982 15.8725 11.0777C15.9175 11.0571 15.9664 11.0466 16.0158 11.0468C16.0652 11.0471 16.114 11.058 16.1588 11.079C16.2036 11.1 16.2433 11.1304 16.2751 11.1682C17.5552 12.7654 17.2964 15.8473 17.2765 16.0625C17.2524 16.2044 17.2659 16.3501 17.3156 16.4851C17.3654 16.6202 17.4497 16.7398 17.5602 16.8321C17.6707 16.9243 17.8034 16.986 17.9452 17.011C18.0869 17.0359 18.2327 17.0232 18.368 16.9742C18.4917 16.9371 18.6049 16.8713 18.6984 16.7823C19.2145 16.249 19.5778 15.4745 19.7785 14.48C19.9418 13.621 19.9888 12.7439 19.9181 11.8723C19.9098 11.7634 19.9013 11.662 19.8931 11.5675C19.8474 11.0242 19.8316 10.777 19.9344 10.6108C20.0614 10.4057 20.4369 10.1803 21.0853 9.83584C22.2614 9.21165 22.7458 7.28209 22.122 5.70659C21.5054 4.14915 20.0461 3.51678 18.2187 4.0149C17.5415 4.19946 17.1723 4.4284 16.8152 4.64978C16.5539 4.81953 16.2791 4.96765 15.9937 5.09265C15.9235 5.05328 15.8437 5.00715 15.7578 4.95753C15.1439 4.60296 14.2162 4.06721 13.4097 3.96028C10.7855 3.61215 9.97222 5.49253 9.78553 6.07703C9.3096 7.56546 9.82053 9.2519 10.9244 9.83628ZM10.4999 6.3054C10.8847 5.10165 11.9095 4.5179 13.3111 4.70378C13.97 4.79128 14.8202 5.28215 15.3828 5.60703C15.5582 5.70828 15.7097 5.79571 15.825 5.85315C16.3813 6.12996 17.2193 6.47871 18.0618 6.3144C18.1102 6.30496 18.1562 6.2861 18.1972 6.25888C18.2383 6.23166 18.2736 6.19663 18.3011 6.15578C18.3286 6.11492 18.3477 6.06905 18.3575 6.02079C18.3673 5.97252 18.3675 5.9228 18.358 5.87446C18.3486 5.82613 18.3297 5.78013 18.3025 5.73908C18.2753 5.69804 18.2403 5.66276 18.1994 5.63526C18.1586 5.60775 18.1127 5.58857 18.0644 5.57879C18.0162 5.56901 17.9664 5.56884 17.9181 5.57828C17.6174 5.63696 17.2806 5.60678 16.8864 5.48284C17.0039 5.41528 17.1098 5.34959 17.2104 5.28721C17.5503 5.0764 17.844 4.8944 18.4158 4.73846C20.392 4.19971 21.1494 5.28696 21.425 5.98296C21.9 7.1824 21.5642 8.73296 20.734 9.17365C19.9187 9.60646 19.5177 9.85965 19.2971 10.2161C19.0596 10.5999 19.094 11.0098 19.1461 11.6302C19.1539 11.7231 19.1623 11.8226 19.1705 11.9295C19.2824 13.3938 19.079 15.2917 18.175 16.2445C18.1584 16.2524 18.1414 16.2592 18.124 16.265C18.1058 16.2724 18.0856 16.2731 18.067 16.267C18.0484 16.261 18.0325 16.2486 18.0221 16.232C18.0153 16.2165 18.0135 16.1994 18.017 16.1829C18.0188 16.1727 18.0203 16.1624 18.0215 16.1521C18.0365 16.0075 18.3743 12.588 16.8605 10.6992C16.7589 10.5743 16.6309 10.4734 16.4856 10.4039C16.3404 10.3343 16.1815 10.2977 16.0205 10.2968C15.8595 10.2959 15.7002 10.3307 15.5542 10.3986C15.4082 10.4666 15.2791 10.566 15.176 10.6898C13.6317 12.5695 13.9732 16.0069 13.9885 16.1523C13.9896 16.1626 13.9911 16.1728 13.993 16.1829C13.9964 16.1994 13.9946 16.2165 13.9879 16.2319C13.9775 16.2485 13.9616 16.2609 13.943 16.2669C13.9244 16.273 13.9042 16.2723 13.886 16.265C13.8686 16.2592 13.8515 16.2524 13.8348 16.2445C12.9309 15.2916 12.7275 13.3938 12.8395 11.9295C12.8477 11.8221 12.8561 11.7222 12.864 11.6289C12.9162 11.0087 12.9506 10.5989 12.713 10.2151C12.492 9.85796 12.0909 9.60515 11.2755 9.17346C10.4908 8.75809 10.1356 7.44465 10.4999 6.3054Z" fill="#31C1B9"/>
<path d="M28.4094 7.14929C28.4094 7.04984 28.3699 6.95445 28.2996 6.88413C28.2292 6.8138 28.1339 6.77429 28.0344 6.77429H25.8506C25.7511 6.77429 25.6557 6.8138 25.5854 6.88413C25.5151 6.95445 25.4756 7.04984 25.4756 7.14929C25.4756 7.24875 25.5151 7.34413 25.5854 7.41446C25.6557 7.48478 25.7511 7.52429 25.8506 7.52429H28.0344C28.1339 7.52429 28.2292 7.48478 28.2996 7.41446C28.3699 7.34413 28.4094 7.24875 28.4094 7.14929Z" fill="#31C1B9"/>
<path d="M25.0333 4.9069C25.1143 4.90691 25.1931 4.88058 25.2579 4.8319L27.4416 3.1959C27.4822 3.16684 27.5166 3.12996 27.5428 3.08742C27.569 3.04488 27.5864 2.99754 27.594 2.94817C27.6017 2.89881 27.5994 2.84842 27.5873 2.79995C27.5751 2.75149 27.5535 2.70594 27.5235 2.66597C27.4936 2.626 27.4559 2.59242 27.4128 2.56719C27.3697 2.54197 27.322 2.52561 27.2724 2.51908C27.2229 2.51256 27.1726 2.51599 27.1244 2.52918C27.0762 2.54237 27.0312 2.56505 26.9919 2.5959L24.8082 4.23177C24.7452 4.279 24.6987 4.34483 24.6753 4.41996C24.6518 4.49509 24.6526 4.57569 24.6774 4.65036C24.7023 4.72502 24.7501 4.78997 24.8139 4.83599C24.8778 4.88201 24.9545 4.90677 25.0332 4.90677L25.0333 4.9069Z" fill="#31C1B9"/>
<path d="M24.8082 10.067L26.9919 11.7029C27.0716 11.7599 27.1705 11.7835 27.2674 11.7685C27.3642 11.7535 27.4514 11.7012 27.5101 11.6228C27.5689 11.5444 27.5946 11.4461 27.5818 11.3489C27.569 11.2517 27.5187 11.1634 27.4416 11.1029L25.2579 9.46699C25.2186 9.43615 25.1736 9.41346 25.1254 9.40027C25.0772 9.38708 25.0269 9.38365 24.9774 9.39018C24.9278 9.39671 24.8801 9.41306 24.837 9.43828C24.7939 9.46351 24.7562 9.49709 24.7263 9.53706C24.6963 9.57703 24.6747 9.62259 24.6626 9.67105C24.6504 9.71951 24.6481 9.7699 24.6558 9.81927C24.6634 9.86863 24.6808 9.91597 24.707 9.95851C24.7332 10.0011 24.7676 10.0379 24.8082 10.067Z" fill="#31C1B9"/>
<path d="M6.52366 7.14929C6.52366 7.04984 6.48415 6.95445 6.41382 6.88413C6.3435 6.8138 6.24811 6.77429 6.14866 6.77429H3.96484C3.86539 6.77429 3.77 6.8138 3.69968 6.88413C3.62935 6.95445 3.58984 7.04984 3.58984 7.14929C3.58984 7.24875 3.62935 7.34413 3.69968 7.41446C3.77 7.48478 3.86539 7.52429 3.96484 7.52429H6.14866C6.24811 7.52429 6.3435 7.48478 6.41382 7.41446C6.48415 7.34413 6.52366 7.24875 6.52366 7.14929Z" fill="#31C1B9"/>
<path d="M7.26718 9.54205C7.23765 9.50262 7.20065 9.46941 7.15829 9.44429C7.11592 9.41917 7.06903 9.40264 7.02028 9.39565C6.97152 9.38865 6.92187 9.39133 6.87415 9.40353C6.82644 9.41573 6.78159 9.4372 6.74218 9.46673L4.55849 11.1027C4.4814 11.1632 4.43106 11.2515 4.41826 11.3486C4.40545 11.4458 4.43119 11.5441 4.48997 11.6225C4.54874 11.701 4.63588 11.7533 4.73274 11.7682C4.82959 11.7832 4.92846 11.7597 5.00818 11.7027L7.19186 10.0667C7.27139 10.0071 7.32399 9.91836 7.33811 9.81998C7.35223 9.72159 7.32672 9.62163 7.26718 9.54205Z" fill="#31C1B9"/>
<path d="M4.55823 3.19596L6.74192 4.83196C6.78132 4.86151 6.82615 4.88301 6.87385 4.89523C6.92156 4.90745 6.9712 4.91016 7.01995 4.90319C7.0687 4.89623 7.11561 4.87973 7.15798 4.85464C7.20035 4.82955 7.23737 4.79636 7.26692 4.75696C7.29647 4.71757 7.31797 4.67274 7.33019 4.62503C7.34241 4.57733 7.34512 4.52768 7.33815 4.47893C7.33119 4.43018 7.31469 4.38328 7.2896 4.3409C7.26451 4.29853 7.23132 4.26151 7.19192 4.23196L5.00792 2.59578C4.96863 2.56493 4.92357 2.54225 4.87539 2.52906C4.82721 2.51587 4.77689 2.51244 4.72736 2.51896C4.67784 2.52549 4.63012 2.54185 4.58701 2.56707C4.54389 2.59229 4.50625 2.62588 4.47629 2.66585C4.44634 2.70582 4.42466 2.75137 4.41255 2.79983C4.40044 2.84829 4.39814 2.89869 4.40577 2.94805C4.4134 2.99741 4.43082 3.04476 4.457 3.0873C4.48319 3.12984 4.5176 3.16672 4.55823 3.19578V3.19596Z" fill="#31C1B9"/>
</svg>
