<svg width="24" height="25" viewBox="0 0 24 25" fill="none" xmlns="http://www.w3.org/2000/svg">
<path d="M20.4794 10.3536H3.02185M15.6301 2.59473V6.47418M7.87117 2.59473V6.47418M7.67719 21.992H15.824C17.4534 21.992 18.2681 21.992 18.8908 21.6748C19.4382 21.3959 19.8833 20.9508 20.1622 20.4034C20.4794 19.7807 20.4794 18.966 20.4794 17.3366V9.1898C20.4794 7.56043 20.4794 6.74574 20.1622 6.12309C19.8833 5.57564 19.4382 5.13055 18.8908 4.8516C18.2681 4.53445 17.4534 4.53445 15.824 4.53445H7.67719C6.04782 4.53445 5.23314 4.53445 4.61049 4.8516C4.06304 5.13055 3.61794 5.57564 3.339 6.12309C3.02185 6.74574 3.02185 7.56043 3.02185 9.1898V17.3366C3.02185 18.966 3.02185 19.7807 3.339 20.4034C3.61794 20.9508 4.06304 21.3959 4.61049 21.6748C5.23314 21.992 6.04782 21.992 7.67719 21.992Z" stroke="#0178A3" stroke-width="1.93973" stroke-linecap="round" stroke-linejoin="round"/>
</svg>
