<svg width="18" height="18" viewBox="0 0 18 18" fill="none" xmlns="http://www.w3.org/2000/svg">
<path d="M0.666504 6.50008C0.666504 4.92841 0.666504 4.14341 1.15484 3.65508C1.64317 3.16675 2.42817 3.16675 3.99984 3.16675H13.9998C15.5715 3.16675 16.3565 3.16675 16.8448 3.65508C17.3332 4.14341 17.3332 4.92841 17.3332 6.50008C17.3332 6.89258 17.3332 7.08925 17.2115 7.21175C17.089 7.33342 16.8915 7.33342 16.4998 7.33342H1.49984C1.10734 7.33342 0.91067 7.33342 0.78817 7.21175C0.666504 7.08925 0.666504 6.89175 0.666504 6.50008ZM0.666504 14.0001C0.666504 15.5717 0.666504 16.3567 1.15484 16.8451C1.64317 17.3334 2.42817 17.3334 3.99984 17.3334H13.9998C15.5715 17.3334 16.3565 17.3334 16.8448 16.8451C17.3332 16.3567 17.3332 15.5717 17.3332 14.0001V9.83342C17.3332 9.44092 17.3332 9.24425 17.2115 9.12175C17.089 9.00008 16.8915 9.00008 16.4998 9.00008H1.49984C1.10734 9.00008 0.91067 9.00008 0.78817 9.12175C0.666504 9.24425 0.666504 9.44175 0.666504 9.83342V14.0001Z" fill="white"/>
<path d="M4.83301 1.5V4M13.1663 1.5V4" stroke="white" stroke-width="2" stroke-linecap="round"/>
</svg>
