<svg width="40" height="60" viewBox="0 0 40 60" fill="none" xmlns="http://www.w3.org/2000/svg">
<g clip-path="url(#clip0_101_1298)">
<g clip-path="url(#clip1_101_1298)">
<path d="M39.3353 29.8083C39.3353 40.4878 30.6775 49.1417 19.998 49.1417C9.32236 49.1417 0.664551 40.4878 0.664551 29.8083C0.664551 19.1288 9.32236 10.4709 19.998 10.4709C30.6777 10.4711 39.3353 19.1288 39.3353 29.8083Z" fill="#D6EBFE"/>
<path d="M23.778 38.1934V49.1416L20 47.1402L16.222 49.1416V38.1934H23.778Z" fill="white"/>
<path d="M30.8861 31.7324L30.8786 31.7359C29.7636 32.2479 29.3232 33.6027 29.9239 34.6724L29.9281 34.6799C30.8074 36.2452 29.4439 38.1205 27.6838 37.7669L27.6764 37.7654C26.4724 37.5235 25.3186 38.3621 25.1771 39.5821C24.97 41.3666 22.7631 42.0841 21.5463 40.7624L21.5449 40.7609C20.7131 39.8574 19.2869 39.8574 18.4552 40.7609L18.4536 40.7626C17.2367 42.0843 15.0299 41.3668 14.8228 39.5823C14.6813 38.3623 13.5275 37.5235 12.3235 37.7652L12.3161 37.7666C10.556 38.1201 9.19252 36.2449 10.0717 34.6795L10.076 34.6721C10.6769 33.6023 10.2364 32.2474 9.12127 31.7354L9.11393 31.7321C7.48237 30.983 7.48237 28.6646 9.11393 27.9154L9.12143 27.912C10.2364 27.3999 10.6769 26.0451 10.0761 24.9754L10.0719 24.9679C9.19268 23.4026 10.5561 21.5273 12.3163 21.8809L12.3236 21.8824C13.5277 22.1243 14.6814 21.2857 14.823 20.0657C15.03 18.2812 17.2369 17.5637 18.4538 18.8854L18.4552 18.8869C19.2869 19.7904 20.7131 19.7904 21.5449 18.8869L21.5464 18.8852C22.7633 17.5635 24.9702 18.281 25.1772 20.0655C25.3188 21.2855 26.4725 22.1243 27.6766 21.8826L27.6839 21.881C29.4441 21.5276 30.8075 23.4027 29.9283 24.9682L29.9241 24.9755C29.3232 26.0454 29.7636 27.4002 30.8788 27.9123L30.8861 27.9155C32.5177 28.6648 32.5177 30.9832 30.8861 31.7324Z" fill="#31C1B9"/>
<path d="M25.9366 29.8257C25.9366 33.1028 23.2788 35.7607 19.9983 35.7607C16.7213 35.7607 14.0633 33.1029 14.0633 29.8257C14.0633 26.5453 16.7211 23.8875 19.9983 23.8875C23.2788 23.8875 25.9366 26.5453 25.9366 29.8257Z" fill="white"/>
<path d="M23.1416 28.8669C23.1416 29.5125 22.4252 31.16 21.8706 32.3389C21.6425 32.8239 20.9452 32.7955 20.7544 32.2945C20.5259 31.6945 20.2489 31.0266 20.0005 30.5911C19.7514 31.0267 19.4742 31.6948 19.2455 32.2948C19.0545 32.7956 18.3575 32.8241 18.1294 32.3391C17.5747 31.1603 16.8583 29.5125 16.8583 28.8669C16.8583 27.8147 17.712 26.9609 18.7653 26.9609C19.2364 26.9609 19.6669 27.1319 20.0005 27.4141C20.3341 27.1319 20.7645 26.9609 21.2344 26.9609C22.288 26.9609 23.1416 27.8147 23.1416 28.8669Z" fill="white"/>
<path d="M8.9525 27.5643C7.02406 28.4495 7.01438 31.194 8.96 32.0873C9.8661 32.5034 10.2331 33.602 9.73422 34.4906C8.69344 36.3437 10.3048 38.5661 12.3997 38.1446C13.3794 37.9473 14.3225 38.6265 14.4386 39.6268C14.5394 40.494 15.0648 41.2165 15.8352 41.5815V49.1415C15.8352 49.4329 16.1464 49.6195 16.4028 49.4832L20.0003 47.5776L23.5973 49.4832C23.8561 49.6195 24.165 49.4317 24.165 49.1415V41.5815C24.9353 41.2165 25.4606 40.494 25.5611 39.6268C25.6759 38.6375 26.6083 37.9446 27.608 38.1461C29.6905 38.5615 31.3103 36.35 30.2613 34.4825C29.7658 33.6014 30.1392 32.5007 31.0373 32.0882L31.0448 32.0848C31.0459 32.0845 31.0467 32.084 31.0475 32.0837C32.9747 31.1987 32.9867 28.4548 31.0403 27.5607C30.1341 27.1446 29.7667 26.0456 30.2658 25.1576C31.3017 23.3123 29.7058 21.0828 27.6003 21.5034C26.6175 21.7015 25.677 21.0173 25.5614 20.0209C25.3136 17.8828 22.675 17.0857 21.288 18.5978C21.2789 18.6059 21.2683 18.6161 21.2605 18.625C20.5814 19.3626 19.4203 19.3643 18.7381 18.6234C17.3005 17.0598 14.6842 17.905 14.4391 20.0211C14.3248 21.0045 13.3983 21.7043 12.3927 21.5017C10.3117 21.0836 8.69063 23.2979 9.73875 25.165C10.2253 26.0312 9.88157 27.1378 8.9525 27.5643ZM23.3914 48.4993L20.1811 46.7984C20.0678 46.7387 19.9327 46.7387 19.8194 46.7984L16.6086 48.4993V41.8054C17.4467 41.9114 18.2077 41.6007 18.7397 41.0231C19.4175 40.2868 20.5784 40.2823 21.262 41.0246C21.8181 41.629 22.6028 41.9043 23.3916 41.8045L23.3914 48.4993ZM10.4091 24.7786C9.69203 23.5021 10.8022 21.9695 12.247 22.2615C13.6745 22.5479 15.0403 21.5511 15.207 20.1103C15.3758 18.6565 17.1742 18.0668 18.1708 19.1489C19.1705 20.2359 20.8728 20.1914 21.8033 19.1743C21.8123 19.1662 21.823 19.1561 21.8308 19.1471C22.8253 18.0686 24.6242 18.6551 24.793 20.1103C24.9594 21.5411 26.312 22.5503 27.7602 22.2603C29.192 21.974 30.3122 23.4953 29.5869 24.7864C28.8797 26.0457 29.3884 27.6537 30.7247 28.2671C32.0564 28.879 32.0547 30.7706 30.7247 31.3809L30.7172 31.3843C29.408 31.9859 28.8684 33.5851 29.5911 34.8692C30.3077 36.145 29.2003 37.6778 27.7523 37.3865C26.3289 37.0995 24.9597 38.0951 24.7928 39.5379C24.6239 40.9934 22.8244 41.58 21.8291 40.499C20.8445 39.4298 19.1547 39.4303 18.1694 40.5009C17.1738 41.5817 15.3753 40.9901 15.2067 39.5375C15.0416 38.1109 13.6936 37.0978 12.2395 37.3879C10.8123 37.6762 9.6861 36.1554 10.4128 34.8618C11.1158 33.61 10.62 31.9986 9.275 31.3807C7.94563 30.7707 7.94016 28.88 9.2825 28.2637C10.5872 27.665 11.1339 26.0695 10.4091 24.7786Z" fill="#0178A3"/>
<path d="M19.9983 36.1475C23.4858 36.1475 26.3235 33.3114 26.3235 29.8257C26.3235 26.3382 23.4858 23.5007 19.9983 23.5007C16.5127 23.5007 13.6766 26.3382 13.6766 29.8257C13.6766 33.3114 16.5127 36.1475 19.9983 36.1475ZM19.9983 24.2742C23.0595 24.2742 25.55 26.7645 25.55 29.8257C25.55 32.885 23.0594 35.374 19.9983 35.374C16.9391 35.374 14.45 32.885 14.45 29.8257C14.4499 26.7646 16.9389 24.2742 19.9983 24.2742Z" fill="#0178A3"/>
<path d="M19.6071 32.4325C19.746 32.0677 19.8786 31.7433 20.0002 31.4672C20.1222 31.7433 20.2539 32.0677 20.393 32.432C20.7069 33.2544 21.8499 33.2906 22.2208 32.5034C23.0886 30.6591 23.5286 29.4355 23.5286 28.8667C23.5286 27.6025 22.4996 26.5742 21.2349 26.5742C20.7968 26.5742 20.3686 26.7008 20.0008 26.9348C19.6333 26.7008 19.2047 26.5742 18.766 26.5742C17.5013 26.5742 16.4722 27.6025 16.4722 28.8667C16.4722 29.4355 16.9122 30.6594 17.78 32.5038C18.1538 33.2978 19.2946 33.2523 19.6071 32.4325ZM18.7657 27.3478C19.1255 27.3478 19.4752 27.4762 19.7505 27.7094C19.8947 27.8314 20.1058 27.8316 20.2502 27.7095C20.5263 27.4761 20.8755 27.3478 21.2347 27.3478C22.0732 27.3478 22.7552 28.0292 22.7552 28.8669C22.7552 29.0727 22.635 29.8064 21.5207 32.1742C21.4397 32.347 21.1864 32.3427 21.1158 32.1564C20.8179 31.3747 20.5558 30.7837 20.3363 30.3992C20.1883 30.1398 19.8129 30.1397 19.6649 30.3992C19.4458 30.7825 19.183 31.3739 18.8843 32.1572C18.813 32.3447 18.5599 32.3455 18.4797 32.1745C17.3654 29.8067 17.2452 29.0725 17.2452 28.8667C17.2452 28.0292 17.9272 27.3478 18.7657 27.3478Z" fill="#31C1B9"/>
</g>
</g>
<defs>
<clipPath id="clip0_101_1298">
<rect width="40" height="60" fill="white"/>
</clipPath>
<clipPath id="clip1_101_1298">
<rect width="40" height="40" fill="white" transform="translate(0 10)"/>
</clipPath>
</defs>
</svg>
