<svg width="14" height="14" viewBox="0 0 14 14" fill="none" xmlns="http://www.w3.org/2000/svg">
<path fill-rule="evenodd" clip-rule="evenodd" d="M10 0.432129H4C1.92894 0.432129 0.25 2.11106 0.25 4.18213V10.1821C0.25 12.2532 1.92894 13.9321 4 13.9321H10C12.071 13.9321 13.75 12.2532 13.75 10.1821V4.18213C13.75 2.11106 12.071 0.432129 10 0.432129ZM12.4375 10.1821C12.4334 11.5266 11.3444 12.6155 10 12.6196H4C2.65551 12.6155 1.56662 11.5266 1.5625 10.1821V4.18213C1.56662 2.83764 2.65551 1.74875 4 1.74463H10C11.3444 1.74875 12.4334 2.83764 12.4375 4.18213V10.1821ZM10.5625 4.36963C10.9767 4.36963 11.3125 4.03384 11.3125 3.61963C11.3125 3.20542 10.9767 2.86963 10.5625 2.86963C10.1483 2.86963 9.8125 3.20542 9.8125 3.61963C9.8125 4.03384 10.1483 4.36963 10.5625 4.36963ZM7 3.80713C5.13604 3.80713 3.625 5.31817 3.625 7.18213C3.625 9.0461 5.13604 10.5571 7 10.5571C8.86398 10.5571 10.375 9.0461 10.375 7.18213C10.377 6.2864 10.022 5.42681 9.38868 4.79344C8.7553 4.16007 7.89573 3.80513 7 3.80713ZM4.9375 7.18213C4.9375 8.32123 5.8609 9.24463 7 9.24463C8.1391 9.24463 9.0625 8.32123 9.0625 7.18213C9.0625 6.04303 8.1391 5.11963 7 5.11963C5.8609 5.11963 4.9375 6.04303 4.9375 7.18213Z" fill="white"/>
</svg>
