<svg width="43" height="42" viewBox="0 0 43 42" fill="none" xmlns="http://www.w3.org/2000/svg">
<path fill-rule="evenodd" clip-rule="evenodd" d="M28.6567 5.6748H14.6567C9.82425 5.6748 5.90674 9.59232 5.90674 14.4248V28.4248C5.90674 33.2573 9.82425 37.1748 14.6567 37.1748H28.6567C33.4892 37.1748 37.4067 33.2573 37.4067 28.4248V14.4248C37.4067 9.59232 33.4892 5.6748 28.6567 5.6748ZM34.3442 28.4248C34.3346 31.5619 31.7938 34.1027 28.6567 34.1123H14.6567C11.5196 34.1027 8.97885 31.5619 8.96924 28.4248V14.4248C8.97885 11.2877 11.5196 8.74691 14.6567 8.7373H28.6567C31.7938 8.74691 34.3346 11.2877 34.3442 14.4248V28.4248ZM29.9692 14.8623C30.9358 14.8623 31.7192 14.0788 31.7192 13.1123C31.7192 12.1458 30.9358 11.3623 29.9692 11.3623C29.0027 11.3623 28.2192 12.1458 28.2192 13.1123C28.2192 14.0788 29.0027 14.8623 29.9692 14.8623ZM21.6567 13.5498C17.3075 13.5498 13.7817 17.0756 13.7817 21.4248C13.7817 25.7741 17.3075 29.2998 21.6567 29.2998C26.006 29.2998 29.5317 25.7741 29.5317 21.4248C29.5365 19.3348 28.7082 17.3291 27.2303 15.8512C25.7524 14.3733 23.7468 13.5451 21.6567 13.5498ZM16.8442 21.4248C16.8442 24.0827 18.9988 26.2373 21.6567 26.2373C24.3146 26.2373 26.4692 24.0827 26.4692 21.4248C26.4692 18.7669 24.3146 16.6123 21.6567 16.6123C18.9988 16.6123 16.8442 18.7669 16.8442 21.4248Z" fill="black"/>
</svg>
