<svg width="22" height="22" viewBox="0 0 22 22" fill="none" xmlns="http://www.w3.org/2000/svg">
<path d="M0 22V2.08186C0 1.4884 0.18863 0.993266 0.565889 0.596475C0.943148 0.199684 1.41248 0.000858855 1.97389 0H20.0261C20.5883 0 21.0577 0.198825 21.4341 0.596475C21.8106 0.994125 21.9992 1.48925 22 2.08186V15.9554C22 16.548 21.8114 17.0431 21.4341 17.4408C21.0569 17.8384 20.5875 18.0368 20.0261 18.036H3.76078L0 22ZM7.96522 13.7498L11 11.8097L14.0348 13.7498L13.2281 10.1104L15.9121 7.68332L12.3848 7.35352L11 3.93957L9.61522 7.35352L6.08789 7.68332L8.77189 10.1104L7.96522 13.7498Z" fill="#FFBE4C"/>
</svg>
