<svg width="32" height="32" viewBox="0 0 32 32" fill="none" xmlns="http://www.w3.org/2000/svg">
<path d="M16.016 0C24.848 0 32 7.168 32 16C32 24.832 24.848 32 16.016 32C7.168 32 0 24.832 0 16C0 7.168 7.168 0 16.016 0ZM4.928 9.6H9.648C10.16 7.6 10.896 5.68 11.856 3.904C8.912 4.912 6.464 6.96 4.928 9.6ZM16 3.264C14.672 5.184 13.632 7.312 12.944 9.6H19.056C18.368 7.312 17.328 5.184 16 3.264ZM28.384 19.2C28.64 18.176 28.8 17.104 28.8 16C28.8 14.896 28.64 13.824 28.384 12.8H22.976C23.104 13.856 23.2 14.912 23.2 16C23.2 17.088 23.104 18.144 22.976 19.2H28.384ZM27.072 22.4H22.352C21.84 24.4 21.104 26.32 20.144 28.096C23.088 27.088 25.536 25.056 27.072 22.4ZM22.352 9.6H27.072C25.536 6.944 23.088 4.912 20.144 3.904C21.104 5.68 21.84 7.6 22.352 9.6ZM16 28.736C17.328 26.816 18.368 24.688 19.056 22.4H12.944C13.632 24.688 14.672 26.816 16 28.736ZM12.256 19.2H19.744C19.888 18.144 20 17.088 20 16C20 14.912 19.888 13.84 19.744 12.8H12.256C12.112 13.84 12 14.912 12 16C12 17.088 12.112 18.144 12.256 19.2ZM11.856 28.096C10.896 26.32 10.16 24.4 9.648 22.4H4.928C6.464 25.04 8.912 27.088 11.856 28.096ZM9.024 19.2C8.896 18.144 8.8 17.088 8.8 16C8.8 14.912 8.896 13.856 9.024 12.8H3.616C3.36 13.824 3.2 14.896 3.2 16C3.2 17.104 3.36 18.176 3.616 19.2H9.024Z" fill="white"/>
</svg>
