<svg width="43" height="42" viewBox="0 0 43 42" fill="none" xmlns="http://www.w3.org/2000/svg">
<path fill-rule="evenodd" clip-rule="evenodd" d="M8.53174 5.6748C7.08199 5.6748 5.90674 6.85005 5.90674 8.2998V34.5498C5.90674 35.9995 7.08199 37.1748 8.53174 37.1748H34.7817C36.2314 37.1748 37.4067 35.9995 37.4067 34.5498V8.2998C37.4067 6.85005 36.2314 5.6748 34.7817 5.6748H8.53174ZM15.5681 12.6796C15.5779 14.353 14.3253 15.3841 12.8389 15.3768C11.4386 15.3694 10.218 14.2546 10.2254 12.682C10.2328 11.203 11.4017 10.0144 12.9201 10.0488C14.4607 10.0833 15.5779 11.2129 15.5681 12.6796ZM22.1462 17.5079H17.7362H17.7338V32.4876H22.3947V32.1381C22.3947 31.4733 22.3942 30.8083 22.3937 30.1431C22.3923 28.369 22.3907 26.5929 22.3998 24.8193C22.4022 24.3886 22.4218 23.9408 22.5326 23.5297C22.9484 21.9941 24.3292 21.0024 25.8697 21.2461C26.859 21.401 27.5135 21.9745 27.7891 22.9072C27.959 23.4903 28.0353 24.1179 28.0427 24.7258C28.0626 26.5591 28.0598 28.3924 28.057 30.2259C28.056 30.8731 28.0549 31.5206 28.0549 32.1677V32.4852H32.7307V32.1259C32.7307 31.3349 32.7304 30.5441 32.7299 29.7532C32.729 27.7766 32.7279 25.8 32.7332 23.8227C32.7356 22.9293 32.6397 22.0483 32.4206 21.1845C32.0934 19.8999 31.4167 18.8367 30.3166 18.069C29.5365 17.5226 28.68 17.1707 27.7228 17.1314C27.6137 17.1268 27.5038 17.1209 27.3934 17.1149C26.9039 17.0885 26.4064 17.0616 25.9385 17.156C24.5997 17.4242 23.4235 18.037 22.5351 19.1173C22.4318 19.2412 22.3308 19.367 22.1802 19.5548L22.1462 19.5973V17.5079ZM10.5996 32.4925H15.2385V17.5176H10.5996V32.4925Z" fill="black"/>
</svg>
