<svg width="14" height="14" viewBox="0 0 14 14" fill="none" xmlns="http://www.w3.org/2000/svg">
<path fill-rule="evenodd" clip-rule="evenodd" d="M1.375 0.432129C0.753677 0.432129 0.25 0.935806 0.25 1.55713V12.8071C0.25 13.4284 0.753677 13.9321 1.375 13.9321H12.625C13.2463 13.9321 13.75 13.4284 13.75 12.8071V1.55713C13.75 0.935806 13.2463 0.432129 12.625 0.432129H1.375ZM4.39057 3.43417C4.39479 4.15136 3.85796 4.59327 3.22092 4.59011C2.6208 4.58694 2.09768 4.10917 2.10084 3.43523C2.10401 2.80136 2.60498 2.29194 3.25573 2.30671C3.91596 2.32148 4.39479 2.80558 4.39057 3.43417ZM7.20977 5.50345H5.31978H5.31872V11.9233H7.31627V11.7736C7.31627 11.4886 7.31605 11.2036 7.31582 10.9186C7.31522 10.1582 7.31455 9.39703 7.31845 8.6369C7.3195 8.45233 7.3279 8.2604 7.37537 8.08423C7.55357 7.4261 8.14533 7.00108 8.80555 7.10555C9.22952 7.17193 9.51003 7.4177 9.62815 7.81745C9.70098 8.06735 9.73368 8.3363 9.73682 8.59685C9.74538 9.38255 9.74417 10.1683 9.74298 10.954C9.74253 11.2314 9.74207 11.5089 9.74207 11.7862V11.9223H11.746V11.7683C11.746 11.4293 11.7458 11.0904 11.7456 10.7515C11.7452 9.90433 11.7448 9.0572 11.747 8.20978C11.7481 7.8269 11.707 7.44935 11.6131 7.07915C11.4729 6.52858 11.1828 6.07295 10.7114 5.74393C10.377 5.50977 10.01 5.35895 9.59972 5.34208C9.553 5.34014 9.5059 5.33759 9.45858 5.33504C9.2488 5.3237 9.03557 5.31218 8.83502 5.35262C8.26128 5.46758 7.7572 5.7302 7.37642 6.19318C7.33217 6.24628 7.2889 6.3002 7.22433 6.38068L7.20977 6.3989V5.50345ZM2.26123 11.9254H4.24932V5.50763H2.26123V11.9254Z" fill="white"/>
</svg>
