<svg width="14" height="18" viewBox="0 0 14 18" fill="none" xmlns="http://www.w3.org/2000/svg">
<path fill-rule="evenodd" clip-rule="evenodd" d="M6.35425 17.7553C6.35425 17.7553 0 12.3619 0 7.05485C0 5.18378 0.737498 3.38936 2.05025 2.06632C3.36301 0.743276 5.14348 0 7 0C8.85652 0 10.637 0.743276 11.9497 2.06632C13.2625 3.38936 14 5.18378 14 7.05485C14 12.3619 7.64575 17.7553 7.64575 17.7553C7.29225 18.0833 6.71038 18.0798 6.35425 17.7553ZM7 10.1413C7.40217 10.1413 7.80041 10.0615 8.17197 9.90639C8.54353 9.75128 8.88113 9.52393 9.16551 9.23733C9.44989 8.95072 9.67548 8.61047 9.82938 8.236C9.98329 7.86152 10.0625 7.46017 10.0625 7.05485C10.0625 6.64952 9.98329 6.24817 9.82938 5.8737C9.67548 5.49922 9.44989 5.15897 9.16551 4.87236C8.88113 4.58576 8.54353 4.35841 8.17197 4.2033C7.80041 4.04819 7.40217 3.96835 7 3.96835C6.18777 3.96835 5.40882 4.29353 4.83449 4.87236C4.26016 5.45119 3.9375 6.23626 3.9375 7.05485C3.9375 7.87343 4.26016 8.6585 4.83449 9.23733C5.40882 9.81616 6.18777 10.1413 7 10.1413Z" fill="white"/>
</svg>
