<svg width="41" height="40" viewBox="0 0 41 40" fill="none" xmlns="http://www.w3.org/2000/svg">
<path fill-rule="evenodd" clip-rule="evenodd" d="M20.6567 3.33325C24.635 3.33325 28.4503 4.9136 31.2633 7.72665C34.0764 10.5397 35.6567 14.355 35.6567 18.3333C35.6567 23.4566 32.8634 27.6499 29.9201 30.6583C28.4495 32.145 26.8449 33.493 25.1267 34.6849L24.4167 35.1682L24.0834 35.3899L23.4551 35.7899L22.8951 36.1316L22.2017 36.5349C21.7311 36.8035 21.1986 36.9448 20.6567 36.9448C20.1149 36.9448 19.5823 36.8035 19.1117 36.5349L18.4184 36.1316L17.5517 35.5982L17.2317 35.3899L16.5484 34.9349C14.6948 33.6808 12.9682 32.2484 11.3934 30.6583C8.45007 27.6483 5.65674 23.4566 5.65674 18.3333C5.65674 14.355 7.23709 10.5397 10.0501 7.72665C12.8632 4.9136 16.6785 3.33325 20.6567 3.33325ZM20.6567 6.66658C17.5625 6.66658 14.5951 7.89575 12.4072 10.0837C10.2192 12.2716 8.99007 15.2391 8.99007 18.3333C8.99007 22.2033 11.1101 25.5999 13.7751 28.3266C14.921 29.4866 16.1595 30.5512 17.4784 31.5099L18.2417 32.0532C18.4884 32.2255 18.7256 32.3855 18.9534 32.5333L19.6034 32.9499L20.1751 33.2983L20.6567 33.5799L21.4151 33.1316L22.0267 32.7482C22.3523 32.5416 22.7006 32.3099 23.0717 32.0532L23.8351 31.5099C25.154 30.5512 26.3925 29.4866 27.5384 28.3266C30.2034 25.6016 32.3234 22.2033 32.3234 18.3333C32.3234 15.2391 31.0942 12.2716 28.9063 10.0837C26.7184 7.89575 23.7509 6.66658 20.6567 6.66658ZM20.6567 11.6666C22.4248 11.6666 24.1205 12.369 25.3708 13.6192C26.621 14.8694 27.3234 16.5651 27.3234 18.3333C27.3234 20.1014 26.621 21.7971 25.3708 23.0473C24.1205 24.2975 22.4248 24.9999 20.6567 24.9999C18.8886 24.9999 17.1929 24.2975 15.9427 23.0473C14.6925 21.7971 13.9901 20.1014 13.9901 18.3333C13.9901 16.5651 14.6925 14.8694 15.9427 13.6192C17.1929 12.369 18.8886 11.6666 20.6567 11.6666ZM20.6567 14.9999C19.7727 14.9999 18.9248 15.3511 18.2997 15.9762C17.6746 16.6013 17.3234 17.4492 17.3234 18.3333C17.3234 19.2173 17.6746 20.0652 18.2997 20.6903C18.9248 21.3154 19.7727 21.6666 20.6567 21.6666C21.5408 21.6666 22.3886 21.3154 23.0138 20.6903C23.6389 20.0652 23.9901 19.2173 23.9901 18.3333C23.9901 17.4492 23.6389 16.6013 23.0138 15.9762C22.3886 15.3511 21.5408 14.9999 20.6567 14.9999Z" fill="#0178A3"/>
</svg>
