<svg width="32" height="33" viewBox="0 0 32 33" fill="none" xmlns="http://www.w3.org/2000/svg">
<path d="M18.2327 25.7553C18.2344 24.44 18.7183 23.171 19.5926 22.1884C20.467 21.2058 21.6712 20.5778 22.9773 20.4232C22.224 20.3336 21.4602 20.4047 20.7363 20.6317C20.0124 20.8588 19.3448 21.2367 18.7776 21.7405C18.2103 22.2443 17.7563 22.8625 17.4453 23.5546C17.1344 24.2466 16.9736 24.9966 16.9736 25.7553C16.9736 26.514 17.1344 27.264 17.4453 27.9561C17.7563 28.6481 18.2103 29.2664 18.7776 29.7702C19.3448 30.274 20.0124 30.6518 20.7363 30.8789C21.4602 31.1059 22.224 31.177 22.9773 31.0874C21.6712 30.9329 20.4669 30.3049 19.5926 29.3223C18.7182 28.3396 18.2344 27.0706 18.2327 25.7553Z" fill="#D4E1F4"/>
<path d="M15.0215 25.3762C14.922 25.3762 14.8266 25.4157 14.7563 25.486C14.686 25.5564 14.6465 25.6517 14.6465 25.7512C14.6465 25.8506 14.686 25.946 14.7563 26.0164C14.8266 26.0867 14.922 26.1262 15.0215 26.1262H15.6196C15.7191 26.1262 15.8144 26.0867 15.8848 26.0164C15.9551 25.946 15.9946 25.8506 15.9946 25.7512C15.9946 25.6517 15.9551 25.5564 15.8848 25.486C15.8144 25.4157 15.7191 25.3762 15.6196 25.3762H15.0215Z" fill="#0178A3"/>
<path d="M20.482 11.3928C20.482 11.2526 20.4652 11.113 20.432 10.9768C20.3773 10.747 20.265 10.5349 20.1057 10.3605C19.9464 10.186 19.7454 10.055 19.5215 9.97969L19.5302 7.57163C19.5334 6.72975 19.3708 5.89548 19.0514 5.11651C18.7321 4.33753 18.2624 3.62913 17.6692 3.03178C17.0759 2.43443 16.3708 1.95986 15.594 1.63519C14.8172 1.31051 13.9841 1.1421 13.1422 1.13959C12.3004 1.13707 11.4662 1.30049 10.6876 1.62052C9.90886 1.94054 9.20088 2.41089 8.60407 3.00468C8.00726 3.59846 7.53333 4.30405 7.20935 5.0811C6.88538 5.85815 6.71773 6.69143 6.71597 7.53331L6.72222 9.59869V9.60744L6.73059 9.98175C6.50804 10.0577 6.30836 10.1887 6.15017 10.3627C5.99197 10.5367 5.88044 10.7479 5.82597 10.9766C5.72984 11.3695 5.773 11.7835 5.94808 12.1481C6.12316 12.5126 6.41932 12.8052 6.78603 12.9757L6.18541 15.2326C5.93045 16.1889 6.02747 17.205 6.4588 18.0958C6.89013 18.9866 7.62707 19.6929 8.53541 20.086L5.73984 21.0335C5.09468 21.2519 4.53423 21.6671 4.13735 22.2206C3.74047 22.7742 3.52713 23.4382 3.52734 24.1194V28.4618C3.52734 28.5612 3.56685 28.6566 3.63718 28.7269C3.70751 28.7972 3.80289 28.8368 3.90234 28.8368H17.3139V28.0868H13.4982V25.1581L17.8539 20.9225L19.1527 21.3627L19.3935 20.6524L17.5492 20.0274C18.4718 19.6823 19.2407 19.0188 19.717 18.1566C20.1934 17.2945 20.3459 16.2904 20.147 15.3257L19.6436 12.8833C19.8998 12.728 20.1116 12.5093 20.2585 12.2481C20.4053 11.987 20.4823 11.6924 20.482 11.3928ZM13.1232 1.875C13.8691 1.87499 14.6077 2.02249 15.2964 2.30903C15.9851 2.59556 16.6103 3.01547 17.1361 3.54459C17.6618 4.0737 18.0778 4.70157 18.3599 5.39206C18.6421 6.08256 18.7849 6.82203 18.7802 7.56794L18.7728 9.60475C17.144 9.52781 15.5942 8.88004 14.3952 7.775C15.1998 7.14206 15.9855 6.26638 16.6726 5.05C16.6976 5.00708 16.7139 4.95961 16.7205 4.91035C16.727 4.86108 16.7237 4.81101 16.7107 4.76304C16.6977 4.71507 16.6754 4.67015 16.6449 4.63091C16.6144 4.59166 16.5764 4.55887 16.5331 4.53443C16.4898 4.51 16.4421 4.49441 16.3928 4.48857C16.3434 4.48273 16.2934 4.48675 16.2456 4.50041C16.1979 4.51407 16.1533 4.5371 16.1145 4.56814C16.0757 4.59919 16.0434 4.63763 16.0196 4.68125C13.8797 8.46875 10.7965 8.64106 9.31478 8.72381L9.29297 8.72506C8.93934 8.74481 8.60547 8.9945 8.42103 9.37681C8.36723 9.48632 8.27773 9.57423 8.16728 9.62606C8.06555 9.67414 7.95146 9.68966 7.84058 9.67051C7.7297 9.65136 7.62743 9.59848 7.54772 9.51906L7.47159 9.44287L7.46597 7.53188C7.46776 6.03206 8.06437 4.59419 9.12494 3.5337C10.1855 2.47321 11.6234 1.87669 13.1232 1.875ZM7.41072 18.2396C7.12654 17.8357 6.93444 17.3743 6.84795 16.8881C6.76146 16.4019 6.7827 15.9026 6.91016 15.4254L7.16128 14.4817C7.43143 15.4074 7.90653 16.2604 8.55134 16.9774C9.05268 17.5378 9.6578 17.9958 10.3333 18.3261V19.4765L9.81359 19.6527C9.33518 19.6031 8.87301 19.4513 8.45841 19.2075C8.04381 18.9636 7.68647 18.6336 7.41059 18.2396H7.41072ZM15.1748 19.5899L13.129 21.6302L11.0832 19.5899V18.6212C11.5759 18.7726 12.0885 18.8496 12.604 18.8494H13.654C14.1695 18.8495 14.6821 18.7726 15.1748 18.6211V19.5899ZM9.90209 20.4157V20.4147L10.6083 20.1754L12.7484 22.3097V24.1007L9.20172 20.6521L9.89991 20.4154L9.90209 20.4157ZM4.27741 28.0868V24.1194C4.27723 23.595 4.44144 23.0838 4.74695 22.6577C5.05246 22.2315 5.48389 21.9119 5.98053 21.7438L8.40397 20.9224L12.7482 25.1468V28.0867L4.27741 28.0868ZM13.4982 24.1118V22.3213L15.6498 20.1754L17.0561 20.6521L13.4982 24.1118ZM18.7437 18.268C18.4346 18.656 18.0437 18.971 17.5988 19.1905C17.1539 19.4099 16.6661 19.5284 16.1701 19.5375L16.1705 19.5598L15.9248 19.4765V18.3262C16.6002 17.9959 17.2053 17.5379 17.7066 16.9776C18.4054 16.2003 18.9042 15.2644 19.1597 14.2508L19.4126 15.4771C19.5134 15.9629 19.5057 16.4649 19.3901 16.9473C19.2744 17.4297 19.0537 17.8807 18.7436 18.2679L18.7437 18.268ZM18.9104 12.3721C18.8235 12.3873 18.7447 12.4327 18.688 12.5002C18.6312 12.5678 18.6001 12.6532 18.6001 12.7414V12.7496C18.5892 14.1269 18.0734 15.4523 17.1505 16.4746C16.6263 17.0637 15.9698 17.52 15.2349 17.8059H15.1748V17.8282C14.6877 18.0071 14.1729 18.099 13.654 18.0996H12.604C12.0851 18.099 11.5703 18.0071 11.0832 17.8283V17.8059H11.023C10.2881 17.52 9.63156 17.0637 9.10741 16.4746C8.18443 15.4523 7.66861 14.1269 7.65772 12.7496V12.7414C7.65772 12.6532 7.62661 12.5678 7.56987 12.5002C7.51312 12.4327 7.43437 12.3873 7.34747 12.3721C7.21344 12.3483 7.08572 12.2972 6.9722 12.2221C6.85867 12.147 6.76175 12.0494 6.68742 11.9354C6.6131 11.8214 6.56295 11.6933 6.54007 11.5591C6.51719 11.4249 6.52207 11.2875 6.55441 11.1552C6.5868 11.0195 6.66178 10.8976 6.7684 10.8074C6.87502 10.7173 7.00767 10.6637 7.14697 10.6543C7.22866 10.6468 7.30562 10.6127 7.36607 10.5572C7.42653 10.5018 7.46713 10.428 7.48166 10.3473C7.78283 10.4597 8.11508 10.456 8.41367 10.3369C8.71225 10.2177 8.95577 9.99165 9.09678 9.70275C9.16597 9.559 9.27122 9.47775 9.33497 9.47419L9.35666 9.47306C10.296 9.42056 12.0306 9.32306 13.7711 8.21744C15.1238 9.51653 16.9044 10.2768 18.7783 10.3555C18.7943 10.4344 18.8353 10.5061 18.8952 10.5599C18.9551 10.6137 19.0308 10.6468 19.111 10.6543C19.2503 10.6637 19.3829 10.7173 19.4895 10.8075C19.5961 10.8976 19.6711 11.0195 19.7035 11.1552C19.7359 11.2875 19.7407 11.4249 19.7179 11.5591C19.695 11.6933 19.6448 11.8214 19.5705 11.9354C19.4962 12.0494 19.3993 12.147 19.2857 12.2221C19.1722 12.2972 19.0445 12.3483 18.9105 12.3721H18.9104Z" fill="#0178A3"/>
<path d="M22.3531 19.6356C21.1427 19.6356 19.9595 19.9945 18.9532 20.667C17.9468 21.3394 17.1624 22.2952 16.6992 23.4134C16.2361 24.5316 16.1149 25.7621 16.351 26.9492C16.5871 28.1363 17.17 29.2267 18.0258 30.0826C18.8817 30.9384 19.9721 31.5213 21.1592 31.7574C22.3463 31.9935 23.5768 31.8724 24.695 31.4092C25.8132 30.946 26.769 30.1616 27.4414 29.1552C28.1139 28.1489 28.4728 26.9657 28.4728 25.7553C28.4709 24.1328 27.8256 22.5773 26.6783 21.4301C25.5311 20.2828 23.9756 19.6375 22.3531 19.6356ZM22.3531 31.125C21.2911 31.125 20.2529 30.8101 19.3698 30.22C18.4868 29.63 17.7986 28.7914 17.3921 27.8102C16.9857 26.829 16.8794 25.7494 17.0866 24.7077C17.2938 23.6661 17.8052 22.7093 18.5561 21.9584C19.3071 21.2074 20.2639 20.696 21.3055 20.4888C22.3471 20.2816 23.4268 20.3879 24.408 20.7944C25.3892 21.2008 26.2278 21.889 26.8178 22.7721C27.4078 23.6551 27.7228 24.6933 27.7228 25.7553C27.7212 27.1789 27.1549 28.5438 26.1483 29.5505C25.1416 30.5571 23.7767 31.1234 22.3531 31.125Z" fill="#31C1B9"/>
<path d="M25.1413 22.0234C24.7011 21.8014 24.1753 21.7711 23.5784 21.9338C23.278 22.0138 22.9928 22.1426 22.7342 22.3151C22.6136 22.393 22.4882 22.463 22.3586 22.5247L22.2954 22.4882C21.9337 22.2794 21.3871 21.9637 20.8947 21.8984C20.3163 21.8216 19.8166 21.9192 19.4089 22.1882C19.0449 22.4338 18.7769 22.7976 18.6501 23.2181C18.3507 24.1546 18.6708 25.1818 19.3787 25.5566C19.5647 25.6551 19.9111 25.8384 19.9746 25.9409C20.0079 25.9947 19.9934 26.1688 19.9746 26.3891C19.97 26.4437 19.9652 26.5025 19.9602 26.5653C19.9243 27.0356 19.8717 28.6364 20.7017 29.4941C20.7725 29.5635 20.859 29.6149 20.9537 29.6441C21.057 29.681 21.1681 29.6904 21.2761 29.6713C21.3842 29.6522 21.4853 29.6053 21.5696 29.5351C21.654 29.465 21.7186 29.3741 21.757 29.2713C21.7955 29.1686 21.8065 29.0577 21.789 28.9494C21.7378 28.4411 21.739 27.0052 22.3378 26.2761C22.3445 26.2707 22.3528 26.2678 22.3614 26.2678C22.37 26.2678 22.3783 26.2707 22.385 26.2761C23.0691 27.1295 22.9361 28.8047 22.9229 28.9511C22.9068 29.059 22.9188 29.1693 22.9578 29.2712C22.9967 29.3731 23.0613 29.4633 23.1452 29.5329C23.2292 29.6026 23.3297 29.6495 23.437 29.669C23.5444 29.6885 23.655 29.68 23.7581 29.6442C23.8529 29.6151 23.9394 29.5637 24.0103 29.4942C24.8406 28.6363 24.7878 27.0355 24.7519 26.5653C24.7471 26.5028 24.7422 26.4444 24.7376 26.39C24.7189 26.1694 24.7045 25.9953 24.7376 25.9416C24.8011 25.8391 25.1476 25.6552 25.3337 25.5564C26.1518 25.1222 26.3415 23.8587 26 22.9964C25.8445 22.5767 25.5384 22.2299 25.1413 22.0234ZM24.9822 24.8937C24.0379 25.3951 23.9174 25.5845 23.9903 26.4526C23.9947 26.5052 23.9994 26.5617 24.0041 26.6224C24.0552 27.2902 23.9902 28.1189 23.6897 28.6697C23.7081 28.0182 23.654 26.6597 22.9704 25.8067C22.8973 25.7167 22.8053 25.644 22.7008 25.5939C22.5963 25.5437 22.4819 25.5174 22.366 25.5167C22.2501 25.516 22.1355 25.5411 22.0304 25.59C21.9254 25.639 21.8325 25.7106 21.7584 25.7998C21.0599 26.6498 21.0042 28.0157 21.0226 28.6696C20.7221 28.1189 20.6571 27.2902 20.7081 26.6224C20.7128 26.5614 20.7176 26.5048 20.7221 26.4519C20.7533 26.0796 20.776 25.8105 20.6123 25.5461C20.4664 25.3104 20.2221 25.1543 19.7296 24.8936C19.3525 24.6939 19.1818 24.0176 19.3644 23.4462C19.4784 23.09 19.8161 22.512 20.7961 22.6417C21.1408 22.6874 21.6288 22.9692 21.9203 23.1376C22.0227 23.1968 22.1113 23.2479 22.1817 23.2829C22.5206 23.4517 23.0326 23.6635 23.5618 23.5602C23.6105 23.5512 23.6569 23.5326 23.6984 23.5055C23.7399 23.4784 23.7756 23.4434 23.8034 23.4024C23.8313 23.3614 23.8507 23.3154 23.8607 23.2668C23.8706 23.2183 23.8709 23.1683 23.8614 23.1197C23.8519 23.0711 23.8328 23.0248 23.8054 22.9836C23.7779 22.9424 23.7425 22.907 23.7013 22.8795C23.6601 22.852 23.6138 22.833 23.5652 22.8235C23.5166 22.814 23.4666 22.8142 23.4181 22.8242C23.3869 22.8302 23.3555 22.8342 23.3239 22.8361C23.4663 22.7579 23.618 22.6978 23.7754 22.6573C24.7333 22.3962 25.1345 22.8477 25.3026 23.2724C25.5426 23.8777 25.3837 24.6808 24.9822 24.8937Z" fill="#31C1B9"/>
</svg>
