<svg width="92" height="92" viewBox="0 0 92 92" fill="none" xmlns="http://www.w3.org/2000/svg">
<path d="M46 0.446289C71.1589 0.446289 91.5537 20.8411 91.5537 46C91.5537 71.1589 71.1589 91.5537 46 91.5537C20.8411 91.5537 0.446289 71.1589 0.446289 46C0.446289 20.8411 20.8411 0.446289 46 0.446289Z" fill="white"/>
<path d="M46 0.446289C71.1589 0.446289 91.5537 20.8411 91.5537 46C91.5537 71.1589 71.1589 91.5537 46 91.5537C20.8411 91.5537 0.446289 71.1589 0.446289 46C0.446289 20.8411 20.8411 0.446289 46 0.446289Z" stroke="url(#paint0_linear_370_3607)" stroke-width="0.891669"/>
<path d="M52.6866 65.6073C52.2168 60.0644 50.7875 55.7685 48.4384 52.8374C48.1212 52.4433 47.719 52.126 47.2619 51.9091C46.8048 51.6922 46.3046 51.5813 45.7987 51.5848C45.528 51.585 45.2583 51.6169 44.9951 51.6798C44.9989 51.6845 45.0029 51.6889 45.0068 51.6935C47.356 54.6245 48.7853 58.921 49.2551 64.4634C49.4698 66.9329 49.4722 69.4164 49.2623 71.8864C49.2603 71.9052 49.2576 71.9241 49.2541 71.9427C49.2172 72.1226 49.2298 72.3091 49.2904 72.4825C49.351 72.6558 49.4574 72.8095 49.5982 72.9273C49.7391 73.0451 49.9092 73.1226 50.0905 73.1515C50.2719 73.1805 50.4577 73.1598 50.6282 73.0917C50.7816 73.0506 50.9262 72.982 51.0552 72.8894C51.7638 72.1422 52.3634 71.2989 52.8365 70.3844C52.8695 68.7905 52.8195 67.196 52.6866 65.6073Z" fill="#31C1B9"/>
<path d="M35.399 71.8867C35.3976 71.8737 35.3932 71.8312 35.3873 71.7629C33.1337 67.7082 32.6258 61.7582 32.9898 56.9962C33.0212 56.5861 33.0533 56.2042 33.0836 55.8478C33.2762 53.5575 33.3925 52.175 32.6178 50.9236C31.8722 49.7191 30.3525 48.772 27.4349 47.2275C25.8266 46.376 24.599 44.6675 23.9768 42.4168C23.3662 40.1252 23.4186 37.7073 24.1278 35.4442C24.8371 33.2251 26.1417 31.4383 27.9006 30.2774C29.9549 28.9215 32.551 28.4401 35.6172 28.8469C35.7255 28.8613 35.835 28.8791 35.9453 28.8984C34.6658 28.3216 33.361 27.8589 32.1855 27.7031C29.1191 27.2964 26.5231 27.7778 24.4689 29.1335C22.71 30.2946 21.4054 32.0812 20.6955 34.3004C19.9862 36.5635 19.9338 38.9814 20.5444 41.2731C21.1661 43.5237 22.3942 45.2323 24.0026 46.0836C26.9206 47.6282 28.4399 48.5753 29.1855 49.7797C29.9602 51.0313 29.8438 52.4136 29.6513 54.7039C29.6213 55.0602 29.5892 55.4422 29.5575 55.8524C29.1173 61.6114 29.9496 69.1114 33.6067 72.89C33.7355 72.9821 33.8798 73.0503 34.0327 73.0915C34.2032 73.1595 34.3889 73.1801 34.5702 73.1512C34.7514 73.1223 34.9215 73.0449 35.0624 72.9271C35.2032 72.8094 35.3096 72.6558 35.3703 72.4826C35.4309 72.3093 35.4436 72.1229 35.4069 71.943C35.4037 71.9241 35.401 71.9054 35.399 71.8867Z" fill="#31C1B9"/>
<path d="M54.8618 54.4566C54.8877 54.7721 54.9153 55.1075 54.9426 55.4644C55.6018 64.0856 53.3242 69.7539 50.9737 72.1821C50.8496 72.2696 50.7112 72.3347 50.5646 72.3745C50.4018 72.4397 50.2244 72.4597 50.0512 72.4322C49.878 72.4047 49.7155 72.3308 49.5809 72.2184C49.4463 72.106 49.3447 71.9592 49.2868 71.7937C49.2289 71.6281 49.2169 71.45 49.2521 71.2782C49.2556 71.2591 49.2586 71.2398 49.2606 71.2204C49.467 68.7916 49.4646 66.3497 49.2535 63.9213C48.7914 58.4694 47.3849 54.2425 45.073 51.3578C44.7582 50.9723 44.3621 50.661 43.9129 50.4464C43.4638 50.2318 42.9728 50.1191 42.475 50.1164C41.9773 50.1137 41.4851 50.2211 41.0336 50.4308C40.5822 50.6405 40.1827 50.9475 39.8638 51.3296C37.5062 54.1993 36.0699 58.4268 35.595 63.8946C35.3782 66.3317 35.3739 68.783 35.5822 71.2209C35.5843 71.2401 35.5871 71.2592 35.5906 71.2781C35.6259 71.4499 35.6139 71.628 35.556 71.7936C35.4982 71.9591 35.3965 72.1059 35.2619 72.2184C35.1273 72.3308 34.9648 72.4047 34.7916 72.4322C34.6184 72.4597 34.441 72.4398 34.2781 72.3746C34.1325 72.3346 33.9947 72.2701 33.8707 72.1838C31.5185 69.7539 29.2405 64.0856 29.8996 55.4648C29.9305 55.0614 29.962 54.6864 29.9914 54.3365C30.1812 52.0802 30.2961 50.7182 29.5296 49.4804C28.789 48.284 27.3566 47.3899 24.4257 45.8384C22.8525 45.0056 21.6507 43.3331 21.0419 41.1294C20.4436 38.883 20.4949 36.513 21.1901 34.2946C21.9234 31.9998 24.4877 26.7755 32.4484 27.8319C35.0472 28.1764 38.296 30.0522 40.4449 31.2935C40.8559 31.5308 41.2107 31.7357 41.5261 31.9102L42.2067 30.6798C41.9027 30.5117 41.553 30.3097 41.1481 30.0759C38.9025 28.7791 35.5089 26.8192 32.6333 26.4379C26.3809 25.6094 21.6027 28.3856 19.8507 33.8666C18.1713 39.1205 19.9285 45.0487 23.7681 47.0813C26.3553 48.451 27.7718 49.3127 28.3338 50.2207C28.8555 51.0633 28.7612 52.1841 28.5901 54.2186C28.5605 54.5718 28.5286 54.9505 28.4975 55.3577C28.2463 58.6432 28.4272 62.0349 29.0071 64.9085C29.73 68.4905 31.0263 71.2674 32.8599 73.1621C33.067 73.3759 33.381 73.5534 33.8201 73.7046C34.0775 73.7934 34.3479 73.8387 34.6202 73.8386C34.9694 73.8435 35.3154 73.771 35.6332 73.6262C35.951 73.4814 36.2328 73.268 36.4583 73.0013C36.6837 72.7346 36.8473 72.4212 36.9372 72.0838C37.0271 71.7463 37.0411 71.3931 36.9781 71.0496C36.9179 70.4252 35.8448 58.4368 40.9502 52.2225C41.1363 52.002 41.3686 51.8251 41.6306 51.7042C41.8925 51.5833 42.1778 51.5214 42.4663 51.5229C42.7549 51.5243 43.0395 51.5891 43.3003 51.7125C43.561 51.836 43.7915 52.0153 43.9754 52.2376C48.9806 58.4828 47.9238 70.4251 47.864 71.05C47.7816 71.5154 47.838 71.9948 48.0261 72.4284C48.5142 73.5542 49.8308 74.1148 51.0224 73.7044C51.4613 73.5533 51.7754 73.3763 51.9825 73.162C53.8161 71.2674 55.1123 68.4905 55.8353 64.9085C56.415 62.0351 56.596 58.6434 56.3448 55.3577C56.3172 54.9973 56.2894 54.6594 56.2628 54.3413C56.0393 51.6276 56.0088 50.7248 56.8499 49.7964L55.8077 48.8523C54.5176 50.2774 54.6398 51.7616 54.8618 54.4566Z" fill="#0178A3"/>
<path d="M56.8428 18.1616C48.0549 18.1616 40.9053 25.3112 40.9053 34.0991C40.9053 42.887 48.0549 50.0366 56.8428 50.0366C65.6307 50.0366 72.7803 42.8871 72.7803 34.0991C72.7803 25.3111 65.6308 18.1616 56.8428 18.1616ZM56.8428 48.6304C53.9688 48.6304 51.1593 47.7781 48.7696 46.1814C46.38 44.5847 44.5175 42.3152 43.4176 39.66C42.3178 37.0048 42.03 34.083 42.5907 31.2642C43.1514 28.4454 44.5354 25.8562 46.5676 23.824C48.5999 21.7917 51.1891 20.4078 54.0079 19.8471C56.8267 19.2864 59.7484 19.5742 62.4036 20.674C65.0589 21.7738 67.3284 23.6363 68.9251 26.026C70.5218 28.4156 71.374 31.2251 71.374 34.0991C71.3697 37.9517 69.8373 41.6453 67.1131 44.3695C64.3889 47.0937 60.6954 48.626 56.8428 48.6304Z" fill="#31C1B9"/>
<path d="M44.4344 33.7167C44.3606 33.8306 44.3213 33.9634 44.3213 34.0992C44.3213 34.2349 44.3606 34.3678 44.4344 34.4817C45.7752 36.5526 47.6131 38.2551 49.7804 39.4338C51.9478 40.6125 54.3756 41.23 56.8428 41.23C59.3099 41.23 61.7378 40.6125 63.9051 39.4338C66.0725 38.2551 67.9103 36.5526 69.2511 34.4817C69.325 34.3678 69.3643 34.2349 69.3643 34.0992C69.3643 33.9634 69.325 33.8306 69.2511 33.7167C67.9103 31.6456 66.0725 29.9431 63.9052 28.7643C61.7378 27.5856 59.3099 26.968 56.8427 26.968C54.3755 26.968 51.9476 27.5856 49.7803 28.7643C47.6129 29.9431 45.7751 31.6456 44.4343 33.7167H44.4344ZM67.8139 34.0989C66.5816 35.8663 64.9405 37.3097 63.0303 38.3065C61.1201 39.3032 58.9974 39.8237 56.8428 39.8237C54.6882 39.8237 52.5655 39.3032 50.6554 38.3065C48.7452 37.3097 47.1041 35.8663 45.8717 34.0989C47.1041 32.3316 48.7453 30.8882 50.6554 29.8915C52.5656 28.8948 54.6883 28.3743 56.8428 28.3743C58.9974 28.3743 61.1201 28.8948 63.0302 29.8915C64.9404 30.8882 66.5815 32.3316 67.8139 34.0989Z" fill="#31C1B9"/>
<path d="M51.4521 34.0991C51.4521 35.1653 51.7683 36.2075 52.3606 37.094C52.953 37.9805 53.7949 38.6714 54.7799 39.0794C55.7649 39.4874 56.8488 39.5942 57.8944 39.3862C58.9401 39.1782 59.9006 38.6648 60.6545 37.9109C61.4084 37.157 61.9218 36.1965 62.1298 35.1508C62.3378 34.1051 62.2311 33.0212 61.8231 32.0362C61.4151 31.0512 60.7241 30.2093 59.8376 29.617C58.9512 29.0247 57.9089 28.7085 56.8428 28.7085C55.4136 28.7101 54.0434 29.2786 53.0328 30.2892C52.0222 31.2997 51.4538 32.6699 51.4521 34.0991ZM60.8271 34.0991C60.8271 34.8872 60.5935 35.6575 60.1557 36.3127C59.7179 36.9679 59.0956 37.4786 58.3675 37.7802C57.6395 38.0818 56.8384 38.1607 56.0655 38.0069C55.2926 37.8532 54.5826 37.4737 54.0254 36.9165C53.4682 36.3593 53.0887 35.6493 52.935 34.8764C52.7812 34.1035 52.8601 33.3024 53.1617 32.5744C53.4633 31.8463 53.9739 31.224 54.6292 30.7862C55.2844 30.3484 56.0547 30.1147 56.8428 30.1147C57.8991 30.1159 58.9119 30.5361 59.6588 31.283C60.4058 32.03 60.826 33.0428 60.8271 34.0991Z" fill="#31C1B9"/>
<defs>
<linearGradient id="paint0_linear_370_3607" x1="1.28523e-07" y1="46" x2="92" y2="46" gradientUnits="userSpaceOnUse">
<stop stop-color="#4DC0C1"/>
<stop offset="1" stop-color="#04729A"/>
</linearGradient>
</defs>
</svg>
