<svg width="92" height="92" viewBox="0 0 92 92" fill="none" xmlns="http://www.w3.org/2000/svg">
<path d="M46 0.446289C71.1589 0.446289 91.5537 20.8411 91.5537 46C91.5537 71.1589 71.1589 91.5537 46 91.5537C20.8411 91.5537 0.446289 71.1589 0.446289 46C0.446289 20.8411 20.8411 0.446289 46 0.446289Z" fill="white"/>
<path d="M46 0.446289C71.1589 0.446289 91.5537 20.8411 91.5537 46C91.5537 71.1589 71.1589 91.5537 46 91.5537C20.8411 91.5537 0.446289 71.1589 0.446289 46C0.446289 20.8411 20.8411 0.446289 46 0.446289Z" stroke="url(#paint0_linear_370_3596)" stroke-width="0.891669"/>
<path d="M28.3535 44.5234C28.3535 33.0273 37.3975 23.6038 48.7441 22.993C48.3562 22.9722 47.9655 22.9615 47.5723 22.9609C35.6827 22.9609 26.0098 32.6338 26.0098 44.5234C26.0098 56.413 35.6827 66.0859 47.5723 66.0859C47.9655 66.0859 48.3562 66.0752 48.7441 66.0538C37.3975 65.4425 28.3535 56.0195 28.3535 44.5234Z" fill="#31C1B9"/>
<path d="M47.5723 27.4536C38.1387 27.4536 30.4629 35.1109 30.4629 44.5229C30.4629 53.9349 38.1387 61.5922 47.5723 61.5922C57.0059 61.5922 64.6816 53.9349 64.6816 44.5229C64.6816 35.1109 57.0064 27.4536 47.5723 27.4536ZM47.5723 60.186C38.9136 60.186 31.8691 53.1595 31.8691 44.5229C31.8691 35.8863 38.9136 28.8599 47.5723 28.8599C56.2309 28.8599 63.2754 35.8863 63.2754 44.5229C63.2754 53.1595 56.2309 60.186 47.5723 60.186Z" fill="#0178A3"/>
<path d="M75.6849 43.8162H70.5287C70.1608 31.7107 60.3811 21.9319 48.2748 21.5659V16.3862C48.2748 16.1998 48.2007 16.0209 48.0688 15.889C47.937 15.7572 47.7581 15.6831 47.5716 15.6831C47.3852 15.6831 47.2063 15.7572 47.0745 15.889C46.9426 16.0209 46.8685 16.1998 46.8685 16.3862V21.5665C34.763 21.9325 24.9827 31.7112 24.6146 43.8168H19.3145C19.128 43.8168 18.9491 43.8909 18.8173 44.0227C18.6854 44.1546 18.6113 44.3334 18.6113 44.5199C18.6113 44.7064 18.6854 44.8852 18.8173 45.0171C18.9491 45.1489 19.128 45.223 19.3145 45.223H24.6144C24.9786 57.332 34.7599 67.1145 46.8683 67.4806V72.6147C46.8683 72.8011 46.9424 72.98 47.0742 73.1118C47.2061 73.2437 47.3849 73.3178 47.5714 73.3178C47.7579 73.3178 47.9367 73.2437 48.0686 73.1118C48.2004 72.98 48.2745 72.8011 48.2745 72.6147V67.4806C60.383 67.1145 70.1644 57.3321 70.5284 45.223H75.6847C75.8712 45.223 76.05 45.1489 76.1819 45.0171C76.3137 44.8852 76.3878 44.7064 76.3878 44.5199C76.3878 44.3334 76.3137 44.1546 76.1819 44.0227C76.05 43.8909 75.8712 43.8168 75.6847 43.8168L75.6849 43.8162ZM47.5715 66.086C35.6819 66.086 26.009 56.4131 26.009 44.5235C26.009 32.6339 35.6819 22.961 47.5715 22.961C59.4611 22.961 69.134 32.6339 69.134 44.5235C69.134 56.4131 59.4611 66.086 47.5715 66.086Z" fill="#0178A3"/>
<path d="M55.6107 37.8077C55.1594 36.9053 53.7467 34.9048 50.3746 35.8238C49.6956 36.0048 49.0509 36.2962 48.4663 36.6862C48.1586 36.8859 47.8366 37.0628 47.5031 37.2155C47.435 37.1766 47.3613 37.1341 47.2838 37.0893C46.4588 36.6129 45.212 35.8928 44.106 35.7462C41.841 35.4454 40.0195 36.4038 39.232 38.3086C38.4365 40.233 38.9067 42.5753 40.3022 43.6407C40.4275 43.7365 40.5604 43.8218 40.6997 43.8956C41.4837 44.3106 41.9982 44.6139 42.1399 44.8429C42.2408 45.0058 42.2188 45.3267 42.164 45.9789C42.1535 46.1048 42.1421 46.2398 42.131 46.3847C42.0489 47.4545 41.9278 51.095 43.8004 53.03C43.9462 53.1711 44.1235 53.2755 44.3176 53.3347C44.5298 53.411 44.7582 53.4305 44.9803 53.3914C45.2024 53.3522 45.4104 53.2557 45.5837 53.1115C45.757 52.9672 45.8897 52.7802 45.9685 52.5689C46.0473 52.3576 46.0695 52.1294 46.0329 51.9068C45.9691 51.1123 45.9719 50.3137 46.0411 49.5196C46.1449 48.3249 46.454 46.675 47.3372 45.5998C47.3609 45.5756 47.3892 45.5564 47.4204 45.5433C47.4517 45.5302 47.4852 45.5235 47.5191 45.5236C47.553 45.5237 47.5865 45.5306 47.6176 45.5438C47.6488 45.5571 47.677 45.5765 47.7005 45.6009C49.3288 47.6327 49.0076 51.5892 48.9787 51.9077C48.9449 52.1295 48.969 52.3564 49.0486 52.5662C49.1283 52.776 49.2607 52.9617 49.4332 53.1052C49.6057 53.2488 49.8123 53.3454 50.0331 53.3856C50.2539 53.4259 50.4813 53.4084 50.6934 53.3349C50.8881 53.2756 51.066 53.1709 51.2123 53.0293C53.084 51.0949 52.9626 47.4545 52.8808 46.3847C52.8698 46.2402 52.8584 46.1059 52.848 45.9806C52.7931 45.3279 52.7712 45.007 52.8721 44.8438C53.0137 44.6153 53.5284 44.3115 54.3126 43.8946C54.4522 43.8203 54.5852 43.734 54.71 43.6368C56.1736 42.5001 56.5942 39.7757 55.6107 37.8077ZM53.8472 42.5275C53.7865 42.575 53.7218 42.6171 53.6538 42.6534C51.441 43.8278 51.2917 44.2508 51.447 46.0987C51.4572 46.2208 51.4682 46.3516 51.479 46.4923C51.6159 48.2814 51.3939 50.5658 50.3965 51.8288C50.4686 50.8151 50.6061 46.9772 48.7981 44.7215C48.6445 44.5324 48.4509 44.3797 48.2313 44.2744C48.0117 44.1691 47.7714 44.1138 47.5278 44.1124C47.2842 44.111 47.0434 44.1637 46.8225 44.2666C46.6017 44.3694 46.4065 44.52 46.2508 44.7073C44.4054 46.9535 44.5429 50.8102 44.6156 51.8285C43.6181 50.5646 43.3968 48.2809 43.5331 46.4922C43.544 46.3516 43.555 46.2196 43.5653 46.0969C43.7208 44.2479 43.5714 43.825 41.3574 42.6528C41.2868 42.6155 41.2193 42.5724 41.1558 42.5239C40.2722 41.8491 39.9864 40.165 40.5316 38.8463C40.847 38.0833 41.707 36.8473 43.9211 37.1406C44.7504 37.2507 45.8961 37.9123 46.5806 38.3076C46.8149 38.4431 47.0177 38.56 47.1758 38.6386C47.9375 39.0176 49.0878 39.4949 50.2619 39.2657C50.4449 39.23 50.6063 39.123 50.7104 38.9683C50.8146 38.8136 50.853 38.6239 50.8172 38.4408C50.7815 38.2578 50.6745 38.0965 50.5198 37.9923C50.3651 37.8882 50.1754 37.8497 49.9924 37.8855C49.7323 37.9324 49.4658 37.9313 49.2061 37.8823H49.2071C49.6762 37.5636 50.1959 37.3267 50.7441 37.1815C52.9121 36.5908 53.9029 37.5381 54.3523 38.4373C55.0369 39.8052 54.7913 41.7936 53.8472 42.5275Z" fill="#31C1B9"/>
<defs>
<linearGradient id="paint0_linear_370_3596" x1="1.28523e-07" y1="46" x2="92" y2="46" gradientUnits="userSpaceOnUse">
<stop stop-color="#4DC0C1"/>
<stop offset="1" stop-color="#04729A"/>
</linearGradient>
</defs>
</svg>
