<svg width="32" height="32" viewBox="0 0 32 32" fill="none" xmlns="http://www.w3.org/2000/svg">
<g clip-path="url(#clip0_370_3569)">
<path d="M10.5762 7.1377C10.7013 7.13781 10.8217 7.18788 10.9102 7.27637C10.9985 7.36492 11.0479 7.48522 11.0479 7.61035C11.0478 7.7355 10.9986 7.85581 10.9102 7.94434C10.8436 8.01085 10.7589 8.05514 10.668 8.07324L10.5762 8.08203C9.67124 8.09217 8.79669 8.41003 8.0957 8.98242C8.04802 9.02337 7.99245 9.05397 7.93262 9.07324C7.87221 9.09267 7.80831 9.10046 7.74512 9.09473C7.68193 9.08899 7.62037 9.07002 7.56445 9.04004C7.50869 9.0101 7.45959 8.96924 7.41992 8.91992C7.38017 8.87046 7.35026 8.81302 7.33301 8.75195C7.31587 8.69103 7.31136 8.62724 7.31934 8.56445C7.32733 8.50151 7.34791 8.44055 7.37988 8.38574C7.39582 8.35845 7.41461 8.33304 7.43555 8.30957L7.50586 8.24512C8.37391 7.53885 9.45611 7.14822 10.5752 7.1377H10.5762Z" fill="white" stroke="white" stroke-width="0.111118"/>
<mask id="path-2-outside-1_370_3569" maskUnits="userSpaceOnUse" x="2.81641" y="3.38086" width="27" height="26" fill="black">
<rect fill="white" x="2.81641" y="3.38086" width="27" height="26"/>
<path d="M28.3386 15.237C28.7388 14.2161 28.9022 13.1177 28.8165 12.0246C28.7308 10.9314 28.3983 9.8719 27.844 8.9258L28.2486 8.70454C28.4265 8.60739 28.5749 8.46413 28.6783 8.28981C28.7818 8.11549 28.8363 7.91654 28.8363 7.71386C28.8363 7.51117 28.7818 7.31222 28.6783 7.1379C28.5749 6.96359 28.4265 6.82033 28.2486 6.72317L27.7398 6.44482C27.331 6.22149 26.995 5.88535 26.7718 5.47643L26.4935 4.96807C26.3962 4.79031 26.2528 4.642 26.0785 4.53869C25.9042 4.43537 25.7052 4.38086 25.5026 4.38086C25.2999 4.38086 25.101 4.43537 24.9267 4.53869C24.7523 4.642 24.609 4.79031 24.5117 4.96807L24.2334 5.47685C24.164 5.60065 24.0839 5.71818 23.9942 5.82812C21.3719 4.9989 18.6155 5.90146 16.3354 8.34077C13.2977 5.08558 9.96583 5.06807 7.67236 6.22814C5.71641 6.37524 4.44092 7.01986 3.98798 8.10326C3.84967 8.48312 3.79396 8.88812 3.82457 9.29122C3.85518 9.69433 3.9714 10.0863 4.16549 10.4409C3.67454 12.0121 3.73333 13.7037 4.33216 15.237C4.74188 16.2251 5.2589 17.1653 5.87392 18.0405C6.5948 19.1464 7.27567 20.1915 7.55569 21.4399C7.65795 21.9756 7.71054 22.5196 7.71278 23.065C7.7131 23.7175 7.78606 24.3679 7.93029 25.0043C8.48908 27.1319 9.73832 28.3303 11.3888 28.2924C13.9877 28.2332 14.6315 25.7064 15.1486 23.6784C15.457 22.4699 15.7349 21.1999 16.3362 21.1999C16.9375 21.1999 17.2154 22.4695 17.5238 23.6784C18.0409 25.7064 18.6847 28.2307 21.2832 28.2924C22.9262 28.3111 24.1838 27.1331 24.7417 25.0043C24.886 24.3679 24.9589 23.7175 24.9592 23.065C24.9615 22.5196 25.0141 21.9756 25.1163 21.4399C25.2037 21.063 25.3258 20.695 25.4809 20.3407C27.1714 20.1398 28.2898 19.516 28.7095 18.5189C29.0599 17.688 28.8786 16.6692 28.1998 15.5633C28.2444 15.4537 28.2969 15.3487 28.3386 15.237ZM24.9642 5.87729L25.2426 5.36893C25.2682 5.32235 25.3058 5.2835 25.3515 5.25645C25.3973 5.22939 25.4495 5.21512 25.5026 5.21512C25.5557 5.21512 25.6079 5.22939 25.6536 5.25645C25.6994 5.2835 25.737 5.32235 25.7626 5.36893L26.041 5.87729C26.3403 6.4261 26.7912 6.87725 27.3398 7.17695L27.849 7.4553C27.8956 7.48083 27.9344 7.51842 27.9615 7.56413C27.9886 7.60984 28.0029 7.66198 28.0029 7.71511C28.0029 7.76823 27.9886 7.82038 27.9615 7.86609C27.9344 7.91179 27.8956 7.94938 27.849 7.97491L27.3398 8.25326C26.7912 8.55264 26.3403 9.00352 26.041 9.55209L25.7626 10.0613C25.737 10.1079 25.6994 10.1467 25.6536 10.1738C25.6079 10.2008 25.5557 10.2151 25.5026 10.2151C25.4495 10.2151 25.3973 10.2008 25.3515 10.1738C25.3058 10.1467 25.2682 10.1079 25.2426 10.0613L24.9642 9.55293C24.6652 9.00369 24.2143 8.5522 23.6654 8.25243L23.1562 7.97366C23.1096 7.94819 23.0707 7.91065 23.0436 7.86497C23.0166 7.8193 23.0023 7.76717 23.0023 7.71407C23.0023 7.66096 23.0166 7.60883 23.0436 7.56316C23.0707 7.51748 23.1096 7.47994 23.1562 7.45447L23.665 7.17612C24.2136 6.87671 24.6646 6.42585 24.9642 5.87729ZM4.75469 8.42619C4.88763 8.17304 5.07155 7.95016 5.29487 7.77159C5.51819 7.59302 5.77607 7.46263 6.05227 7.38863C5.49155 7.93096 5.02139 8.55967 4.65968 9.25082C4.61763 8.97184 4.65101 8.68668 4.75636 8.42494L4.75469 8.42619ZM24.2996 21.2603C24.1853 21.8457 24.126 22.4406 24.1225 23.0371C24.1239 23.6285 24.0599 24.2182 23.9317 24.7955C23.6671 25.8085 22.9558 27.4923 21.3007 27.4623C19.3335 27.4161 18.8226 25.4126 18.3288 23.4758C17.9267 21.9207 17.5613 20.3182 16.287 20.3673C15.0903 20.4132 14.7295 21.9507 14.3403 23.4758C13.8461 25.4126 13.3356 27.4127 11.3684 27.4623C9.7054 27.504 9.00203 25.8097 8.73743 24.7955C8.60923 24.2182 8.54523 23.6285 8.54658 23.0371C8.54309 22.4406 8.4838 21.8457 8.36949 21.2603C8.05697 19.8652 7.30276 18.7076 6.57313 17.588C5.99061 16.7635 5.50055 15.8774 5.11179 14.9457C4.68272 13.8398 4.56427 12.6377 4.76927 11.4693C6.40645 13.7611 10.0067 16.2804 14.3319 18.1018C18.0851 19.6569 21.5824 20.4927 24.555 20.4152C24.4522 20.69 24.3675 20.9712 24.3013 21.257L24.2996 21.2603ZM24.9221 19.5606C22.2553 19.7523 18.443 18.9297 14.6536 17.3338C10.0479 15.3945 6.31978 12.6835 5.06429 10.3801C5.5562 9.04101 6.48574 7.90724 7.70236 7.16237C9.77374 5.92813 13.0335 5.82145 15.9862 9.20415C16.4496 10.1275 16.9604 11.368 19.2522 11.3922C19.3627 11.3922 19.4687 11.3483 19.5469 11.2702C19.625 11.192 19.6689 11.086 19.6689 10.9755C19.6689 10.865 19.625 10.759 19.5469 10.6809C19.4687 10.6027 19.3627 10.5588 19.2522 10.5588C17.6271 10.5588 17.2063 9.79711 16.8354 9.03539C18.7489 6.9286 21.019 6.02438 23.2025 6.47983L22.7578 6.72276C22.58 6.81997 22.4316 6.96327 22.3282 7.13762C22.2248 7.31197 22.1702 7.51094 22.1702 7.71365C22.1702 7.91635 22.2248 8.11532 22.3282 8.28967C22.4316 8.46402 22.58 8.60733 22.7578 8.70454L23.2666 8.98289C23.6755 9.20609 24.0116 9.54227 24.2346 9.95128L24.513 10.4592C24.6102 10.6371 24.7535 10.7855 24.9278 10.8889C25.1022 10.9923 25.3011 11.0469 25.5038 11.0469C25.7066 11.0469 25.9055 10.9923 26.0799 10.8889C26.2542 10.7855 26.3975 10.6371 26.4947 10.4592L26.7731 9.95045C26.8784 9.75978 27.0087 9.58404 27.1606 9.42792C27.6336 10.2594 27.9149 11.1861 27.9841 12.1402C28.0532 13.0943 27.9084 14.0518 27.5602 14.9428C27.171 15.8749 26.6805 16.7614 26.0976 17.5863C25.6681 18.2198 25.2762 18.8779 24.9238 19.5573L24.9221 19.5606ZM27.9377 18.198C27.6852 18.7981 26.9727 19.2231 25.9314 19.4323C26.1943 18.9672 26.4897 18.5101 26.7943 18.043C27.1223 17.5392 27.4523 17.0221 27.7502 16.4817C27.8989 16.7384 27.9926 17.0233 28.0251 17.3183C28.0577 17.6132 28.0285 17.9117 27.9394 18.1947L27.9377 18.198Z"/>
</mask>
<path d="M28.3386 15.237C28.7388 14.2161 28.9022 13.1177 28.8165 12.0246C28.7308 10.9314 28.3983 9.8719 27.844 8.9258L28.2486 8.70454C28.4265 8.60739 28.5749 8.46413 28.6783 8.28981C28.7818 8.11549 28.8363 7.91654 28.8363 7.71386C28.8363 7.51117 28.7818 7.31222 28.6783 7.1379C28.5749 6.96359 28.4265 6.82033 28.2486 6.72317L27.7398 6.44482C27.331 6.22149 26.995 5.88535 26.7718 5.47643L26.4935 4.96807C26.3962 4.79031 26.2528 4.642 26.0785 4.53869C25.9042 4.43537 25.7052 4.38086 25.5026 4.38086C25.2999 4.38086 25.101 4.43537 24.9267 4.53869C24.7523 4.642 24.609 4.79031 24.5117 4.96807L24.2334 5.47685C24.164 5.60065 24.0839 5.71818 23.9942 5.82812C21.3719 4.9989 18.6155 5.90146 16.3354 8.34077C13.2977 5.08558 9.96583 5.06807 7.67236 6.22814C5.71641 6.37524 4.44092 7.01986 3.98798 8.10326C3.84967 8.48312 3.79396 8.88812 3.82457 9.29122C3.85518 9.69433 3.9714 10.0863 4.16549 10.4409C3.67454 12.0121 3.73333 13.7037 4.33216 15.237C4.74188 16.2251 5.2589 17.1653 5.87392 18.0405C6.5948 19.1464 7.27567 20.1915 7.55569 21.4399C7.65795 21.9756 7.71054 22.5196 7.71278 23.065C7.7131 23.7175 7.78606 24.3679 7.93029 25.0043C8.48908 27.1319 9.73832 28.3303 11.3888 28.2924C13.9877 28.2332 14.6315 25.7064 15.1486 23.6784C15.457 22.4699 15.7349 21.1999 16.3362 21.1999C16.9375 21.1999 17.2154 22.4695 17.5238 23.6784C18.0409 25.7064 18.6847 28.2307 21.2832 28.2924C22.9262 28.3111 24.1838 27.1331 24.7417 25.0043C24.886 24.3679 24.9589 23.7175 24.9592 23.065C24.9615 22.5196 25.0141 21.9756 25.1163 21.4399C25.2037 21.063 25.3258 20.695 25.4809 20.3407C27.1714 20.1398 28.2898 19.516 28.7095 18.5189C29.0599 17.688 28.8786 16.6692 28.1998 15.5633C28.2444 15.4537 28.2969 15.3487 28.3386 15.237ZM24.9642 5.87729L25.2426 5.36893C25.2682 5.32235 25.3058 5.2835 25.3515 5.25645C25.3973 5.22939 25.4495 5.21512 25.5026 5.21512C25.5557 5.21512 25.6079 5.22939 25.6536 5.25645C25.6994 5.2835 25.737 5.32235 25.7626 5.36893L26.041 5.87729C26.3403 6.4261 26.7912 6.87725 27.3398 7.17695L27.849 7.4553C27.8956 7.48083 27.9344 7.51842 27.9615 7.56413C27.9886 7.60984 28.0029 7.66198 28.0029 7.71511C28.0029 7.76823 27.9886 7.82038 27.9615 7.86609C27.9344 7.91179 27.8956 7.94938 27.849 7.97491L27.3398 8.25326C26.7912 8.55264 26.3403 9.00352 26.041 9.55209L25.7626 10.0613C25.737 10.1079 25.6994 10.1467 25.6536 10.1738C25.6079 10.2008 25.5557 10.2151 25.5026 10.2151C25.4495 10.2151 25.3973 10.2008 25.3515 10.1738C25.3058 10.1467 25.2682 10.1079 25.2426 10.0613L24.9642 9.55293C24.6652 9.00369 24.2143 8.5522 23.6654 8.25243L23.1562 7.97366C23.1096 7.94819 23.0707 7.91065 23.0436 7.86497C23.0166 7.8193 23.0023 7.76717 23.0023 7.71407C23.0023 7.66096 23.0166 7.60883 23.0436 7.56316C23.0707 7.51748 23.1096 7.47994 23.1562 7.45447L23.665 7.17612C24.2136 6.87671 24.6646 6.42585 24.9642 5.87729ZM4.75469 8.42619C4.88763 8.17304 5.07155 7.95016 5.29487 7.77159C5.51819 7.59302 5.77607 7.46263 6.05227 7.38863C5.49155 7.93096 5.02139 8.55967 4.65968 9.25082C4.61763 8.97184 4.65101 8.68668 4.75636 8.42494L4.75469 8.42619ZM24.2996 21.2603C24.1853 21.8457 24.126 22.4406 24.1225 23.0371C24.1239 23.6285 24.0599 24.2182 23.9317 24.7955C23.6671 25.8085 22.9558 27.4923 21.3007 27.4623C19.3335 27.4161 18.8226 25.4126 18.3288 23.4758C17.9267 21.9207 17.5613 20.3182 16.287 20.3673C15.0903 20.4132 14.7295 21.9507 14.3403 23.4758C13.8461 25.4126 13.3356 27.4127 11.3684 27.4623C9.7054 27.504 9.00203 25.8097 8.73743 24.7955C8.60923 24.2182 8.54523 23.6285 8.54658 23.0371C8.54309 22.4406 8.4838 21.8457 8.36949 21.2603C8.05697 19.8652 7.30276 18.7076 6.57313 17.588C5.99061 16.7635 5.50055 15.8774 5.11179 14.9457C4.68272 13.8398 4.56427 12.6377 4.76927 11.4693C6.40645 13.7611 10.0067 16.2804 14.3319 18.1018C18.0851 19.6569 21.5824 20.4927 24.555 20.4152C24.4522 20.69 24.3675 20.9712 24.3013 21.257L24.2996 21.2603ZM24.9221 19.5606C22.2553 19.7523 18.443 18.9297 14.6536 17.3338C10.0479 15.3945 6.31978 12.6835 5.06429 10.3801C5.5562 9.04101 6.48574 7.90724 7.70236 7.16237C9.77374 5.92813 13.0335 5.82145 15.9862 9.20415C16.4496 10.1275 16.9604 11.368 19.2522 11.3922C19.3627 11.3922 19.4687 11.3483 19.5469 11.2702C19.625 11.192 19.6689 11.086 19.6689 10.9755C19.6689 10.865 19.625 10.759 19.5469 10.6809C19.4687 10.6027 19.3627 10.5588 19.2522 10.5588C17.6271 10.5588 17.2063 9.79711 16.8354 9.03539C18.7489 6.9286 21.019 6.02438 23.2025 6.47983L22.7578 6.72276C22.58 6.81997 22.4316 6.96327 22.3282 7.13762C22.2248 7.31197 22.1702 7.51094 22.1702 7.71365C22.1702 7.91635 22.2248 8.11532 22.3282 8.28967C22.4316 8.46402 22.58 8.60733 22.7578 8.70454L23.2666 8.98289C23.6755 9.20609 24.0116 9.54227 24.2346 9.95128L24.513 10.4592C24.6102 10.6371 24.7535 10.7855 24.9278 10.8889C25.1022 10.9923 25.3011 11.0469 25.5038 11.0469C25.7066 11.0469 25.9055 10.9923 26.0799 10.8889C26.2542 10.7855 26.3975 10.6371 26.4947 10.4592L26.7731 9.95045C26.8784 9.75978 27.0087 9.58404 27.1606 9.42792C27.6336 10.2594 27.9149 11.1861 27.9841 12.1402C28.0532 13.0943 27.9084 14.0518 27.5602 14.9428C27.171 15.8749 26.6805 16.7614 26.0976 17.5863C25.6681 18.2198 25.2762 18.8779 24.9238 19.5573L24.9221 19.5606ZM27.9377 18.198C27.6852 18.7981 26.9727 19.2231 25.9314 19.4323C26.1943 18.9672 26.4897 18.5101 26.7943 18.043C27.1223 17.5392 27.4523 17.0221 27.7502 16.4817C27.8989 16.7384 27.9926 17.0233 28.0251 17.3183C28.0577 17.6132 28.0285 17.9117 27.9394 18.1947L27.9377 18.198Z" fill="white"/>
<path d="M28.3386 15.237C28.7388 14.2161 28.9022 13.1177 28.8165 12.0246C28.7308 10.9314 28.3983 9.8719 27.844 8.9258L28.2486 8.70454C28.4265 8.60739 28.5749 8.46413 28.6783 8.28981C28.7818 8.11549 28.8363 7.91654 28.8363 7.71386C28.8363 7.51117 28.7818 7.31222 28.6783 7.1379C28.5749 6.96359 28.4265 6.82033 28.2486 6.72317L27.7398 6.44482C27.331 6.22149 26.995 5.88535 26.7718 5.47643L26.4935 4.96807C26.3962 4.79031 26.2528 4.642 26.0785 4.53869C25.9042 4.43537 25.7052 4.38086 25.5026 4.38086C25.2999 4.38086 25.101 4.43537 24.9267 4.53869C24.7523 4.642 24.609 4.79031 24.5117 4.96807L24.2334 5.47685C24.164 5.60065 24.0839 5.71818 23.9942 5.82812C21.3719 4.9989 18.6155 5.90146 16.3354 8.34077C13.2977 5.08558 9.96583 5.06807 7.67236 6.22814C5.71641 6.37524 4.44092 7.01986 3.98798 8.10326C3.84967 8.48312 3.79396 8.88812 3.82457 9.29122C3.85518 9.69433 3.9714 10.0863 4.16549 10.4409C3.67454 12.0121 3.73333 13.7037 4.33216 15.237C4.74188 16.2251 5.2589 17.1653 5.87392 18.0405C6.5948 19.1464 7.27567 20.1915 7.55569 21.4399C7.65795 21.9756 7.71054 22.5196 7.71278 23.065C7.7131 23.7175 7.78606 24.3679 7.93029 25.0043C8.48908 27.1319 9.73832 28.3303 11.3888 28.2924C13.9877 28.2332 14.6315 25.7064 15.1486 23.6784C15.457 22.4699 15.7349 21.1999 16.3362 21.1999C16.9375 21.1999 17.2154 22.4695 17.5238 23.6784C18.0409 25.7064 18.6847 28.2307 21.2832 28.2924C22.9262 28.3111 24.1838 27.1331 24.7417 25.0043C24.886 24.3679 24.9589 23.7175 24.9592 23.065C24.9615 22.5196 25.0141 21.9756 25.1163 21.4399C25.2037 21.063 25.3258 20.695 25.4809 20.3407C27.1714 20.1398 28.2898 19.516 28.7095 18.5189C29.0599 17.688 28.8786 16.6692 28.1998 15.5633C28.2444 15.4537 28.2969 15.3487 28.3386 15.237ZM24.9642 5.87729L25.2426 5.36893C25.2682 5.32235 25.3058 5.2835 25.3515 5.25645C25.3973 5.22939 25.4495 5.21512 25.5026 5.21512C25.5557 5.21512 25.6079 5.22939 25.6536 5.25645C25.6994 5.2835 25.737 5.32235 25.7626 5.36893L26.041 5.87729C26.3403 6.4261 26.7912 6.87725 27.3398 7.17695L27.849 7.4553C27.8956 7.48083 27.9344 7.51842 27.9615 7.56413C27.9886 7.60984 28.0029 7.66198 28.0029 7.71511C28.0029 7.76823 27.9886 7.82038 27.9615 7.86609C27.9344 7.91179 27.8956 7.94938 27.849 7.97491L27.3398 8.25326C26.7912 8.55264 26.3403 9.00352 26.041 9.55209L25.7626 10.0613C25.737 10.1079 25.6994 10.1467 25.6536 10.1738C25.6079 10.2008 25.5557 10.2151 25.5026 10.2151C25.4495 10.2151 25.3973 10.2008 25.3515 10.1738C25.3058 10.1467 25.2682 10.1079 25.2426 10.0613L24.9642 9.55293C24.6652 9.00369 24.2143 8.5522 23.6654 8.25243L23.1562 7.97366C23.1096 7.94819 23.0707 7.91065 23.0436 7.86497C23.0166 7.8193 23.0023 7.76717 23.0023 7.71407C23.0023 7.66096 23.0166 7.60883 23.0436 7.56316C23.0707 7.51748 23.1096 7.47994 23.1562 7.45447L23.665 7.17612C24.2136 6.87671 24.6646 6.42585 24.9642 5.87729ZM4.75469 8.42619C4.88763 8.17304 5.07155 7.95016 5.29487 7.77159C5.51819 7.59302 5.77607 7.46263 6.05227 7.38863C5.49155 7.93096 5.02139 8.55967 4.65968 9.25082C4.61763 8.97184 4.65101 8.68668 4.75636 8.42494L4.75469 8.42619ZM24.2996 21.2603C24.1853 21.8457 24.126 22.4406 24.1225 23.0371C24.1239 23.6285 24.0599 24.2182 23.9317 24.7955C23.6671 25.8085 22.9558 27.4923 21.3007 27.4623C19.3335 27.4161 18.8226 25.4126 18.3288 23.4758C17.9267 21.9207 17.5613 20.3182 16.287 20.3673C15.0903 20.4132 14.7295 21.9507 14.3403 23.4758C13.8461 25.4126 13.3356 27.4127 11.3684 27.4623C9.7054 27.504 9.00203 25.8097 8.73743 24.7955C8.60923 24.2182 8.54523 23.6285 8.54658 23.0371C8.54309 22.4406 8.4838 21.8457 8.36949 21.2603C8.05697 19.8652 7.30276 18.7076 6.57313 17.588C5.99061 16.7635 5.50055 15.8774 5.11179 14.9457C4.68272 13.8398 4.56427 12.6377 4.76927 11.4693C6.40645 13.7611 10.0067 16.2804 14.3319 18.1018C18.0851 19.6569 21.5824 20.4927 24.555 20.4152C24.4522 20.69 24.3675 20.9712 24.3013 21.257L24.2996 21.2603ZM24.9221 19.5606C22.2553 19.7523 18.443 18.9297 14.6536 17.3338C10.0479 15.3945 6.31978 12.6835 5.06429 10.3801C5.5562 9.04101 6.48574 7.90724 7.70236 7.16237C9.77374 5.92813 13.0335 5.82145 15.9862 9.20415C16.4496 10.1275 16.9604 11.368 19.2522 11.3922C19.3627 11.3922 19.4687 11.3483 19.5469 11.2702C19.625 11.192 19.6689 11.086 19.6689 10.9755C19.6689 10.865 19.625 10.759 19.5469 10.6809C19.4687 10.6027 19.3627 10.5588 19.2522 10.5588C17.6271 10.5588 17.2063 9.79711 16.8354 9.03539C18.7489 6.9286 21.019 6.02438 23.2025 6.47983L22.7578 6.72276C22.58 6.81997 22.4316 6.96327 22.3282 7.13762C22.2248 7.31197 22.1702 7.51094 22.1702 7.71365C22.1702 7.91635 22.2248 8.11532 22.3282 8.28967C22.4316 8.46402 22.58 8.60733 22.7578 8.70454L23.2666 8.98289C23.6755 9.20609 24.0116 9.54227 24.2346 9.95128L24.513 10.4592C24.6102 10.6371 24.7535 10.7855 24.9278 10.8889C25.1022 10.9923 25.3011 11.0469 25.5038 11.0469C25.7066 11.0469 25.9055 10.9923 26.0799 10.8889C26.2542 10.7855 26.3975 10.6371 26.4947 10.4592L26.7731 9.95045C26.8784 9.75978 27.0087 9.58404 27.1606 9.42792C27.6336 10.2594 27.9149 11.1861 27.9841 12.1402C28.0532 13.0943 27.9084 14.0518 27.5602 14.9428C27.171 15.8749 26.6805 16.7614 26.0976 17.5863C25.6681 18.2198 25.2762 18.8779 24.9238 19.5573L24.9221 19.5606ZM27.9377 18.198C27.6852 18.7981 26.9727 19.2231 25.9314 19.4323C26.1943 18.9672 26.4897 18.5101 26.7943 18.043C27.1223 17.5392 27.4523 17.0221 27.7502 16.4817C27.8989 16.7384 27.9926 17.0233 28.0251 17.3183C28.0577 17.6132 28.0285 17.9117 27.9394 18.1947L27.9377 18.198Z" stroke="white" stroke-width="0.888942" mask="url(#path-2-outside-1_370_3569)"/>
<path d="M22.3027 10.6406C22.4593 10.6405 22.6134 10.6819 22.748 10.7617C22.8827 10.8415 22.9933 10.9564 23.0684 11.0938L23.2246 11.3779C23.3275 11.5668 23.4823 11.722 23.6709 11.8252L23.9561 11.9795L24.0068 12.0068L24.0029 12.0117C24.1185 12.0851 24.216 12.1836 24.2861 12.3018C24.3659 12.4363 24.4082 12.5897 24.4082 12.7461C24.4082 12.9025 24.3658 13.0559 24.2861 13.1904C24.2064 13.3249 24.0922 13.4357 23.9551 13.5107L23.6699 13.667C23.4813 13.7701 23.3257 13.9256 23.2227 14.1143L23.0674 14.3994C22.9923 14.5365 22.8814 14.6507 22.7471 14.7305C22.6125 14.8103 22.4582 14.8525 22.3018 14.8525C22.1453 14.8525 21.992 14.8103 21.8574 14.7305C21.7229 14.6506 21.6121 14.5358 21.5371 14.3984L21.3809 14.1143C21.3037 13.9727 21.1974 13.8498 21.0693 13.7539L20.9336 13.667L20.6484 13.5107C20.5113 13.4357 20.3971 13.3249 20.3174 13.1904C20.2376 13.0559 20.1953 12.9025 20.1953 12.7461C20.1953 12.5898 20.2377 12.4363 20.3174 12.3018C20.3971 12.1674 20.5114 12.0565 20.6484 11.9814H20.6494L20.9336 11.8252C21.1227 11.7215 21.2782 11.5656 21.3809 11.376L21.5371 11.0908L21.5996 10.9922C21.669 10.8985 21.7572 10.8193 21.8584 10.7598C21.993 10.6806 22.1466 10.6402 22.3027 10.6406ZM22.2139 11.8262L22.2119 11.8301C22.0458 12.1342 21.8059 12.3907 21.5156 12.5771L21.3887 12.6533L21.2031 12.7539L21.3848 12.834L21.3887 12.8359C21.7363 13.0255 22.0224 13.3116 22.2119 13.6592L22.3135 13.8438L22.3936 13.6631L22.3955 13.6582C22.5852 13.3111 22.8705 13.0254 23.2178 12.8359L23.4033 12.7334L23.2227 12.6543L23.2178 12.6523C22.8706 12.4626 22.5853 12.1772 22.3955 11.8301L22.293 11.6436L22.2139 11.8262Z" fill="white" stroke="white" stroke-width="0.111118"/>
<path d="M6.75195 9.32324C7.01297 9.32324 7.22453 9.5349 7.22461 9.7959C7.22461 10.057 7.01302 10.2686 6.75195 10.2686C6.49096 10.2685 6.2793 10.0569 6.2793 9.7959C6.27938 9.53495 6.49101 9.32332 6.75195 9.32324Z" fill="white" stroke="white" stroke-width="0.111118"/>
</g>
<defs>
<clipPath id="clip0_370_3569">
<rect width="26.6683" height="26.6683" fill="white" transform="translate(3.00098 3)"/>
</clipPath>
</defs>
</svg>
