<svg width="92" height="92" viewBox="0 0 92 92" fill="none" xmlns="http://www.w3.org/2000/svg">
<path d="M46 0.446289C71.1589 0.446289 91.5537 20.8411 91.5537 46C91.5537 71.1589 71.1589 91.5537 46 91.5537C20.8411 91.5537 0.446289 71.1589 0.446289 46C0.446289 20.8411 20.8411 0.446289 46 0.446289Z" fill="white"/>
<path d="M46 0.446289C71.1589 0.446289 91.5537 20.8411 91.5537 46C91.5537 71.1589 71.1589 91.5537 46 91.5537C20.8411 91.5537 0.446289 71.1589 0.446289 46C0.446289 20.8411 20.8411 0.446289 46 0.446289Z" stroke="url(#paint0_linear_370_3581)" stroke-width="0.891669"/>
<path d="M51.6474 41.7164C52.6338 41.1048 53.4857 40.5767 55.1607 40.12C56.5604 39.7384 57.8517 39.6263 59.0077 39.7684C57.3485 38.7763 55.1694 38.5885 52.6374 39.2788C50.9623 39.7358 50.1105 40.2632 49.124 40.8751C48.4977 41.2778 47.8482 41.643 47.1787 41.9688C48.1679 42.3907 49.05 42.6429 49.8553 42.735C50.47 42.4269 51.0682 42.0869 51.6474 41.7164Z" fill="#31C1B9"/>
<path d="M53.6545 67.0379C53.3091 62.9625 52.2581 59.8034 50.5309 57.6482C50.2976 57.3584 50.0018 57.1251 49.6657 56.9656C49.3297 56.8061 48.9619 56.7246 48.5899 56.7271C48.3909 56.7273 48.1925 56.7509 47.999 56.7974C48.0017 56.8008 48.0048 56.804 48.0076 56.8074C49.7348 58.9626 50.7857 62.1217 51.1312 66.197C51.2891 68.0129 51.2908 69.8389 51.1365 71.655C51.1351 71.669 51.1331 71.6828 51.1304 71.6965C51.1034 71.8288 51.1127 71.9659 51.1573 72.0933C51.2018 72.2207 51.28 72.3337 51.3836 72.4203C51.4872 72.5069 51.6122 72.5639 51.7455 72.5852C51.8788 72.6065 52.0154 72.5913 52.1408 72.5413C52.2536 72.5111 52.36 72.4607 52.4548 72.3925C52.9757 71.8432 53.4166 71.2232 53.7643 70.5508C53.7888 69.3787 53.7521 68.2061 53.6545 67.0379Z" fill="#31C1B9"/>
<path d="M40.9441 71.6551C40.943 71.6456 40.9398 71.6144 40.9352 71.5642C39.2781 68.5828 38.9047 64.2077 39.1723 60.7063C39.1957 60.4044 39.2192 60.1238 39.2411 59.8625C39.3828 58.1784 39.4682 57.1619 38.8986 56.2414C38.3504 55.3557 37.233 54.6594 35.0877 53.5237C33.9051 52.8976 33.0018 51.6413 32.5448 49.9865C32.0959 48.3016 32.1344 46.5238 32.6559 44.8598C33.1773 43.2281 34.1366 41.9143 35.4299 41.0606C36.9405 40.0637 38.8493 39.7098 41.1039 40.0088C41.1835 40.0194 41.2641 40.0323 41.3452 40.0467C40.4044 39.6226 39.445 39.2823 38.5806 39.1678C36.3259 38.8687 34.4171 39.2226 32.9066 40.2197C31.6134 41.0733 30.6541 42.3876 30.1325 44.0188C29.611 45.6827 29.5726 47.4605 30.0215 49.1455C30.4785 50.8004 31.3816 52.0567 32.5645 52.6827C34.7097 53.8183 35.8272 54.5148 36.3754 55.4004C36.945 56.3206 36.8595 57.3371 36.7179 59.0215C36.6958 59.2835 36.6722 59.564 36.6491 59.8659C36.3254 64.1005 36.9374 69.6152 39.6264 72.3933C39.7212 72.4609 39.8273 72.511 39.9398 72.5414C40.0652 72.5915 40.2018 72.6067 40.3351 72.5854C40.4684 72.5641 40.5935 72.5072 40.6971 72.4206C40.8007 72.3339 40.8789 72.2209 40.9235 72.0935C40.968 71.966 40.9772 71.8289 40.9502 71.6966C40.9475 71.6828 40.9455 71.6689 40.9441 71.6551Z" fill="#31C1B9"/>
<path d="M52.2415 37.8769C50.3792 38.3845 49.4046 38.9888 48.3725 39.6288C47.5843 40.1416 46.7531 40.585 45.8881 40.9538C45.8736 40.9599 45.8593 40.9663 45.8451 40.9729C45.6108 40.844 45.3295 40.6817 45.022 40.5042C43.3128 39.517 40.7295 38.0252 38.5221 37.7325C33.7064 37.0935 30.0254 39.237 28.6739 43.4655C27.3802 47.5122 28.7459 52.0847 31.7179 53.6581C33.6463 54.6791 34.6994 55.3168 35.1035 55.9697C35.4532 56.5347 35.4082 57.2723 35.2721 58.8871C35.2496 59.1544 35.2252 59.4409 35.2018 59.7492C35.0333 61.9523 34.7768 69.4438 38.5467 73.339C38.8452 73.6447 39.2336 73.8469 39.6552 73.9161C40.0769 73.9853 40.5096 73.9178 40.8901 73.7236C41.2707 73.5294 41.5791 73.2185 41.7704 72.8365C41.9617 72.4544 42.0258 72.0212 41.9533 71.6001C41.8096 69.8347 41.815 68.0604 41.9697 66.2959C42.2031 63.637 42.904 59.953 44.9182 57.5012C45.0427 57.3543 45.1978 57.2365 45.3727 57.1559C45.5476 57.0754 45.738 57.0342 45.9305 57.0352C46.1231 57.0361 46.3131 57.0792 46.4872 57.1614C46.6613 57.2437 46.8152 57.363 46.9383 57.5112C48.9159 59.9787 49.6019 63.66 49.8293 66.3138C49.9796 68.0726 49.9836 69.8409 49.841 71.6004C49.7903 71.8843 49.8029 72.176 49.878 72.4544C49.9531 72.7329 50.0888 72.9914 50.2754 73.2113C50.462 73.4313 50.6949 73.6073 50.9574 73.7267C51.2199 73.8462 51.5056 73.9062 51.794 73.9024C52.0186 73.9024 52.2416 73.865 52.4539 73.7918C52.7502 73.7049 53.022 73.5497 53.2475 73.3387C57.0177 69.4433 56.761 61.952 56.5926 59.7487C56.5692 59.4419 56.5458 59.1567 56.5223 58.8904C56.3866 57.275 56.3414 56.5371 56.6911 55.9725C57.0947 55.3206 58.1478 54.6814 60.0767 53.6577C61.6563 52.8193 62.8056 51.1156 63.313 48.8605C63.7877 46.7211 63.6233 44.4893 62.8401 42.4426C62.082 40.5285 60.8046 39.0742 59.1458 38.2372C57.2316 37.271 54.9086 37.1497 52.2415 37.8769ZM61.5331 42.9601C62.2143 44.7436 62.3563 46.6879 61.9415 48.5515C61.5314 50.3733 60.6118 51.7816 59.4179 52.4153C57.1745 53.6061 56.0757 54.2954 55.4959 55.232C54.8865 56.2158 54.9752 57.2669 55.1215 59.0083C55.1436 59.2713 55.1673 59.553 55.1905 59.856C55.5139 64.0864 54.9101 69.5876 52.2463 72.3512C52.1679 72.3984 52.084 72.4357 51.9964 72.4623C51.9018 72.5019 51.7982 72.5149 51.6968 72.4998C51.5953 72.4848 51.4999 72.4423 51.4209 72.377C51.3418 72.3117 51.2822 72.226 51.2483 72.1292C51.2144 72.0324 51.2077 71.9282 51.2287 71.8278C51.2324 71.8086 51.2353 71.7893 51.2373 71.7699C51.2793 71.3675 52.2195 61.8521 48.0352 56.6314C47.7814 56.32 47.4618 56.0686 47.0993 55.8952C46.7369 55.7219 46.3406 55.6308 45.9388 55.6285C45.537 55.6263 45.1397 55.7129 44.7753 55.8823C44.411 56.0516 44.0886 56.2994 43.8313 56.608C39.5638 61.8026 40.5143 71.3658 40.5568 71.7703C40.5587 71.7895 40.5616 71.8086 40.5652 71.8277C40.5863 71.9281 40.5795 72.0323 40.5457 72.1291C40.5118 72.2259 40.4521 72.3116 40.373 72.377C40.2939 72.4423 40.1985 72.4847 40.097 72.4997C39.9955 72.5147 39.8919 72.5017 39.7973 72.4621C39.7098 72.4355 39.626 72.3982 39.5477 72.3511C36.8842 69.5877 36.2802 64.0864 36.6035 59.8558C36.6269 59.5512 36.6504 59.2685 36.6729 59.0044C36.8192 57.2635 36.9072 56.2128 36.2987 55.229C35.7179 54.2908 34.6189 53.6026 32.3754 52.4148C30.0172 51.1664 28.9353 47.2639 30.0126 43.8931C30.554 42.1997 32.4475 38.3453 38.3366 39.126C40.2674 39.382 42.7051 40.79 44.3182 41.7214C44.8081 42.0044 45.2313 42.2488 45.5472 42.4059C47.0724 43.1644 49.3629 44.1211 51.637 43.6778C51.82 43.642 51.9814 43.535 52.0855 43.3803C52.1897 43.2256 52.2281 43.0359 52.1924 42.8529C52.1566 42.6698 52.0496 42.5085 51.8949 42.4044C51.7402 42.3002 51.5505 42.2618 51.3675 42.2975C50.2675 42.5124 49.0217 42.3374 47.5158 41.7467C48.1413 41.4261 48.6479 41.1121 49.1135 40.8233C50.097 40.2139 50.9463 39.6866 52.6112 39.2329C56.8825 38.0697 60.1343 39.4276 61.5331 42.9601Z" fill="#0178A3"/>
<path d="M49.9336 22.9299L50.6215 18.9195C50.6437 18.7902 50.6293 18.6573 50.5798 18.5357C50.5304 18.4142 50.448 18.3089 50.3418 18.2317C50.2357 18.1546 50.11 18.1087 49.9792 18.0992C49.8483 18.0898 49.7174 18.1171 49.6012 18.1782L45.9996 20.0717L42.398 18.1782C42.2818 18.1171 42.1509 18.0898 42.02 18.0992C41.8892 18.1087 41.7635 18.1546 41.6574 18.2317C41.5512 18.3089 41.4688 18.4142 41.4194 18.5357C41.3699 18.6573 41.3555 18.7902 41.3777 18.9195L42.0656 22.9299L39.1517 25.7702C39.0578 25.8618 38.9914 25.9778 38.9599 26.1052C38.9285 26.2326 38.9333 26.3663 38.9739 26.491C39.0145 26.6158 39.0891 26.7268 39.1895 26.8113C39.2898 26.8959 39.4118 26.9507 39.5416 26.9695L43.5683 27.5547L45.369 31.2036C45.4271 31.3213 45.5169 31.4204 45.6283 31.4897C45.7398 31.559 45.8684 31.5957 45.9996 31.5957C46.1308 31.5957 46.2594 31.559 46.3709 31.4897C46.4823 31.4204 46.5721 31.3213 46.6302 31.2036L48.4309 27.5547L52.4576 26.9696C52.5874 26.9508 52.7094 26.896 52.8097 26.8114C52.9101 26.7269 52.9847 26.6159 53.0253 26.4912C53.0659 26.3664 53.0707 26.2327 53.0393 26.1054C53.0078 25.978 52.9414 25.8619 52.8474 25.7703L49.9336 22.9299ZM47.8629 26.2161C47.7501 26.2325 47.6429 26.2761 47.5507 26.3431C47.4584 26.4101 47.3839 26.4985 47.3334 26.6007L45.9996 29.3035L44.6658 26.6007C44.6153 26.4985 44.5407 26.4101 44.4485 26.3431C44.3563 26.2761 44.2491 26.2325 44.1363 26.2161L41.1535 25.7825L43.3119 23.6786C43.3935 23.5991 43.4546 23.5009 43.4898 23.3925C43.5251 23.2841 43.5334 23.1687 43.5142 23.0564L43.0045 20.0858L45.6724 21.4883C45.7733 21.5413 45.8856 21.569 45.9996 21.569C46.1136 21.569 46.2259 21.5413 46.3268 21.4883L48.9947 20.0858L48.485 23.0564C48.4658 23.1687 48.4741 23.2841 48.5094 23.3925C48.5446 23.5009 48.6057 23.5991 48.6873 23.6786L50.8457 25.7825L47.8629 26.2161Z" fill="#31C1B9"/>
<path d="M33.1952 29.3615L33.8829 25.3516C33.9051 25.2223 33.8907 25.0894 33.8413 24.9679C33.792 24.8464 33.7096 24.7411 33.6036 24.6639C33.4975 24.5867 33.372 24.5408 33.2412 24.5312C33.1104 24.5216 32.9795 24.5489 32.8633 24.6098L29.2612 26.5033L25.6597 24.6099C25.5435 24.5488 25.4126 24.5214 25.2817 24.5309C25.1507 24.5404 25.0251 24.5863 24.9189 24.6635C24.8128 24.7406 24.7303 24.846 24.6809 24.9676C24.6315 25.0892 24.6172 25.2222 24.6395 25.3516L25.3272 29.3621L22.4135 32.2018C22.3195 32.2933 22.2531 32.4094 22.2217 32.5368C22.1902 32.6641 22.195 32.7978 22.2356 32.9226C22.2762 33.0473 22.3508 33.1583 22.4511 33.2428C22.5514 33.3274 22.6734 33.3822 22.8032 33.4011L26.8299 33.9861L28.6306 37.635C28.6887 37.7527 28.7785 37.8518 28.8899 37.9211C29.0014 37.9904 29.13 38.0271 29.2612 38.0271C29.3924 38.0271 29.521 37.9904 29.6325 37.9211C29.7439 37.8518 29.8338 37.7527 29.8918 37.635L31.6925 33.9861L35.7193 33.4011C35.8491 33.3822 35.9711 33.3274 36.0714 33.2428C36.1717 33.1583 36.2464 33.0473 36.2869 32.9226C36.3275 32.7978 36.3323 32.6641 36.3009 32.5368C36.2695 32.4094 36.203 32.2933 36.1091 32.2018L33.1952 29.3615ZM31.1245 32.6477C31.0117 32.664 30.9045 32.7076 30.8123 32.7746C30.7201 32.8416 30.6455 32.93 30.595 33.0323L29.2612 35.7351L27.9274 33.0323C27.8769 32.93 27.8024 32.8416 27.7101 32.7746C27.6179 32.7076 27.5108 32.664 27.3979 32.6477L24.4153 32.2141L26.5736 30.1102C26.6552 30.0306 26.7163 29.9324 26.7515 29.824C26.7867 29.7156 26.795 29.6003 26.7758 29.4879L26.2663 26.5176L28.934 27.92C29.0349 27.973 29.1472 28.0007 29.2612 28.0007C29.3752 28.0007 29.4875 27.973 29.5884 27.92L32.2563 26.5176L31.7466 29.4883C31.7274 29.6006 31.7357 29.716 31.771 29.8244C31.8062 29.9328 31.8673 30.031 31.9489 30.1106L34.1073 32.2144L31.1245 32.6477Z" fill="#31C1B9"/>
<path d="M66.6732 29.3615L67.361 25.3515C67.3831 25.2222 67.3687 25.0893 67.3192 24.9678C67.2698 24.8463 67.1873 24.741 67.0812 24.6639C66.975 24.5868 66.8495 24.5409 66.7186 24.5315C66.5878 24.522 66.4569 24.5494 66.3407 24.6104L62.7392 26.5033L59.1371 24.6097C59.021 24.5488 58.8901 24.5216 58.7593 24.5312C58.6285 24.5407 58.5029 24.5867 58.3969 24.6639C58.2908 24.741 58.2085 24.8463 58.1591 24.9678C58.1097 25.0894 58.0954 25.2223 58.1176 25.3515L58.8056 29.362L55.891 32.2017C55.7971 32.2933 55.7306 32.4094 55.6992 32.5367C55.6678 32.6641 55.6726 32.7977 55.7131 32.9225C55.7537 33.0473 55.8283 33.1582 55.9287 33.2428C56.029 33.3274 56.1509 33.3822 56.2808 33.401L60.3076 33.986L62.1083 37.635C62.1663 37.7527 62.2562 37.8518 62.3676 37.9211C62.479 37.9904 62.6076 38.0271 62.7389 38.0271C62.8701 38.0271 62.9987 37.9904 63.1101 37.9211C63.2216 37.8518 63.3114 37.7527 63.3695 37.635L65.1702 33.986L69.1968 33.401C69.3267 33.3822 69.4487 33.3274 69.549 33.2428C69.6493 33.1582 69.7239 33.0473 69.7645 32.9225C69.805 32.7977 69.8099 32.6641 69.7784 32.5367C69.747 32.4094 69.6806 32.2933 69.5866 32.2017L66.6732 29.3615ZM64.6025 32.6476C64.4897 32.664 64.3825 32.7076 64.2903 32.7746C64.1981 32.8416 64.1235 32.93 64.0731 33.0322L62.7392 35.735L61.4054 33.0322C61.3549 32.93 61.2804 32.8416 61.1881 32.7746C61.0959 32.7076 60.9888 32.664 60.8759 32.6476L57.8932 32.214L60.0512 30.1104C60.1328 30.0308 60.1939 29.9326 60.2291 29.8242C60.2643 29.7158 60.2727 29.6005 60.2534 29.4881L59.7441 26.5175L62.412 27.92C62.5129 27.9731 62.6252 28.0008 62.7392 28.0008C62.8532 28.0008 62.9655 27.9731 63.0664 27.92L65.7348 26.5175L65.2247 29.4883C65.2054 29.6006 65.2137 29.7159 65.2489 29.8243C65.2842 29.9327 65.3452 30.0309 65.4268 30.1105L67.5852 32.2144L64.6025 32.6476Z" fill="#31C1B9"/>
<defs>
<linearGradient id="paint0_linear_370_3581" x1="1.28523e-07" y1="46" x2="92" y2="46" gradientUnits="userSpaceOnUse">
<stop stop-color="#4DC0C1"/>
<stop offset="1" stop-color="#04729A"/>
</linearGradient>
</defs>
</svg>
