<svg width="41" height="40" viewBox="0 0 41 40" fill="none" xmlns="http://www.w3.org/2000/svg">
<path d="M28.1567 2.5C28.8198 2.5 29.4557 2.76339 29.9245 3.23223C30.3933 3.70107 30.6567 4.33696 30.6567 5V35C30.6567 35.663 30.3933 36.2989 29.9245 36.7678C29.4557 37.2366 28.8198 37.5 28.1567 37.5H13.1567C12.4937 37.5 11.8578 37.2366 11.389 36.7678C10.9201 36.2989 10.6567 35.663 10.6567 35V5C10.6567 4.33696 10.9201 3.70107 11.389 3.23223C11.8578 2.76339 12.4937 2.5 13.1567 2.5H28.1567ZM13.1567 0C11.8307 0 10.5589 0.526784 9.6212 1.46447C8.68352 2.40215 8.15674 3.67392 8.15674 5V35C8.15674 36.3261 8.68352 37.5979 9.6212 38.5355C10.5589 39.4732 11.8307 40 13.1567 40H28.1567C29.4828 40 30.7546 39.4732 31.6923 38.5355C32.63 37.5979 33.1567 36.3261 33.1567 35V5C33.1567 3.67392 32.63 2.40215 31.6923 1.46447C30.7546 0.526784 29.4828 0 28.1567 0L13.1567 0Z" fill="#0178A3"/>
<path d="M20.6567 35C21.3198 35 21.9557 34.7366 22.4245 34.2678C22.8933 33.7989 23.1567 33.163 23.1567 32.5C23.1567 31.837 22.8933 31.2011 22.4245 30.7322C21.9557 30.2634 21.3198 30 20.6567 30C19.9937 30 19.3578 30.2634 18.889 30.7322C18.4201 31.2011 18.1567 31.837 18.1567 32.5C18.1567 33.163 18.4201 33.7989 18.889 34.2678C19.3578 34.7366 19.9937 35 20.6567 35Z" fill="#0178A3"/>
</svg>
