<svg width="40" height="40" viewBox="0 0 40 40" fill="none" xmlns="http://www.w3.org/2000/svg">
<path d="M39.3353 19.8085C39.3353 30.4881 30.6775 39.142 19.998 39.142C9.32236 39.142 0.664551 30.4881 0.664551 19.8085C0.664551 9.129 9.32236 0.471191 19.998 0.471191C30.6777 0.471191 39.3353 9.129 39.3353 19.8085Z" fill="#D6EBFE"/>
<path d="M30.1105 24.1642C30.1105 26.6954 27.3019 33.1548 25.1274 37.7764C24.2327 39.6779 21.4993 39.5662 20.7513 37.6023C19.8555 35.2503 18.7697 32.6314 17.7958 30.9239C16.8196 32.6317 15.7324 35.2514 14.8358 37.6039C14.0875 39.5675 11.3544 39.6787 10.4599 37.7775C8.28535 33.1557 5.47644 26.6956 5.47644 24.1643C5.47644 20.0392 8.82347 16.6921 12.9533 16.6921C14.8003 16.6921 16.4878 17.3625 17.7958 18.4689C19.1038 17.3625 20.7913 16.6921 22.6336 16.6921C26.7635 16.692 30.1105 20.039 30.1105 24.1642Z" fill="#31C1B9"/>
<path d="M32.1233 20.3922V20.3954C29.055 20.3954 26.5722 22.8783 26.5722 25.9465H26.5689C26.5689 22.8783 24.0861 20.3954 21.0178 20.3954V20.3922C24.0861 20.3922 26.5689 17.9093 26.5689 14.8411H26.5722C26.5722 17.9095 29.055 20.3922 32.1233 20.3922Z" fill="white"/>
<path d="M25.6383 11.2866V11.2884C23.9352 11.2884 22.5571 12.6666 22.5571 14.3697H22.5552C22.5552 12.6666 21.1771 11.2884 19.4739 11.2884V11.2866C21.1771 11.2866 22.5552 9.90845 22.5552 8.20532H22.5571C22.5571 9.9086 23.9352 11.2866 25.6383 11.2866Z" fill="white"/>
<path d="M34.5236 12.2617V12.2635C32.8205 12.2635 31.4424 13.6417 31.4424 15.3448H31.4405C31.4405 13.6417 30.0624 12.2635 28.3593 12.2635V12.2617C30.0624 12.2617 31.4405 10.8835 31.4405 9.18042H31.4424C31.4424 10.8835 32.8205 12.2617 34.5236 12.2617Z" fill="white"/>
<path d="M32.51 20.3952V20.3918C32.51 20.178 32.3369 20.005 32.1233 20.005C29.2756 20.005 26.9588 17.6883 26.9588 14.8408C26.9588 14.6272 26.7824 14.4541 26.5689 14.4541C26.3553 14.4541 26.1822 14.6272 26.1822 14.8408C26.1822 15.5919 26.0174 16.3039 25.7278 16.9483C24.7774 16.5379 23.7331 16.305 22.6334 16.305C20.8838 16.305 19.1784 16.8941 17.7956 17.9705C16.4128 16.8943 14.7059 16.305 12.9533 16.305C8.61719 16.305 5.08954 19.8305 5.08954 24.1639C5.08954 26.7327 7.81969 33.0741 10.11 37.9419C11.1466 40.1457 14.3245 40.031 15.1972 37.7414C16.1778 35.1679 17.0497 33.1508 17.7952 31.7305C18.5391 33.1505 19.4099 35.1668 20.3897 37.7396C21.2584 40.0214 24.4356 40.1557 25.4772 37.9408C27.7672 33.0738 30.497 26.7327 30.497 24.1639C30.497 23.1425 30.2947 22.1694 29.9367 21.2743C30.6017 20.9618 31.3409 20.7818 32.1231 20.7818C32.3369 20.7819 32.51 20.6089 32.51 20.3952ZM24.7775 37.6116C24.0364 39.1861 21.7456 39.1268 21.1127 37.4647C19.9672 34.4572 18.9642 32.1921 18.1316 30.7325C17.9836 30.4725 17.6086 30.4722 17.46 30.7322C16.6252 32.1925 15.6206 34.458 14.4745 37.466C13.8503 39.1039 11.5642 39.2164 10.8099 37.6129C7.61985 30.833 5.86313 26.0569 5.86313 24.1643C5.86313 20.2572 9.04376 17.0788 12.9534 17.0788C14.6303 17.0788 16.2614 17.6772 17.5459 18.7639C17.6902 18.8852 17.9013 18.886 18.0456 18.7639C19.3303 17.6772 20.9597 17.0788 22.6336 17.0788C23.5995 17.0788 24.518 17.2785 25.3572 17.631C24.437 19.0571 22.8375 20.0054 21.0178 20.0054C20.8042 20.0054 20.6311 20.1818 20.6311 20.3955C20.6311 20.6093 20.8042 20.7822 21.0178 20.7822C23.8655 20.7822 26.1824 23.0991 26.1824 25.9469C26.1824 26.1607 26.3588 26.3336 26.5722 26.3336C26.7858 26.3336 26.9589 26.1607 26.9589 25.9469C26.9589 24.1619 27.8695 22.5861 29.2502 21.658C29.5489 22.4388 29.7238 23.2799 29.7238 24.1644C29.7238 26.0569 27.967 30.8325 24.7775 37.6116ZM26.5703 23.8424C25.968 22.2579 24.7059 20.9961 23.1217 20.3938C24.7059 19.7914 25.968 18.5294 26.5703 16.9452C27.1728 18.5294 28.435 19.7914 30.0192 20.3938C28.435 20.9961 27.173 22.2579 26.5703 23.8424Z" fill="#0178A3"/>
<path d="M22.9438 8.20532C22.9438 7.99173 22.7688 7.8186 22.5552 7.8186C22.3416 7.8186 22.1685 7.99173 22.1685 8.20532C22.1685 9.6911 20.9599 10.8999 19.4739 10.8999C19.2603 10.8999 19.0872 11.0749 19.0872 11.2884C19.0872 11.502 19.2603 11.6752 19.4739 11.6752C20.9597 11.6752 22.1685 12.8838 22.1685 14.3697C22.1685 14.5833 22.3435 14.7564 22.5571 14.7564C22.7707 14.7564 22.9438 14.5833 22.9438 14.3697C22.9438 12.8839 24.1524 11.6752 25.6383 11.6752C25.8519 11.6752 26.025 11.502 26.025 11.2884V11.2866C26.025 11.073 25.8519 10.8999 25.6383 10.8999C24.1524 10.8997 22.9438 9.6911 22.9438 8.20532ZM22.5561 12.7808C22.2255 12.1419 21.7018 11.618 21.0627 11.2874C21.7016 10.9567 22.2255 10.433 22.5561 9.79392C22.8867 10.4328 23.4105 10.9567 24.0496 11.2874C23.4105 11.618 22.8867 12.1419 22.5561 12.7808Z" fill="#0178A3"/>
<path d="M34.5238 12.65C34.7374 12.65 34.9105 12.4769 34.9105 12.2633V12.2614C34.9105 12.0478 34.7374 11.8747 34.5238 11.8747C33.038 11.8747 31.8291 10.6661 31.8291 9.18018C31.8291 8.96658 31.6541 8.79346 31.4405 8.79346C31.2269 8.79346 31.0538 8.96658 31.0538 9.18018C31.0538 10.666 29.8452 11.8747 28.3593 11.8747C28.1457 11.8747 27.9725 12.0497 27.9725 12.2633C27.9725 12.4769 28.1457 12.65 28.3593 12.65C29.845 12.65 31.0538 13.8589 31.0538 15.3447C31.0538 15.5583 31.2288 15.7314 31.4424 15.7314C31.656 15.7314 31.8291 15.5583 31.8291 15.3447C31.8291 13.8589 33.038 12.65 34.5238 12.65ZM31.4414 13.756C31.1108 13.1171 30.5869 12.5931 29.948 12.2624C30.5868 11.9317 31.1108 11.4078 31.4414 10.7689C31.7722 11.4077 32.296 11.9317 32.935 12.2624C32.2961 12.5933 31.7722 13.1171 31.4414 13.756Z" fill="#0178A3"/>
</svg>
