<svg width="24" height="24" viewBox="0 0 24 24" fill="none" xmlns="http://www.w3.org/2000/svg">
<path d="M7.99974 3.99988C8.6664 4.66655 10.0037 4.54922 11.9998 2.90121L7.99974 3.99988ZM11.9998 2.90121C11.7046 2.65943 11.3984 2.38121 11.0811 2.06654C8.0064 -0.978814 3.81972 -0.38281 1.85838 2.06654C0.503708 3.75988 -2.96297 7.97324 5.52239 22.9867C5.87439 23.608 6.5744 24 7.32773 24C8.53041 24 9.47041 23.04 9.50908 21.92C9.59307 19.544 10.0531 16.804 11.9998 16.804C13.9464 16.804 14.4078 19.544 14.4904 21.92C14.5291 23.04 15.4691 24 16.6718 24C17.4251 24 18.1251 23.608 18.4771 22.9867C26.9638 7.9719 23.4958 3.75988 22.1411 2.06654C20.1798 -0.38281 15.9931 -0.978814 12.9184 2.06654C12.6011 2.38032 12.2949 2.65854 11.9998 2.90121Z" fill="#0178A3"/>
<path fill-rule="evenodd" clip-rule="evenodd" d="M17.8915 7.00583C18.0029 6.89821 18.0918 6.76948 18.1529 6.62714C18.2141 6.4848 18.2462 6.33171 18.2476 6.1768C18.2489 6.02189 18.2194 5.86827 18.1608 5.72489C18.1021 5.58151 18.0155 5.45125 17.9059 5.34171C17.7964 5.23217 17.6661 5.14554 17.5227 5.08688C17.3794 5.02822 17.2257 4.9987 17.0708 5.00004C16.9159 5.00139 16.7628 5.03357 16.6205 5.09472C16.4782 5.15586 16.3494 5.24474 16.2418 5.35617L10.4668 11.1312L7.99232 8.65666C7.884 8.54827 7.75539 8.46227 7.61384 8.40358C7.47228 8.34488 7.32055 8.31465 7.16731 8.31459C6.85783 8.31448 6.56098 8.43732 6.34207 8.65608C6.12316 8.87484 6.00011 9.1716 6 9.48108C5.99989 9.79056 6.12273 10.0874 6.34149 10.3063L9.55915 13.524C9.67832 13.6432 9.81982 13.7378 9.97556 13.8023C10.1313 13.8669 10.2982 13.9001 10.4668 13.9001C10.6354 13.9001 10.8023 13.8669 10.9581 13.8023C11.1138 13.7378 11.2553 13.6432 11.3745 13.524L17.8915 7.00583Z" fill="white"/>
</svg>
