<svg width="40" height="60" viewBox="0 0 40 60" fill="none" xmlns="http://www.w3.org/2000/svg">
<g clip-path="url(#clip0_101_1282)">
<g clip-path="url(#clip1_101_1282)">
<path d="M39.3353 29.8085C39.3353 40.4881 30.6775 49.142 19.998 49.142C9.32236 49.142 0.664551 40.4881 0.664551 29.8085C0.664551 19.129 9.32236 10.4712 19.998 10.4712C30.6777 10.4712 39.3353 19.129 39.3353 29.8085Z" fill="#D6EBFE"/>
<path d="M24.537 27.7889V25.8994C24.537 24.9188 25.332 24.1238 26.3127 24.1238L28.8949 24.1239C29.8755 24.1239 30.6705 24.9189 30.6705 25.8997V27.7892L24.537 27.7889Z" fill="white"/>
<path d="M24.537 25.9564C24.537 24.9442 23.7166 24.1238 22.7045 24.1238L10.5992 24.1233C9.58719 24.1233 8.76672 24.9438 8.76672 25.9558C8.76672 26.968 9.58719 27.7884 10.5992 27.7884L22.7045 27.7888C23.7166 27.7889 24.537 26.9684 24.537 25.9564Z" fill="#31C1B9"/>
<path d="M24.537 27.7891V28.7069C24.537 30.4006 25.91 31.7738 27.6038 31.7738C29.2975 31.7738 30.6705 30.4008 30.6705 28.707V27.7892L24.537 27.7891Z" fill="white"/>
<path d="M21.9007 41.9563C21.9007 43.1706 20.5532 46.2697 19.5099 48.4871C19.0807 49.3994 17.7693 49.3458 17.4103 48.4036C16.9805 47.2752 16.4597 46.0188 15.9924 45.1995C15.5241 46.0189 15.0024 47.2758 14.5722 48.4044C14.2132 49.3464 12.9019 49.3999 12.4728 48.4877C11.4296 46.2703 10.0819 43.171 10.0819 41.9566C10.0819 39.9774 11.6877 38.3716 13.6691 38.3716C14.5552 38.3716 15.3649 38.6931 15.9924 39.2239C16.6199 38.6931 17.4296 38.3716 18.3133 38.3716C20.2949 38.3713 21.9007 39.9771 21.9007 41.9563Z" fill="white"/>
<path d="M33.7193 41.9563C33.7193 43.1706 32.3718 46.2697 31.3285 48.4871C30.8993 49.3994 29.5879 49.3458 29.229 48.4036C28.7991 47.2752 28.2783 46.0188 27.811 45.1995C27.3427 46.0189 26.821 47.2758 26.3908 48.4044C26.0318 49.3464 24.7205 49.3999 24.2915 48.4877C23.2482 46.2703 21.9005 43.171 21.9005 41.9566C21.9005 39.9774 23.5063 38.3716 25.4877 38.3716C26.3738 38.3716 27.1835 38.6931 27.811 39.2239C28.4385 38.6931 29.2482 38.3716 30.1319 38.3716C32.1135 38.3713 33.7193 39.9771 33.7193 41.9563Z" fill="#31C1B9"/>
<path d="M8.76673 18.592H14.4877C14.7013 18.592 14.8744 18.4189 14.8744 18.2053C14.8744 17.9917 14.7013 17.8186 14.4877 17.8186H8.76673C7.18267 17.8186 5.89392 19.1074 5.89392 20.6914V23.4699C5.89392 24.9336 6.99517 26.1428 8.4122 26.3184C8.58611 27.37 9.49908 28.1753 10.5991 28.1753L22.7042 28.1756C23.2566 28.1756 23.7614 27.9716 24.1502 27.6364C24.1502 27.8277 24.1502 28.7466 24.1502 28.7069C24.1499 30.4813 25.4855 31.9453 27.2169 32.1372V35.6392C27.2169 35.8528 27.39 36.0259 27.6036 36.0259C27.8172 36.0259 27.9903 35.8528 27.9903 35.6392V32.1374C29.713 31.9444 31.057 30.4805 31.057 28.707C31.057 28.5317 31.057 25.7769 31.057 25.8997C31.057 24.7074 30.087 23.7374 28.8947 23.7374H26.3125C26.3124 23.7374 26.3124 23.7374 26.3122 23.7374C25.5992 23.7374 24.9355 24.0814 24.5228 24.688C24.1213 24.1141 23.4564 23.7372 22.7044 23.7372L10.5992 23.7369C9.5183 23.7369 8.61689 24.5139 8.4208 25.5384C7.42767 25.3727 6.66751 24.5095 6.66751 23.4702V20.6913C6.66751 19.5338 7.60923 18.592 8.76673 18.592ZM24.9239 25.8994C24.9239 25.132 25.5447 24.5106 26.3125 24.5106H26.3127H28.8949C29.6608 24.5106 30.2838 25.1338 30.2838 25.8995V27.4024C28.4094 27.4024 26.7981 27.4022 24.9239 27.4022V25.8994ZM24.9239 28.1756C26.7983 28.1756 28.4095 28.1758 30.2838 28.1758V28.7069C30.2838 30.1845 29.0816 31.3869 27.6038 31.3869C26.1222 31.3869 24.9238 30.188 24.9238 28.7067V28.1756H24.9239ZM10.5992 24.51L22.7044 24.5103C23.5017 24.5103 24.1503 25.1589 24.1503 25.9563C24.1503 26.7534 23.5017 27.402 22.7044 27.402L10.5992 27.4017C9.80205 27.4017 9.15345 26.7531 9.15345 25.9558C9.15345 25.1586 9.80205 24.51 10.5992 24.51Z" fill="#0178A3"/>
<path d="M26.7523 48.5417C27.1437 47.5147 27.498 46.6748 27.8103 46.0336C28.1234 46.6788 28.4823 47.5294 28.8675 48.5409C29.0902 49.1255 29.6159 49.5034 30.24 49.5272C30.8641 49.5508 31.4131 49.215 31.6783 48.6516C33.2891 45.228 34.1058 42.9755 34.1058 41.9561C34.1058 39.7661 32.3231 37.9844 30.132 37.9844C29.2991 37.9844 28.4862 38.2486 27.8111 38.7334C27.1355 38.2483 26.3219 37.9844 25.4878 37.9844C23.9048 37.9844 22.5391 38.9166 21.9006 40.2584C21.2622 38.9166 19.8964 37.9844 18.3134 37.9844C17.4805 37.9844 16.6677 38.2486 15.9925 38.7334C15.317 38.2486 14.5033 37.9844 13.6692 37.9844C11.478 37.9844 9.69531 39.7661 9.69531 41.9561C9.69531 42.975 10.5122 45.2278 12.1231 48.6519C12.3795 49.197 12.9031 49.5286 13.4998 49.5286C14.1466 49.5286 14.7025 49.1483 14.9337 48.5416C15.3194 47.5298 15.6789 46.6789 15.9925 46.0336C16.3041 46.6742 16.658 47.5137 17.0492 48.5408C17.2719 49.1252 17.7977 49.5033 18.4216 49.527C19.0478 49.5513 19.5947 49.2155 19.86 48.6514C20.8316 46.5866 21.512 44.9511 21.9008 43.7517C22.2897 44.9511 22.9702 46.5867 23.9417 48.6517C24.1981 49.1967 24.7219 49.5284 25.3184 49.5284C25.9662 49.5287 26.5216 49.1473 26.7523 48.5417ZM19.16 48.3223C19.027 48.6048 18.7648 48.7667 18.4508 48.7544C18.1375 48.7425 17.8837 48.5597 17.7717 48.2658C17.2177 46.812 16.732 45.7159 16.3281 45.0077C16.2594 44.8872 16.1312 44.8127 15.9923 44.8127C15.8536 44.8127 15.7252 44.887 15.6564 45.0075C15.2506 45.7175 14.7642 46.8139 14.2106 48.2666C14.0986 48.5603 13.8447 48.743 13.5314 48.7548C13.2219 48.7662 12.9553 48.6052 12.8225 48.3228C11.3044 45.0961 10.4683 42.8352 10.4683 41.9562C10.4683 40.1927 11.9041 38.758 13.6688 38.758C14.4259 38.758 15.1623 39.0281 15.7422 39.5189C15.8864 39.6409 16.0975 39.6409 16.2419 39.5189C16.8217 39.0281 17.5573 38.758 18.3131 38.758C20.0778 38.758 21.5136 40.1927 21.5136 41.9562C21.5139 42.8352 20.678 45.0961 19.16 48.3223ZM25.3502 48.7547C25.0386 48.7661 24.7741 48.605 24.6412 48.3227C23.1233 45.0962 22.2872 42.8352 22.2872 41.9561C22.2872 40.1925 23.723 38.7578 25.4877 38.7578C26.2447 38.7578 26.9811 39.028 27.5612 39.5187C27.7052 39.6408 27.9164 39.6403 28.0606 39.5187C28.6406 39.028 29.3761 38.7578 30.1319 38.7578C31.8966 38.7578 33.3322 40.1925 33.3322 41.9561C33.3322 42.835 32.4963 45.0959 30.9783 48.3222C30.8453 48.6045 30.5788 48.7662 30.2692 48.7542C29.9558 48.7423 29.702 48.5595 29.59 48.2656C29.0369 46.8134 28.5513 45.7173 28.1467 45.0077C28.078 44.887 27.9498 44.8123 27.8109 44.8123H27.8108C27.672 44.8123 27.5439 44.8867 27.475 45.0072C27.0695 45.7162 26.5831 46.813 26.0292 48.2661C25.9177 48.5602 25.6636 48.7428 25.3502 48.7547Z" fill="#0178A3"/>
</g>
</g>
<defs>
<clipPath id="clip0_101_1282">
<rect width="40" height="60" fill="white"/>
</clipPath>
<clipPath id="clip1_101_1282">
<rect width="40" height="40" fill="white" transform="translate(0 10)"/>
</clipPath>
</defs>
</svg>
