<svg width="70" height="71" viewBox="0 0 70 71" fill="none" xmlns="http://www.w3.org/2000/svg">
<path d="M23.3326 11.833C25.277 13.8052 29.1776 13.4581 34.9993 8.58274L23.3326 11.833ZM34.9993 8.58274C34.1385 7.86748 33.2454 7.0444 32.3198 6.11351C23.352 -2.89566 11.1409 -1.13248 5.42028 6.11351C1.46915 11.123 -8.642 23.5875 16.107 68.0022C17.1337 69.8403 19.1753 71 21.3726 71C24.8804 71 27.622 68.16 27.7348 64.8466C27.9798 57.8176 29.3215 49.7117 34.9993 49.7117C40.6771 49.7117 42.0226 57.8176 42.2638 64.8466C42.3765 68.16 45.1182 71 48.626 71C50.8232 71 52.8649 69.8403 53.8916 68.0022C78.6444 23.5836 68.5294 11.123 64.5783 6.11351C58.8577 -1.13248 46.6465 -2.89566 37.6787 6.11351C36.7532 7.04177 35.86 7.86485 34.9993 8.58274Z" fill="#43BBB5" fill-opacity="0.23"/>
</svg>
