<svg width="38" height="39" viewBox="0 0 38 39" fill="none" xmlns="http://www.w3.org/2000/svg">
<path d="M13.1663 7.83316C14.1385 8.80539 16.0888 8.63428 18.9996 6.23093M18.9996 6.23093C18.5693 5.87834 18.1227 5.47259 17.6599 5.0137C13.176 0.572564 7.07043 1.44174 4.21014 5.0137C2.23457 7.48316 -2.821 13.6276 9.55349 35.5222C10.0668 36.4283 11.0877 37 12.1863 37C13.9402 37 15.311 35.6 15.3674 33.9666C15.4899 30.5016 16.1607 26.5058 18.9996 26.5058C21.8385 26.5058 22.5113 30.5016 22.6319 33.9666C22.6883 35.6 24.0591 37 25.813 37C26.9116 37 27.9324 36.4283 28.4458 35.5222C40.8222 13.6257 35.7647 7.48316 33.7891 5.0137C30.9288 1.44174 24.8233 0.572564 20.3394 5.0137C19.8766 5.4713 19.43 5.87704 18.9996 6.23093Z" stroke="white" stroke-width="3" stroke-linecap="round" stroke-linejoin="round"/>
</svg>
