<svg width="80" height="81" viewBox="0 0 80 81" fill="none" xmlns="http://www.w3.org/2000/svg">
<g clip-path="url(#clip0_658_3282)">
<path d="M1.70762 40.0152C1.70574 46.8208 3.47574 53.4659 6.84137 59.3231L1.38574 79.3351L21.7707 73.9652C27.409 77.0488 33.7262 78.6646 40.1457 78.6651H40.1626C61.3548 78.6651 78.6057 61.3402 78.6148 40.0457C78.6189 29.727 74.6226 20.0239 67.362 12.7239C60.1026 5.42447 50.4479 1.40241 40.1611 1.39771C18.9664 1.39771 1.71668 18.7217 1.70793 40.0152" fill="url(#paint0_linear_658_3282)"/>
<path d="M0.334375 40.0027C0.332188 47.0532 2.16562 53.936 5.65125 60.0028L0 80.7322L21.1159 75.1699C26.9341 78.3568 33.4847 80.0371 40.1503 80.0396H40.1675C62.12 80.0396 79.9906 62.0915 80 40.0347C80.0038 29.3452 75.8637 19.2934 68.3438 11.7318C60.8228 4.17119 50.8228 0.00439535 40.1675 0C18.2112 0 0.343125 17.9456 0.334375 40.0027ZM12.9097 58.958L12.1212 57.7006C8.80687 52.4061 7.0575 46.2878 7.06 40.0052C7.06687 21.6719 21.9181 6.75628 40.18 6.75628C49.0238 6.76005 57.335 10.2236 63.5863 16.5077C69.8372 22.7924 73.2769 31.1467 73.2747 40.0322C73.2666 58.3655 58.415 73.2831 40.1675 73.2831H40.1544C34.2128 73.2799 28.3856 71.6769 23.3037 68.6475L22.0944 67.927L9.56375 71.2276L12.9097 58.958Z" fill="url(#paint1_linear_658_3282)"/>
<path d="M30.2121 23.279C29.4665 21.6141 28.6818 21.5805 27.9727 21.5513C27.3921 21.5262 26.7284 21.5281 26.0652 21.5281C25.4015 21.5281 24.323 21.779 23.4115 22.7789C22.499 23.7798 19.9277 26.1985 19.9277 31.1178C19.9277 36.0372 23.4943 40.7917 23.9915 41.4594C24.4893 42.126 30.8768 52.5442 40.993 56.5521C49.4005 59.8829 51.1115 59.2204 52.9362 59.0534C54.7612 58.887 58.8249 56.6353 59.654 54.3005C60.4837 51.9659 60.4837 49.9648 60.2349 49.5466C59.9862 49.13 59.3224 48.8797 58.3271 48.3799C57.3318 47.8801 52.4383 45.4608 51.5262 45.1271C50.6137 44.7936 49.9502 44.6272 49.2865 45.6284C48.6227 46.6281 46.7168 48.8797 46.1358 49.5466C45.5555 50.215 44.9746 50.2982 43.9796 49.7981C42.9837 49.2964 39.7784 48.2418 35.9755 44.8357C33.0168 42.1853 31.0193 38.9123 30.4387 37.9111C29.858 36.9115 30.3765 36.3696 30.8755 35.8714C31.3227 35.4234 31.8712 34.7038 32.3693 34.1202C32.8655 33.5362 33.0312 33.1196 33.363 32.4527C33.6952 31.7853 33.529 31.2013 33.2805 30.7012C33.0312 30.2011 31.0971 25.256 30.2121 23.279Z" fill="white"/>
</g>
<defs>
<linearGradient id="paint0_linear_658_3282" x1="3862.84" y1="7795.13" x2="3862.84" y2="1.39771" gradientUnits="userSpaceOnUse">
<stop stop-color="#1FAF38"/>
<stop offset="1" stop-color="#60D669"/>
</linearGradient>
<linearGradient id="paint1_linear_658_3282" x1="4000" y1="8073.22" x2="4000" y2="0" gradientUnits="userSpaceOnUse">
<stop stop-color="#F9F9F9"/>
<stop offset="1" stop-color="white"/>
</linearGradient>
<clipPath id="clip0_658_3282">
<rect width="80" height="81" fill="white"/>
</clipPath>
</defs>
</svg>
