<svg width="41" height="40" viewBox="0 0 41 40" fill="none" xmlns="http://www.w3.org/2000/svg">
<path d="M32.4066 8.18334C30.8784 6.64019 29.0583 5.41662 27.0524 4.58395C25.0466 3.75127 22.895 3.32615 20.7232 3.33334C11.6232 3.33334 4.20658 10.75 4.20658 19.85C4.20658 22.7667 4.97324 25.6 6.40658 28.1L4.07324 36.6667L12.8232 34.3667C15.2399 35.6833 17.9566 36.3833 20.7232 36.3833C29.8232 36.3833 37.2399 28.9667 37.2399 19.8667C37.2399 15.45 35.5232 11.3 32.4066 8.18334ZM20.7232 33.5833C18.2566 33.5833 15.8399 32.9167 13.7232 31.6667L13.2232 31.3667L8.02324 32.7333L9.40658 27.6667L9.07324 27.15C7.70249 24.9618 6.97478 22.4321 6.97324 19.85C6.97324 12.2833 13.1399 6.11668 20.7066 6.11668C24.3732 6.11668 27.8232 7.55001 30.4066 10.15C31.6859 11.4231 32.6998 12.9376 33.3893 14.6056C34.0788 16.2735 34.4302 18.0618 34.4232 19.8667C34.4566 27.4333 28.2899 33.5833 20.7232 33.5833ZM28.2566 23.3167C27.8399 23.1167 25.8066 22.1167 25.4399 21.9667C25.0566 21.8333 24.7899 21.7667 24.5066 22.1667C24.2232 22.5833 23.4399 23.5167 23.2066 23.7833C22.9732 24.0667 22.7232 24.1 22.3066 23.8833C21.8899 23.6833 20.5566 23.2333 18.9899 21.8333C17.7566 20.7333 16.9399 19.3833 16.6899 18.9667C16.4566 18.55 16.6566 18.3333 16.8732 18.1167C17.0566 17.9333 17.2899 17.6333 17.4899 17.4C17.6899 17.1667 17.7732 16.9833 17.9066 16.7167C18.0399 16.4333 17.9732 16.2 17.8732 16C17.7732 15.8 16.9399 13.7667 16.6066 12.9333C16.2732 12.1333 15.9232 12.2333 15.6732 12.2167H14.8732C14.5899 12.2167 14.1566 12.3167 13.7732 12.7333C13.4066 13.15 12.3399 14.15 12.3399 16.1833C12.3399 18.2167 13.8232 20.1833 14.0232 20.45C14.2232 20.7333 16.9399 24.9 21.0732 26.6833C22.0566 27.1167 22.8232 27.3667 23.4232 27.55C24.4066 27.8667 25.3066 27.8167 26.0232 27.7167C26.8232 27.6 28.4732 26.7167 28.8066 25.75C29.1566 24.7833 29.1566 23.9667 29.0399 23.7833C28.9232 23.6 28.6732 23.5167 28.2566 23.3167Z" fill="#0178A3"/>
</svg>
