<svg width="80" height="80" viewBox="0 0 80 80" fill="none" xmlns="http://www.w3.org/2000/svg">
<path d="M39.1884 14.4654C40.7665 13.4868 42.1297 12.6418 44.8098 11.9112C47.0492 11.3006 49.1153 11.1214 50.965 11.3487C48.3103 9.76138 44.8236 9.46075 40.7725 10.5653C38.0923 11.2968 36.7294 12.1406 35.1511 13.1197C34.1489 13.7638 33.1096 14.3481 32.0386 14.8697C33.6212 15.5442 35.0326 15.9478 36.3211 16.0954C37.3047 15.6025 38.2618 15.0585 39.1884 14.4654Z" fill="#31C1B9"/>
<path d="M22.0625 62.3675C22.061 62.3519 22.0558 62.3024 22.0483 62.2219C19.3972 57.4519 18.7996 50.4517 19.2278 44.8494C19.2649 44.3664 19.3025 43.9175 19.3372 43.4984C19.5638 40.8039 19.7007 39.1775 18.7893 37.7052C17.9121 36.2881 16.1243 35.1739 12.6918 33.3569C10.7996 32.3552 9.35472 30.3452 8.62332 27.6974C7.90499 25.0013 7.9666 22.1567 8.80097 19.4942C9.63675 16.8839 11.1719 14.7813 13.2408 13.4159C15.6577 11.8208 18.7118 11.2545 22.3189 11.7331C22.4461 11.75 22.5752 11.7709 22.7049 11.7938C21.1997 11.1152 19.6646 10.5706 18.2816 10.3875C14.6741 9.90891 11.62 10.4752 9.20347 12.0703C7.13426 13.4363 5.59941 15.5391 4.76488 18.1484C3.9305 20.8109 3.8689 23.6555 4.58722 26.3516C5.31863 29 6.76347 31.0094 8.65629 32.0111C12.088 33.8281 13.876 34.9424 14.7532 36.3594C15.6646 37.8317 15.5277 39.4581 15.3011 42.1527C15.2658 42.5717 15.228 43.0206 15.1918 43.5036C14.6738 50.2789 15.653 59.1025 19.9555 63.548C20.1071 63.6563 20.2768 63.7366 20.4568 63.785C20.6574 63.8651 20.8759 63.8895 21.0893 63.8554C21.3026 63.8214 21.5028 63.7303 21.6685 63.5917C21.8342 63.4532 21.9594 63.2724 22.0307 63.0684C22.102 62.8645 22.1168 62.6451 22.0735 62.4334C22.0688 62.4116 22.0655 62.3895 22.0625 62.3675Z" fill="#31C1B9"/>
<path d="M45.3013 54.6436C45.0602 54.5827 44.8048 54.6201 44.5913 54.7476C44.3778 54.875 44.2237 55.082 44.1628 55.3231C43.3428 58.5711 42.0691 61.1044 40.3847 62.8453C40.2477 62.9372 40.0969 63.0067 39.938 63.0512C39.7633 63.1223 39.5726 63.1445 39.3863 63.1156C39.1999 63.0867 39.025 63.0077 38.88 62.8871C38.7351 62.7665 38.6256 62.6088 38.5633 62.4308C38.5011 62.2528 38.4883 62.0612 38.5264 61.8765C38.5313 61.8509 38.535 61.8251 38.5377 61.7994C38.7686 59.0906 38.7791 56.3675 38.5689 53.657C38.5504 53.4091 38.4342 53.1786 38.2458 53.0163C38.0574 52.8541 37.8123 52.7733 37.5643 52.7918C37.3164 52.8103 37.0859 52.9265 36.9236 53.1149C36.7614 53.3033 36.6806 53.5484 36.6991 53.7964C36.8945 56.3849 36.8866 58.9847 36.6755 61.572C36.5991 61.9931 36.6168 62.4258 36.7275 62.8391C36.8381 63.2525 37.0389 63.6363 37.3154 63.9628C37.5918 64.2894 37.9372 64.5508 38.3267 64.7281C38.7161 64.9054 39.14 64.9943 39.5678 64.9884C39.9012 64.9884 40.2323 64.9329 40.5475 64.8242C40.9863 64.6961 41.3892 64.4675 41.7241 64.1564C43.6469 62.1697 45.0789 59.3522 45.9802 55.7814C46.0409 55.5405 46.0035 55.2853 45.8762 55.072C45.7489 54.8587 45.5421 54.7046 45.3013 54.6436Z" fill="white"/>
<path d="M54.3435 12.1456C52.0816 9.57748 47.8112 6.94529 40.3106 8.98935C37.4223 9.7767 35.9082 10.7156 34.3052 11.7095C33.0654 12.5158 31.7578 13.2129 30.3973 13.7928C30.3521 13.8117 30.3081 13.8328 30.2651 13.8553C29.8815 13.6458 29.4165 13.3775 28.9004 13.0794C26.2395 11.5428 22.2182 9.21998 18.7993 8.76685C11.3568 7.78123 5.66665 11.0895 3.57946 17.6189C1.58024 23.8737 3.67978 30.9353 8.25993 33.3601C11.2999 34.9695 12.9631 35.9794 13.614 37.032C14.2118 37.9979 14.1015 39.3097 13.9012 41.6911C13.8662 42.1087 13.8285 42.5562 13.7918 43.0376C13.4949 46.9294 13.7088 50.9475 14.3957 54.3518C15.254 58.6047 16.7951 61.9037 18.976 64.1572C19.311 64.4682 19.7138 64.6969 20.1526 64.825C20.4678 64.9337 20.799 64.9892 21.1324 64.9892C21.5603 64.9951 21.9841 64.9061 22.3736 64.7288C22.763 64.5515 23.1083 64.2901 23.3848 63.9636C23.6613 63.637 23.862 63.2532 23.9726 62.8399C24.0833 62.4265 24.101 61.9938 24.0246 61.5728C23.9507 60.7994 22.7059 46.6986 28.6946 39.4087C28.8985 39.1607 29.156 38.9622 29.4477 38.8283C29.6733 38.7236 29.8481 38.5337 29.9336 38.3002C30.0191 38.0667 30.0083 37.8088 29.9037 37.5833C29.799 37.3577 29.6091 37.1829 29.3756 37.0974C29.1421 37.0119 28.8842 37.0227 28.6587 37.1273C28.1122 37.381 27.6294 37.7539 27.2459 38.2186C24.4462 41.6264 22.741 46.6412 22.1779 53.1237C21.9213 56.0102 21.9164 58.9135 22.1631 61.8008C22.1659 61.8264 22.1695 61.8519 22.1743 61.8773C22.2157 62.0912 22.1916 62.3127 22.1051 62.5126C21.9892 62.754 21.7872 62.9432 21.5388 63.043C21.2903 63.1428 21.0136 63.146 20.7629 63.052C20.6079 63.0063 20.46 62.9393 20.3234 62.8531C17.5607 59.9987 14.8859 53.3317 15.6613 43.1812C15.6977 42.705 15.7351 42.2622 15.7698 41.8489C15.9959 39.1614 16.1323 37.5384 15.2084 36.0459C14.3204 34.6111 12.6177 33.547 9.13728 31.7044C5.38618 29.7186 3.65899 23.5301 5.36571 18.1911C6.22431 15.5051 9.22837 9.39185 18.5532 10.6286C21.6032 11.0331 25.4304 13.2434 27.9631 14.7067C28.7267 15.1478 29.3862 15.5286 29.8759 15.7722C32.239 16.9472 35.7859 18.4306 39.2923 17.7462C39.414 17.7236 39.5301 17.6771 39.6338 17.6094C39.7375 17.5416 39.8267 17.454 39.8963 17.3516C39.966 17.2492 40.0146 17.134 40.0395 17.0127C40.0644 16.8914 40.0649 16.7663 40.0412 16.6448C40.0175 16.5232 39.9699 16.4076 39.9012 16.3046C39.8325 16.2015 39.7441 16.1131 39.641 16.0444C39.538 15.9757 39.4224 15.9281 39.3008 15.9044C39.1793 15.8806 39.0542 15.8812 38.9329 15.9061C37.1017 16.2631 35.0234 15.944 32.4896 14.9037C33.451 14.4197 34.3868 13.8865 35.2934 13.3062C36.8415 12.3464 38.1785 11.5172 40.8037 10.8015C46.0029 9.38451 50.1982 10.2787 52.9363 13.3878C56.4288 17.3533 56.5701 23.7003 54.9299 27.6586C54.8828 27.7723 54.8585 27.8942 54.8585 28.0173C54.8585 28.1404 54.8827 28.2624 54.9298 28.3761C54.9769 28.4899 55.046 28.5932 55.133 28.6803C55.22 28.7674 55.3234 28.8364 55.4371 28.8836C55.5509 28.9307 55.6728 28.955 55.7959 28.955C55.919 28.955 56.0409 28.9308 56.1547 28.8837C56.2684 28.8366 56.3718 28.7675 56.4588 28.6805C56.5459 28.5935 56.615 28.4901 56.6621 28.3764C58.5657 23.7792 58.3806 16.7297 54.3435 12.1456Z" fill="white"/>
<path d="M75.7386 63.3811L64.5542 52.1968C64.3784 52.021 64.14 51.9223 63.8914 51.9223C63.6427 51.9223 63.4043 52.021 63.2285 52.1968L61.0953 54.33L57.6671 50.9017C60.575 47.6489 62.0996 43.3901 61.9168 39.0308C61.7339 34.6714 59.858 30.5553 56.6878 27.5575C53.5177 24.5596 49.3032 22.9164 44.9405 22.9772C40.5778 23.038 36.4108 24.798 33.3254 27.883C30.24 30.9681 28.4795 35.1349 28.4182 39.4976C28.3568 43.8603 29.9995 48.0749 32.997 51.2455C35.9945 54.416 40.1104 56.2924 44.4697 56.4758C48.829 56.6592 53.088 55.135 56.3411 52.2275L59.7694 55.6562L57.6363 57.7893C57.4605 57.9651 57.3617 58.2036 57.3617 58.4522C57.3617 58.7009 57.4605 58.9393 57.6363 59.1151L68.8207 70.2995C69.738 71.2169 70.9823 71.7322 72.2796 71.7322C73.577 71.7322 74.8212 71.2169 75.7386 70.2995C76.656 69.3821 77.1714 68.1379 77.1714 66.8405C77.1714 65.5431 76.656 64.2989 75.7386 63.3815V63.3811ZM45.1761 54.6154C41.7292 54.617 38.3883 53.4232 35.723 51.2374C33.0577 49.0516 31.2329 46.0092 30.5596 42.6286C29.8864 39.248 30.4063 35.7386 32.0308 32.6985C33.6553 29.6583 36.2839 27.2756 39.4685 25.9565C42.6531 24.6374 46.1965 24.4636 49.495 25.4646C52.7934 26.4655 55.6426 28.5794 57.5569 31.4459C59.4713 34.3124 60.3323 37.7541 59.9933 41.1843C59.6542 44.6146 58.136 47.8211 55.6975 50.2573C54.319 51.6434 52.6793 52.7423 50.8732 53.4904C49.0671 54.2385 47.1305 54.621 45.1757 54.6156L45.1761 54.6154ZM63.8919 54.1854L65.3621 55.6556L61.0964 59.9212L59.6261 58.4511L63.8919 54.1854ZM74.4132 68.9729C73.8475 69.5385 73.0803 69.8562 72.2803 69.8562C71.4804 69.8562 70.7132 69.5385 70.1475 68.9729L62.4217 61.2479L66.6882 56.9823L74.4133 64.7075C74.9789 65.2732 75.2966 66.0403 75.2966 66.8403C75.2966 67.6402 74.9789 68.4074 74.4133 68.9731L74.4132 68.9729Z" fill="white"/>
</svg>
