<svg width="80" height="80" viewBox="0 0 80 80" fill="none" xmlns="http://www.w3.org/2000/svg">
<path d="M44.9009 60.4549C44.3309 53.7288 42.5965 48.516 39.7461 44.9593C39.3611 44.4811 38.8731 44.096 38.3184 43.8328C37.7638 43.5696 37.1568 43.4351 36.5429 43.4393C36.2145 43.4395 35.8873 43.4782 35.5679 43.5546C35.5724 43.5603 35.5773 43.5656 35.5821 43.5713C38.4326 47.1278 40.167 52.3413 40.7371 59.0667C40.9976 62.0634 41.0005 65.0769 40.7457 68.0741C40.7433 68.097 40.7401 68.1199 40.7358 68.1425C40.6911 68.3608 40.7064 68.5871 40.7799 68.7975C40.8534 69.0078 40.9825 69.1944 41.1534 69.3373C41.3243 69.4802 41.5308 69.5742 41.7508 69.6094C41.9708 69.6445 42.1963 69.6194 42.4032 69.5368C42.5893 69.4868 42.7649 69.4036 42.9214 69.2912C43.7811 68.3846 44.5088 67.3613 45.0828 66.2515C45.1229 64.3175 45.0622 62.3826 44.9009 60.4549Z" fill="#31C1B9"/>
<path d="M23.9241 68.0745C23.9224 68.0587 23.9172 68.0072 23.9099 67.9243C21.1754 63.0042 20.5591 55.7841 21.0008 50.0057C21.0389 49.508 21.0779 49.0446 21.1146 48.6122C21.3484 45.833 21.4894 44.1555 20.5493 42.6369C19.6447 41.1754 17.8006 40.0261 14.2603 38.1519C12.3088 37.1187 10.8191 35.0455 10.0642 32.3144C9.32327 29.5336 9.38678 26.5996 10.2473 23.8535C11.1081 21.1608 12.6912 18.9926 14.8254 17.5839C17.3182 15.9386 20.4683 15.3544 24.1889 15.848C24.3203 15.8655 24.4533 15.8871 24.5871 15.9106C23.0345 15.2107 21.4512 14.6491 20.0248 14.4601C16.304 13.9666 13.1539 14.5507 10.6613 16.1958C8.52702 17.6048 6.94392 19.7728 6.08248 22.4656C5.22188 25.2117 5.15832 28.1457 5.89919 30.9265C6.65355 33.6575 8.14379 35.7308 10.0955 36.7639C13.6362 38.6381 15.4798 39.7873 16.3845 41.2489C17.3246 42.7676 17.1834 44.445 16.9497 47.2241C16.9133 47.6564 16.8744 48.12 16.836 48.6177C16.3017 55.606 17.3118 64.7069 21.7494 69.292C21.9057 69.4037 22.0807 69.4865 22.2662 69.5364C22.4731 69.619 22.6985 69.644 22.9184 69.6089C23.1384 69.5738 23.3448 69.4799 23.5157 69.337C23.6866 69.1942 23.8157 69.0078 23.8893 68.7976C23.9629 68.5873 23.9783 68.3611 23.9338 68.1429C23.9298 68.1198 23.9266 68.0972 23.9241 68.0745Z" fill="#31C1B9"/>
<path d="M9.81135 37.9743C12.9508 39.6363 14.6696 40.6819 15.3516 41.7837C15.9846 42.8062 15.8702 44.1662 15.6625 46.635C15.6266 47.0636 15.5879 47.523 15.5502 48.0172C15.2453 52.0039 15.4649 56.1196 16.1685 59.6065C17.0457 63.9532 18.6187 67.3228 20.8437 69.6219C21.095 69.8812 21.4759 70.0967 22.0087 70.2801C22.3211 70.3879 22.6492 70.4429 22.9797 70.4428C23.4034 70.4487 23.8232 70.3607 24.2088 70.185C24.5945 70.0093 24.9364 69.7504 25.21 69.4267C25.4836 69.1031 25.6821 68.7229 25.7911 68.3133C25.9002 67.9038 25.9172 67.4753 25.8408 67.0584C25.7677 66.3008 24.4656 51.7535 30.6607 44.2127C30.8865 43.9452 31.1683 43.7306 31.4862 43.5839C31.8041 43.4372 32.1503 43.3621 32.5004 43.3638C32.8505 43.3656 33.1959 43.4442 33.5123 43.594C33.8287 43.7439 34.1084 43.9613 34.3315 44.2311C40.405 51.8094 39.1226 66.3006 39.0501 67.059C38.9501 67.6237 39.0185 68.2054 39.2467 68.7315C39.839 70.0977 41.4366 70.7779 42.8825 70.28C43.4152 70.0965 43.7962 69.8818 44.0475 69.6217C46.2725 67.3228 47.8454 63.9532 48.7226 59.6065C49.426 56.1199 49.6457 52.0042 49.3409 48.0172C49.3074 47.5799 49.2736 47.1698 49.2413 46.7839C48.9701 43.4909 48.9332 42.3954 49.9537 41.2689L48.6892 40.1232C47.1231 41.8519 47.2714 43.6535 47.5408 46.9238C47.5722 47.3066 47.6058 47.7136 47.6389 48.1467C48.4393 58.608 45.6755 65.4862 42.8235 68.4326C42.6729 68.5388 42.5049 68.6179 42.3271 68.6661C42.1295 68.7453 41.9142 68.7695 41.7041 68.7362C41.4939 68.7028 41.2967 68.6132 41.1334 68.4767C40.97 68.3403 40.8467 68.1622 40.7765 67.9613C40.7062 67.7605 40.6917 67.5443 40.7344 67.3358C40.7387 67.3127 40.7423 67.2892 40.7447 67.2657C40.9951 64.3186 40.9922 61.3553 40.7361 58.4086C40.1753 51.793 38.4686 46.664 35.6633 43.1636C35.2814 42.6957 34.8007 42.318 34.2557 42.0576C33.7107 41.7972 33.1149 41.6604 32.5109 41.6572C31.9069 41.6539 31.3097 41.7842 30.7619 42.0387C30.2141 42.2932 29.7294 42.6656 29.3423 43.1293C26.4816 46.6115 24.7388 51.7414 24.1625 58.3762C23.8994 61.3335 23.8942 64.3081 24.147 67.2663C24.1495 67.2896 24.1529 67.3128 24.1572 67.3357C24.1999 67.5442 24.1854 67.7603 24.1152 67.9612C24.045 68.1621 23.9217 68.3403 23.7583 68.4767C23.595 68.6132 23.3978 68.7028 23.1876 68.7362C22.9774 68.7696 22.7621 68.7454 22.5646 68.6663C22.3878 68.6178 22.2206 68.5395 22.0702 68.4348C19.2159 65.4862 16.4517 58.608 17.2515 48.1471C17.289 47.6577 17.3273 47.2027 17.363 46.778C17.5932 44.0401 17.7327 42.3875 16.8025 40.8854C15.9039 39.4337 14.1658 38.3487 10.6094 36.4661C8.70036 35.4555 7.24211 33.426 6.50339 30.7519C5.7773 28.0261 5.83962 25.1501 6.68313 22.4583C7.57315 19.6736 10.6849 13.3343 20.3443 14.6161C23.4978 15.0342 27.44 17.3104 30.0475 18.8166C30.5462 19.1045 30.9768 19.3532 31.3594 19.565L32.1853 18.0719C31.8164 17.868 31.3921 17.6228 30.9008 17.3391C28.1759 15.7655 24.0579 13.3874 20.5687 12.9246C12.982 11.9193 7.18381 15.288 5.05794 21.9389C3.02009 28.315 5.15236 35.5078 9.81135 37.9743Z" fill="white"/>
<path d="M49.9459 2.8822C39.2825 2.8822 30.6069 11.5579 30.6069 22.2215C30.6069 32.8851 39.2825 41.5608 49.9459 41.5608C60.6094 41.5608 69.285 32.8852 69.285 22.2215C69.285 11.5577 60.6096 2.8822 49.9459 2.8822ZM49.9459 39.8544C46.4585 39.8544 43.0495 38.8202 40.1498 36.8827C37.2501 34.9451 34.9901 32.1913 33.6555 28.9693C32.3209 25.7473 31.9718 22.2019 32.6521 18.7815C33.3325 15.361 35.0118 12.2192 37.4778 9.75316C39.9438 7.28716 43.0856 5.60779 46.506 4.92742C49.9264 4.24705 53.4717 4.59624 56.6937 5.93083C59.9156 7.26542 62.6694 9.52547 64.6069 12.4252C66.5444 15.3249 67.5786 18.734 67.5786 22.2215C67.5733 26.8964 65.7139 31.3783 62.4083 34.684C59.1027 37.9896 54.6208 39.8491 49.9459 39.8544Z" fill="white"/>
<path d="M61.9917 17.2749C61.2506 13.6012 58.5821 11.2274 55.1935 11.2274C53.5145 11.2274 51.7129 11.8403 49.9519 13.0058C48.1684 11.7873 46.3932 11.1704 44.6672 11.1704C41.258 11.1704 38.6 13.5703 37.8959 17.2829C36.8904 22.5237 40.0405 29.4644 49.3447 33.156C49.3589 33.1617 49.3739 33.1671 49.3888 33.1721C49.747 33.3069 50.142 33.3069 50.5002 33.1721C50.5171 33.1666 50.5338 33.1603 50.5503 33.1536C59.8516 29.3853 62.9995 22.4664 61.9928 17.2811L61.9917 17.2749ZM49.9442 31.5578C41.5687 28.2232 38.6997 22.1493 39.5721 17.6024C40.125 14.6873 42.0772 12.8765 44.6672 12.8765C46.1582 12.8765 47.8067 13.5183 49.4344 14.7325C49.5803 14.8413 49.7571 14.9006 49.939 14.9018C50.121 14.903 50.2985 14.846 50.4457 14.7391C52.0732 13.558 53.715 12.9331 55.1935 12.9331C57.772 12.9331 59.7356 14.7249 60.3185 17.6088C61.5254 23.8396 55.9845 29.0996 49.9442 31.5578Z" fill="white"/>
</svg>
