<svg width="80" height="80" viewBox="0 0 80 80" fill="none" xmlns="http://www.w3.org/2000/svg">
<path d="M51.8928 18.8813C53.5447 17.8571 54.9709 16.9725 57.7764 16.2079C60.1201 15.5688 62.2829 15.3811 64.2189 15.6193C61.4403 13.9579 57.7909 13.6432 53.5506 14.7993C50.7454 15.564 49.3189 16.4485 47.667 17.4727C46.6181 18.1469 45.5302 18.7584 44.4092 19.3043C46.0654 20.0104 47.5429 20.433 48.8915 20.5872C49.921 20.0714 50.9228 19.502 51.8928 18.8813Z" fill="#31C1B9"/>
<path d="M55.2548 61.2863C54.6767 54.4616 52.9164 49.1711 50.0237 45.5617C49.6331 45.0766 49.1379 44.6859 48.5751 44.4188C48.0124 44.1517 47.3966 44.0152 46.7737 44.0194C46.4404 44.0196 46.1083 44.0589 45.7842 44.1364C45.7889 44.1422 45.7939 44.1475 45.7984 44.1533C48.6911 47.7627 50.4511 53.053 51.0295 59.8777C51.294 62.9187 51.297 65.9768 51.0384 69.0183C51.0361 69.0416 51.0326 69.0652 51.0282 69.0878C50.983 69.3093 50.9985 69.5389 51.0732 69.7523C51.1478 69.9657 51.2788 70.1549 51.4522 70.2999C51.6257 70.4449 51.8351 70.5403 52.0583 70.576C52.2816 70.6116 52.5103 70.5863 52.7203 70.5025C52.9092 70.4519 53.0874 70.3674 53.2462 70.2533C54.1185 69.3333 54.8567 68.295 55.439 67.1689C55.48 65.2062 55.4185 63.2426 55.2548 61.2863Z" fill="#31C1B9"/>
<path d="M33.9688 69.0188C33.9671 69.0032 33.9617 68.9505 33.9539 68.8663C31.1789 63.8736 30.5535 56.5468 31.0019 50.6832C31.0405 50.1775 31.08 49.7077 31.1169 49.2689C31.3541 46.4488 31.4974 44.7466 30.5433 43.2055C29.6253 41.7224 27.7539 40.5561 24.1614 38.6543C22.1808 37.6058 20.6686 35.5019 19.903 32.7307C19.1513 29.9088 19.2158 26.9317 20.0889 24.145C20.9625 21.4125 22.5689 19.2124 24.7347 17.7827C27.2642 16.1132 30.461 15.5205 34.2367 16.0213C34.37 16.0389 34.505 16.061 34.6406 16.0849C33.0653 15.3746 31.4585 14.8047 30.011 14.6127C26.2352 14.1127 23.0385 14.7046 20.5089 16.3741C18.3431 17.8038 16.7367 20.0039 15.8631 22.7364C14.99 25.5231 14.9255 28.5003 15.6772 31.3221C16.4428 34.0933 17.955 36.1971 19.9356 37.2457C23.5281 39.1475 25.3996 40.3138 26.3175 41.7969C27.2716 43.338 27.1283 45.0402 26.8911 47.8603C26.8542 48.2991 26.8147 48.7689 26.7761 49.2746C26.2339 56.366 27.2589 65.6014 31.7621 70.2543C31.9208 70.3676 32.0985 70.4515 32.2867 70.5022C32.5881 70.6142 32.9206 70.6093 33.2185 70.4883C33.5164 70.3673 33.7582 70.1391 33.8961 69.8486C33.9996 69.6091 34.0286 69.3439 33.9792 69.0877C33.9739 69.0649 33.9706 69.0419 33.9688 69.0188Z" fill="#31C1B9"/>
<path d="M19.2765 38.848C22.5041 40.5567 24.2704 41.6302 24.9666 42.7542C25.6091 43.7924 25.4918 45.1878 25.2791 47.721C25.2419 48.1632 25.2021 48.6367 25.1632 49.1463C24.8483 53.2621 25.0752 57.5111 25.8016 61.1108C26.7079 65.6035 28.3351 69.0872 30.6369 71.4657C31.0979 71.9372 31.6978 72.2488 32.3486 72.3549C32.9995 72.461 33.6673 72.356 34.2541 72.0552C34.841 71.7545 35.3163 71.2738 35.6103 70.6835C35.9043 70.0932 36.0017 69.4243 35.8882 68.7747C35.8111 67.9758 34.4769 53.0161 40.8449 45.2647C41.0723 44.9955 41.356 44.7796 41.676 44.632C41.996 44.4844 42.3444 44.4088 42.6968 44.4106C43.0491 44.4123 43.3968 44.4914 43.7153 44.6421C44.0338 44.7929 44.3153 45.0117 44.5401 45.2832C50.7824 53.0722 49.4691 67.9742 49.3929 68.7753C49.3131 69.2133 49.3314 69.6635 49.4463 70.0935C49.5612 70.5236 49.7699 70.9229 50.0575 71.2627C50.345 71.6025 50.7042 71.8744 51.1094 72.0589C51.5145 72.2434 51.9554 72.3359 52.4005 72.3297C52.7475 72.3297 53.092 72.2719 53.4201 72.1588C53.8764 72.026 54.2956 71.7887 54.6443 71.4657C56.946 69.0872 58.5729 65.6035 59.4796 61.1108C60.206 57.511 60.4327 53.2619 60.118 49.1463C60.0793 48.6391 60.0399 48.1675 60.0027 47.7274C59.7897 45.1931 59.6724 43.7971 60.3152 42.7586C61.0104 41.6357 62.7769 40.5602 66.0055 38.8464C68.6101 37.4639 70.5465 34.5041 71.318 30.7261C72.0607 27.09 71.6538 23.1514 70.2016 19.9203C70.1518 19.807 70.0801 19.7047 69.9906 19.6192C69.901 19.5337 69.7954 19.4668 69.6799 19.4224C69.5644 19.3779 69.4412 19.3568 69.3174 19.3602C69.1937 19.3636 69.0719 19.3915 68.959 19.4423C68.8461 19.493 68.7443 19.5656 68.6596 19.6559C68.5749 19.7461 68.5089 19.8523 68.4655 19.9682C68.422 20.0841 68.4019 20.2075 68.4064 20.3312C68.4108 20.4549 68.4398 20.5765 68.4915 20.6889C69.786 23.5696 70.1468 27.0913 69.481 30.3508C68.8218 33.5785 67.2344 36.0713 65.1263 37.1902C57.8524 41.0511 57.6363 41.9567 58.1343 47.8838C58.1708 48.3197 58.2101 48.7867 58.2485 49.2888C59.0718 60.0544 56.2305 67.13 53.3015 70.1566C53.1516 70.2599 52.9854 70.3372 52.8099 70.3855C52.5313 70.4895 52.2239 70.4855 51.9482 70.3742C51.6725 70.2629 51.4484 70.0525 51.3201 69.7842C51.2241 69.5623 51.1974 69.3165 51.2432 69.0791C51.248 69.0536 51.2518 69.0278 51.2544 69.0021C51.5131 65.9598 51.5102 62.9009 51.2458 59.8591C50.6668 53.0269 48.9021 47.7281 46.0032 44.1102C45.604 43.621 45.1016 43.2262 44.532 42.9539C43.9623 42.6816 43.3395 42.5386 42.7082 42.5351C42.0768 42.5317 41.4525 42.6679 40.8799 42.9339C40.3073 43.2 39.8007 43.5893 39.3961 44.0741C36.439 47.6736 34.6377 52.9732 34.0426 59.8258C33.7711 62.8785 33.7659 65.9491 34.0269 69.0027C34.0297 69.0283 34.0335 69.0538 34.0382 69.0791C34.084 69.3165 34.0572 69.5622 33.9613 69.7841C33.833 70.0523 33.6089 70.2628 33.3332 70.3741C33.0574 70.4854 32.75 70.4895 32.4715 70.3855C32.2984 70.3365 32.1341 70.2608 31.9844 70.1611C29.051 67.1299 26.2097 60.0552 27.0329 49.2888C27.0715 48.7844 27.111 48.3153 27.1477 47.8777C27.6466 41.9475 27.4304 41.0419 20.1543 37.1902C18.2002 36.1557 16.7068 34.076 15.9494 31.3342C15.2037 28.5347 15.2678 25.581 16.1341 22.8164C17.0469 19.9599 20.241 13.4563 30.1563 14.7713C33.3966 15.2011 37.4547 17.5446 40.1407 19.0953C40.9483 19.5619 41.646 19.9647 42.1627 20.2217C44.6576 21.4624 48.4021 23.0285 52.098 22.3074C52.2189 22.2838 52.3339 22.2366 52.4365 22.1686C52.5391 22.1005 52.6273 22.0129 52.696 21.9108C52.7648 21.8087 52.8128 21.694 52.8372 21.5733C52.8616 21.4527 52.8621 21.3284 52.8385 21.2075C52.8149 21.0867 52.7677 20.9717 52.6997 20.8691C52.6316 20.7665 52.5441 20.6783 52.4419 20.6095C52.3398 20.5407 52.2251 20.4928 52.1045 20.4683C51.9838 20.4439 51.8595 20.4435 51.7386 20.4671C49.7619 20.8528 47.5165 20.4975 44.7732 19.3553C45.828 18.8308 46.8535 18.2493 47.8452 17.6135C49.4882 16.5947 50.9077 15.7149 53.6944 14.955C57.5527 13.9035 60.8663 14.0397 63.5438 15.36C63.7666 15.4684 64.0232 15.4841 64.2576 15.4038C64.4919 15.3236 64.685 15.1538 64.7946 14.9316C64.9042 14.7094 64.9214 14.4529 64.8424 14.2181C64.7634 13.9833 64.5947 13.7893 64.3732 13.6785C61.2732 12.1494 57.5146 11.9702 53.2013 13.1461C50.1507 13.9777 48.551 14.9697 46.8576 16.0199C45.5426 16.8752 44.1557 17.6146 42.7125 18.2296C42.6575 18.2529 42.6038 18.2793 42.5516 18.3086C42.1397 18.0844 41.6371 17.7944 41.0783 17.4717C38.2647 15.8467 34.0126 13.3913 30.4035 12.9125C22.5501 11.8708 16.5485 15.3603 14.3474 22.2463C12.2382 28.845 14.4494 36.2925 19.2765 38.848Z" fill="white"/>
<path d="M7.15894 52.8541C7.31428 52.8542 7.46721 52.8157 7.60399 52.742C7.74077 52.6684 7.8571 52.5619 7.94254 52.4322C8.48766 51.5998 9.26763 50.948 10.1836 50.5593C11.0996 50.1707 12.1103 50.0628 13.0877 50.2492C13.3006 50.2894 13.5209 50.2546 13.7111 50.1507C13.9013 50.0468 14.0496 49.8803 14.1308 49.6794C14.212 49.4785 14.2212 49.2556 14.1566 49.0487C14.092 48.8419 13.9578 48.6638 13.7768 48.5447C12.9442 47.9996 12.2923 47.2195 11.9036 46.3034C11.5149 45.3873 11.4071 44.3764 11.5936 43.3989C11.6339 43.1859 11.5992 42.9655 11.4953 42.7753C11.3914 42.585 11.2248 42.4367 11.0238 42.3554C10.8228 42.2742 10.5999 42.2651 10.393 42.3297C10.1861 42.3943 10.008 42.5287 9.88894 42.7098C9.34376 43.5422 8.56377 44.1939 7.64781 44.5825C6.73185 44.9711 5.72115 45.079 4.74379 44.8927C4.53085 44.8524 4.31055 44.8872 4.12037 44.9911C3.93019 45.095 3.78188 45.2616 3.70066 45.4625C3.61944 45.6634 3.61033 45.8863 3.67488 46.0931C3.73943 46.3 3.87366 46.4781 4.05473 46.5972C4.88711 47.1423 5.53891 47.9223 5.92751 48.8383C6.31611 49.7542 6.42401 50.765 6.23754 51.7423C6.21192 51.8778 6.21649 52.0172 6.25092 52.1507C6.28536 52.2842 6.3488 52.4085 6.43675 52.5146C6.52469 52.6208 6.63497 52.7063 6.75972 52.7649C6.88446 52.8236 7.02062 52.854 7.15848 52.8541H7.15894ZM9.73519 45.5442C9.91655 46.5723 10.3294 47.5456 10.9424 48.3906C9.91467 48.5722 8.94167 48.985 8.09691 49.5978C7.91536 48.57 7.50251 47.597 6.88957 46.7522C7.9174 46.5704 8.89045 46.1573 9.73519 45.5442Z" fill="white"/>
<path d="M75.6138 15.5C73.8659 15.1536 72.2603 14.2961 71.0004 13.0362C69.7404 11.7763 68.8829 10.1706 68.5366 8.42282C68.494 8.21038 68.3791 8.01925 68.2116 7.88193C68.044 7.7446 67.834 7.66956 67.6173 7.66956C67.4007 7.66956 67.1907 7.7446 67.0231 7.88193C66.8555 8.01925 66.7407 8.21038 66.6981 8.42282C66.3518 10.1706 65.4943 11.7763 64.2343 13.0362C62.9744 14.2961 61.3688 15.1536 59.6209 15.5C59.4085 15.5426 59.2174 15.6574 59.08 15.825C58.9427 15.9926 58.8677 16.2026 58.8677 16.4192C58.8677 16.6359 58.9427 16.8459 59.08 17.0134C59.2174 17.181 59.4085 17.2959 59.6209 17.3384C61.3688 17.6848 62.9744 18.5423 64.2344 19.8022C65.4943 21.0622 66.3518 22.6678 66.6981 24.4156C66.7407 24.6281 66.8555 24.8192 67.0231 24.9565C67.1907 25.0939 67.4007 25.1689 67.6173 25.1689C67.834 25.1689 68.044 25.0939 68.2116 24.9565C68.3791 24.8192 68.494 24.6281 68.5366 24.4156C68.8829 22.6678 69.7404 21.0622 71.0003 19.8022C72.2603 18.5423 73.8659 17.6848 75.6138 17.3384C75.8262 17.2959 76.0173 17.181 76.1546 17.0134C76.292 16.8459 76.367 16.6359 76.367 16.4192C76.367 16.2026 76.292 15.9926 76.1546 15.825C76.0173 15.6574 75.8262 15.5426 75.6138 15.5ZM67.6173 21.3438C66.5615 19.2059 64.8309 17.4752 62.693 16.4194C64.8308 15.3635 66.5614 13.633 67.6173 11.4952C68.6732 13.6331 70.4038 15.3638 72.5417 16.4197C70.4039 17.4755 68.6733 19.206 67.6173 21.3438Z" fill="white"/>
<path d="M21.9023 60.0134C21.9023 59.7967 21.8272 59.5867 21.6898 59.4191C21.5524 59.2515 21.3612 59.1367 21.1487 59.0942C19.6932 58.8057 18.356 58.0916 17.3068 57.0423C16.2575 55.993 15.5434 54.6559 15.255 53.2003C15.2124 52.9878 15.0976 52.7967 14.93 52.6594C14.7624 52.5221 14.5524 52.447 14.3358 52.447C14.1191 52.447 13.9091 52.5221 13.7415 52.6594C13.574 52.7967 13.4591 52.9878 13.4165 53.2003C13.128 54.6558 12.4139 55.9928 11.3646 57.042C10.3154 58.0912 8.97829 58.8053 7.52279 59.0937C7.31036 59.1363 7.11923 59.2511 6.9819 59.4187C6.84457 59.5863 6.76953 59.7963 6.76953 60.0129C6.76953 60.2296 6.84457 60.4396 6.9819 60.6072C7.11923 60.7747 7.31036 60.8896 7.52279 60.9322C8.97835 61.2206 10.3155 61.9347 11.3647 62.984C12.414 64.0332 13.1281 65.3704 13.4165 66.8259C13.4591 67.0383 13.574 67.2295 13.7415 67.3668C13.9091 67.5041 14.1191 67.5792 14.3358 67.5792C14.5524 67.5792 14.7624 67.5041 14.93 67.3668C15.0976 67.2295 15.2124 67.0383 15.255 66.8259C15.5434 65.3704 16.2575 64.0332 17.3068 62.984C18.356 61.9347 19.6932 61.2206 21.1487 60.9322C21.3612 60.8897 21.5523 60.7749 21.6897 60.6074C21.8271 60.4399 21.9022 60.23 21.9023 60.0134ZM14.3358 63.8804C13.461 62.2347 12.1143 60.8881 10.4686 60.0134C12.1142 59.1385 13.4609 57.7918 14.3358 56.1462C15.2107 57.7918 16.5573 59.1385 18.203 60.0134C16.5572 60.8881 15.2105 62.2347 14.3358 63.8804Z" fill="white"/>
</svg>
